%TF.GenerationSoftware,KiCad,Pcbnew,8.0.4*%
%TF.CreationDate,2024-11-05T10:07:57-05:00*%
%TF.ProjectId,battery_board_v2b,62617474-6572-4795-9f62-6f6172645f76,rev?*%
%TF.SameCoordinates,Original*%
%TF.FileFunction,Copper,L4,Bot*%
%TF.FilePolarity,Positive*%
%FSLAX46Y46*%
G04 Gerber Fmt 4.6, Leading zero omitted, Abs format (unit mm)*
G04 Created by KiCad (PCBNEW 8.0.4) date 2024-11-05 10:07:57*
%MOMM*%
%LPD*%
G01*
G04 APERTURE LIST*
%TA.AperFunction,ComponentPad*%
%ADD10C,5.000000*%
%TD*%
%TA.AperFunction,ComponentPad*%
%ADD11C,2.000000*%
%TD*%
%TA.AperFunction,ComponentPad*%
%ADD12R,1.700000X1.700000*%
%TD*%
%TA.AperFunction,ComponentPad*%
%ADD13O,1.700000X1.700000*%
%TD*%
%TA.AperFunction,ComponentPad*%
%ADD14R,1.508000X1.508000*%
%TD*%
%TA.AperFunction,ComponentPad*%
%ADD15C,1.508000*%
%TD*%
%TA.AperFunction,ComponentPad*%
%ADD16C,1.800000*%
%TD*%
%TA.AperFunction,ComponentPad*%
%ADD17C,4.770000*%
%TD*%
%TA.AperFunction,ComponentPad*%
%ADD18C,5.325000*%
%TD*%
%TA.AperFunction,ComponentPad*%
%ADD19C,3.570000*%
%TD*%
%TA.AperFunction,ComponentPad*%
%ADD20C,1.980000*%
%TD*%
%TA.AperFunction,ViaPad*%
%ADD21C,0.800000*%
%TD*%
%TA.AperFunction,ViaPad*%
%ADD22C,0.460000*%
%TD*%
%TA.AperFunction,Conductor*%
%ADD23C,0.250000*%
%TD*%
%TA.AperFunction,Conductor*%
%ADD24C,0.127000*%
%TD*%
%TA.AperFunction,Conductor*%
%ADD25C,0.152400*%
%TD*%
%TA.AperFunction,Conductor*%
%ADD26C,0.400000*%
%TD*%
%TA.AperFunction,Conductor*%
%ADD27C,2.000000*%
%TD*%
%TA.AperFunction,Conductor*%
%ADD28C,0.500000*%
%TD*%
%TA.AperFunction,Conductor*%
%ADD29C,0.200000*%
%TD*%
G04 APERTURE END LIST*
D10*
%TO.P,,1*%
%TO.N,N/C*%
X194573162Y-131529322D03*
%TD*%
D11*
%TO.P,TP4,1,1*%
%TO.N,PACK+*%
X173000000Y-55250000D03*
%TD*%
%TO.P,TP3,1,1*%
%TO.N,GND*%
X138850000Y-121525000D03*
%TD*%
%TO.P,TP5,1,1*%
%TO.N,+3V3*%
X168575000Y-121100000D03*
%TD*%
D10*
%TO.P,,1*%
%TO.N,N/C*%
X114573162Y-131529322D03*
%TD*%
D12*
%TO.P,J18,1,Pin_1*%
%TO.N,VBATT_SENSE*%
X169025000Y-54782400D03*
D13*
%TO.P,J18,2,Pin_2*%
%TO.N,VBatt*%
X169025000Y-57322400D03*
%TD*%
D11*
%TO.P,TP6,1,1*%
%TO.N,VBUSP*%
X124500000Y-57475000D03*
%TD*%
%TO.P,TP2,1,1*%
%TO.N,BM*%
X164973000Y-113665000D03*
%TD*%
%TO.P,TP1,1,1*%
%TO.N,B-*%
X187225000Y-121850000D03*
%TD*%
D14*
%TO.P,K1,C1*%
%TO.N,VBUSP*%
X137632500Y-87010000D03*
D15*
%TO.P,K1,C2*%
%TO.N,Net-(Q7-C)*%
X137632500Y-89550000D03*
D16*
%TO.P,K1,M*%
%TO.N,PACK+*%
X137632500Y-104790000D03*
%TO.P,K1,NO*%
%TO.N,Net-(K1-PadNO)*%
X137632500Y-99710000D03*
%TD*%
D17*
%TO.P,U8,1,1*%
%TO.N,unconnected-(U8-Pad1)*%
X134298500Y-116975000D03*
%TO.P,U8,2,2*%
%TO.N,unconnected-(U8-Pad2)*%
X116768500Y-116975000D03*
D18*
%TO.P,U8,3,3*%
%TO.N,unconnected-(U8-Pad3)*%
X134298500Y-61775000D03*
%TO.P,U8,4,4*%
%TO.N,unconnected-(U8-Pad4)*%
X151768500Y-61775000D03*
D19*
%TO.P,U8,5,5*%
%TO.N,unconnected-(U8-Pad5)*%
X116348500Y-53265000D03*
D20*
%TO.P,U8,6,6*%
%TO.N,BM*%
X124718500Y-125485000D03*
%TO.P,U8,7,7*%
X143848500Y-125485000D03*
%TO.P,U8,8,8*%
%TO.N,PACK+*%
X124718500Y-53265000D03*
%TO.P,U8,9,9*%
X143848500Y-53265000D03*
%TD*%
D17*
%TO.P,U7,1,1*%
%TO.N,unconnected-(U7-Pad1)*%
X175220000Y-116980000D03*
%TO.P,U7,2,2*%
%TO.N,unconnected-(U7-Pad2)*%
X157690000Y-116980000D03*
D18*
%TO.P,U7,3,3*%
%TO.N,unconnected-(U7-Pad3)*%
X175220000Y-61780000D03*
%TO.P,U7,4,4*%
%TO.N,unconnected-(U7-Pad4)*%
X192690000Y-61780000D03*
D19*
%TO.P,U7,5,5*%
%TO.N,unconnected-(U7-Pad5)*%
X157270000Y-53270000D03*
D20*
%TO.P,U7,6,6*%
%TO.N,B-*%
X165640000Y-125490000D03*
%TO.P,U7,7,7*%
X184770000Y-125490000D03*
%TO.P,U7,8,8*%
%TO.N,BM*%
X165640000Y-53270000D03*
%TO.P,U7,9,9*%
X184770000Y-53270000D03*
%TD*%
D21*
%TO.N,VSOLAR_I*%
X157073600Y-93675200D03*
X157073600Y-91541600D03*
%TO.N,+3V3*%
X181450000Y-106050000D03*
X151400000Y-114500000D03*
X184000000Y-97500000D03*
X150500000Y-92500000D03*
X178158800Y-97346300D03*
X181150000Y-101900000D03*
X149000000Y-105000000D03*
X153000000Y-80000000D03*
X130000000Y-121500000D03*
X145000000Y-120500000D03*
X152000000Y-102500000D03*
X128500000Y-117250000D03*
X159900000Y-108700000D03*
X163500000Y-110100000D03*
X157100000Y-113425000D03*
X152500000Y-88500000D03*
X158620800Y-105633162D03*
X147000000Y-110500000D03*
X160832800Y-99449500D03*
X161086800Y-97275500D03*
X152000000Y-100500000D03*
X148000000Y-120500000D03*
%TO.N,VBUSP*%
X168300000Y-96550000D03*
X166974600Y-89500000D03*
X169000000Y-78600000D03*
X181047820Y-90330940D03*
X149000000Y-59000000D03*
X146500000Y-62000000D03*
X168329624Y-88500000D03*
X183950000Y-81000000D03*
X166962000Y-91825000D03*
X183146900Y-90675000D03*
X149000000Y-76500000D03*
X182674400Y-83861100D03*
X179982000Y-85740700D03*
X146500000Y-72500000D03*
X168162900Y-82337100D03*
X149000000Y-72500000D03*
X147000000Y-77000000D03*
X167500000Y-80500000D03*
%TO.N,B-*%
X187880000Y-116600000D03*
X185775500Y-81050000D03*
%TO.N,Net-(Q4A-C1)*%
X169625000Y-79950000D03*
X168825000Y-90825000D03*
%TO.N,Net-(Q3B-B2)*%
X172525000Y-89350100D03*
X174089200Y-85298800D03*
X176650000Y-94325000D03*
X174190800Y-96154700D03*
X175289643Y-90697170D03*
%TO.N,GND*%
X159500000Y-112400000D03*
X125350000Y-66525000D03*
X162950000Y-64750000D03*
X173888000Y-90642564D03*
X126250000Y-106250000D03*
X182300000Y-111650000D03*
X172281188Y-81218812D03*
X178825000Y-66475000D03*
X122000000Y-89500000D03*
X155194000Y-94945200D03*
X163350000Y-91900000D03*
X181556800Y-79492300D03*
X187500000Y-76000000D03*
X174000000Y-80500000D03*
X120750000Y-107500000D03*
X147224500Y-94132400D03*
X126875500Y-123000000D03*
X158500000Y-65500000D03*
X182700000Y-86900000D03*
X190500000Y-91500000D03*
X130000000Y-115000000D03*
X157150000Y-128552502D03*
X168653600Y-85842300D03*
X161650000Y-81700000D03*
X160950000Y-114650000D03*
X154500000Y-58500000D03*
X138500000Y-113000000D03*
X150709600Y-112173400D03*
X122750000Y-111750000D03*
X125500000Y-111250000D03*
X146000000Y-83000000D03*
X125000000Y-99750000D03*
X167800000Y-98300000D03*
X159197201Y-73223200D03*
X167200000Y-66550000D03*
X174250000Y-66000000D03*
X187500000Y-107500000D03*
X185150000Y-111700000D03*
X177950000Y-86909100D03*
X185150000Y-113350000D03*
X140502699Y-75118000D03*
X182250000Y-114800000D03*
X140449500Y-58710500D03*
X134000000Y-108500000D03*
X178650000Y-79400000D03*
X167900000Y-93950000D03*
X168450400Y-91989100D03*
X182300000Y-113350000D03*
X175156000Y-97272300D03*
X167050000Y-65000000D03*
X162100000Y-96000000D03*
X176500000Y-54500000D03*
X162900000Y-66900000D03*
X178800000Y-69750000D03*
X139175700Y-84488516D03*
X160250000Y-76900000D03*
X162125000Y-123700000D03*
X185150000Y-114700000D03*
X167612400Y-100248362D03*
X124996499Y-78267600D03*
%TO.N,VBatt*%
X160425000Y-54900000D03*
X149650000Y-52750000D03*
%TO.N,F0_ENB*%
X188500000Y-114000000D03*
X184512299Y-121512299D03*
X181500000Y-121000000D03*
X191000000Y-82000000D03*
%TO.N,F1_ENB*%
X187500000Y-94500000D03*
X187500000Y-91000000D03*
%TO.N,F3_ENB*%
X132580000Y-104394000D03*
X124968000Y-113284000D03*
X129000000Y-95500000D03*
X132560000Y-101260000D03*
%TO.N,Net-(U9-+Vs)*%
X130000000Y-105250000D03*
X121500000Y-104000000D03*
%TO.N,Net-(Q7-C)*%
X137500000Y-69000000D03*
%TO.N,SCL_MAIN*%
X157000000Y-107000000D03*
X130500000Y-123000000D03*
X153000000Y-123000000D03*
X148012299Y-100987701D03*
X154500000Y-108800000D03*
X153852793Y-117397207D03*
X146500000Y-89500000D03*
X146500000Y-92000000D03*
%TO.N,SDA_MAIN*%
X128500000Y-122500000D03*
X153163300Y-116450000D03*
X151500000Y-124000000D03*
X147000000Y-101000000D03*
X145500000Y-87000000D03*
X151500000Y-121500000D03*
X145500000Y-92000000D03*
X151500000Y-105500000D03*
%TO.N,BURN_RELAY_A*%
X151500000Y-118000000D03*
X142500000Y-93000000D03*
X139382700Y-61047300D03*
X143000000Y-103000000D03*
%TO.N,ENAB_HEATER*%
X141000000Y-81000000D03*
X130000000Y-96000000D03*
X131064000Y-104140000D03*
X122936000Y-113538000D03*
%TO.N,Net-(IC2-SENSE)*%
X156555601Y-67940000D03*
X161000000Y-60500000D03*
X151882001Y-69565600D03*
%TO.N,VCC_RF1*%
X147260000Y-128440000D03*
X132380000Y-129880000D03*
%TO.N,/3V3_EN*%
X167179469Y-86046431D03*
X166789656Y-88517757D03*
%TO.N,BM*%
X165250000Y-68500000D03*
%TO.N,PACK+*%
X119600000Y-54250000D03*
X154000000Y-54850000D03*
%TO.N,ENAB_BURN*%
X150000000Y-119500000D03*
X139385500Y-90000000D03*
X138324300Y-72000000D03*
X139500000Y-107000000D03*
%TO.N,VBUS_RESET*%
X167327100Y-84165900D03*
X166847207Y-96052793D03*
X159575000Y-124650000D03*
X162600000Y-84000000D03*
X166950998Y-79515445D03*
X161609362Y-93468738D03*
D22*
%TO.N,F3_SDA*%
X178432800Y-101772362D03*
D21*
X133000000Y-93500000D03*
X156000000Y-98724500D03*
D22*
X178432800Y-106191962D03*
D21*
X122000000Y-94000000D03*
X133271938Y-99228062D03*
D22*
%TO.N,F2_SDA*%
X175384800Y-106191962D03*
D21*
X185000000Y-103000000D03*
D22*
X175384800Y-103042362D03*
D21*
X187000000Y-103000000D03*
%TO.N,F1_SDA*%
X191224500Y-87000000D03*
X185000000Y-101000497D03*
D22*
X172336800Y-104312362D03*
D21*
X187000000Y-101000000D03*
X191500000Y-100500000D03*
D22*
X172336800Y-106157062D03*
D21*
%TO.N,F0_SDA*%
X169000000Y-105672262D03*
X185000000Y-99000000D03*
X186500000Y-82000000D03*
X183000000Y-100000000D03*
D22*
%TO.N,F3_SCL*%
X179956800Y-106157062D03*
D21*
X157500000Y-98000000D03*
D22*
X179956800Y-101111963D03*
D21*
X127500000Y-92500000D03*
X130724500Y-97000000D03*
X122000000Y-92500000D03*
D22*
%TO.N,F2_SCL*%
X176908800Y-106157063D03*
X176908800Y-102381962D03*
D21*
X185000000Y-104500000D03*
X187000000Y-104500000D03*
%TO.N,F1_SCL*%
X191500000Y-89000000D03*
X191500000Y-102000000D03*
X187000000Y-102000000D03*
X185000000Y-102000000D03*
D22*
X173860800Y-106157062D03*
X173860800Y-103651962D03*
%TO.N,F0_SCL*%
X170812800Y-104972762D03*
D21*
X191000000Y-72500000D03*
X182500000Y-101000000D03*
D22*
X170812801Y-106157062D03*
D21*
X185000000Y-100000000D03*
%TO.N,F4_SCL*%
X142000000Y-105000000D03*
X129000000Y-100500000D03*
%TO.N,F4_SDA*%
X148500000Y-104000000D03*
X130000000Y-101500000D03*
%TO.N,I2C_RESET*%
X159587701Y-123612701D03*
X164037701Y-119162701D03*
%TO.N,ENAB_RF*%
X155000000Y-119500000D03*
X155000000Y-121500000D03*
%TO.N,VSOLAR*%
X141500000Y-90425000D03*
X168275000Y-95125000D03*
X130275000Y-88050000D03*
X184450000Y-92950000D03*
%TO.N,Net-(J9-Pin_2)*%
X119800000Y-106500000D03*
X129000000Y-110250000D03*
%TD*%
D23*
%TO.N,VSOLAR_I*%
X157073600Y-93675200D02*
X157073600Y-91541600D01*
%TO.N,+3V3*%
X152000000Y-102500000D02*
X152000000Y-100500000D01*
X145000000Y-120500000D02*
X148000000Y-120500000D01*
D24*
X158620800Y-100099200D02*
X158620800Y-105633162D01*
D23*
X161086800Y-97275500D02*
X160832800Y-97529500D01*
X178158800Y-97346300D02*
X178312500Y-97500000D01*
D25*
X162000000Y-108700000D02*
X163400000Y-110100000D01*
D23*
X160832800Y-97529500D02*
X160832800Y-99449500D01*
X147000000Y-107000000D02*
X149000000Y-105000000D01*
D26*
X181150000Y-101900000D02*
X181150000Y-105750000D01*
D25*
X159900000Y-108700000D02*
X162000000Y-108700000D01*
D23*
X152500000Y-80500000D02*
X152500000Y-88500000D01*
X157100000Y-113425000D02*
X156025000Y-114500000D01*
X147000000Y-110500000D02*
X147000000Y-107000000D01*
X153000000Y-80000000D02*
X152500000Y-80500000D01*
D24*
X159270500Y-99449500D02*
X158620800Y-100099200D01*
D23*
X150500000Y-90500000D02*
X150500000Y-92500000D01*
X178312500Y-97500000D02*
X184000000Y-97500000D01*
X130000000Y-118750000D02*
X128500000Y-117250000D01*
D24*
X160832800Y-99449500D02*
X159270500Y-99449500D01*
D26*
X181150000Y-105750000D02*
X181450000Y-106050000D01*
D23*
X156025000Y-114500000D02*
X151400000Y-114500000D01*
X152500000Y-88500000D02*
X150500000Y-90500000D01*
X130000000Y-121500000D02*
X130000000Y-118750000D01*
%TO.N,VBUSP*%
X147000000Y-77000000D02*
X148500000Y-77000000D01*
D25*
X179982000Y-85740700D02*
X180794800Y-85740700D01*
X181047820Y-86806520D02*
X179982000Y-85740700D01*
D23*
X174300000Y-78600000D02*
X169000000Y-78600000D01*
X148500000Y-77000000D02*
X149000000Y-76500000D01*
D25*
X181047820Y-90330940D02*
X181047820Y-86806520D01*
X166962000Y-95212000D02*
X166962000Y-91825000D01*
X168329624Y-88500000D02*
X167329624Y-89500000D01*
D23*
X146500000Y-72500000D02*
X149000000Y-72500000D01*
D25*
X168300000Y-96550000D02*
X166962000Y-95212000D01*
X167329624Y-89500000D02*
X166974600Y-89500000D01*
X181047820Y-90330940D02*
X182802840Y-90330940D01*
D23*
X168162900Y-82337100D02*
X168162900Y-81162900D01*
X149000000Y-59500000D02*
X149000000Y-59000000D01*
X183950000Y-81000000D02*
X176700000Y-81000000D01*
D25*
X182802840Y-90330940D02*
X183146900Y-90675000D01*
D23*
X176700000Y-81000000D02*
X174300000Y-78600000D01*
X168162900Y-81162900D02*
X167500000Y-80500000D01*
X146500000Y-62000000D02*
X149000000Y-59500000D01*
D25*
X180794800Y-85740700D02*
X182674400Y-83861100D01*
D27*
%TO.N,B-*%
X187000000Y-123300000D02*
X187100000Y-123300000D01*
X184790000Y-125510000D02*
X187000000Y-123300000D01*
X165660000Y-125510000D02*
X184790000Y-125510000D01*
X187225000Y-123175000D02*
X187225000Y-121850000D01*
X187100000Y-123300000D02*
X187225000Y-123175000D01*
D24*
%TO.N,Net-(Q4A-C1)*%
X171950000Y-79950000D02*
X169625000Y-79950000D01*
X173425700Y-85573631D02*
X173425700Y-85023969D01*
X173425700Y-85023969D02*
X173500000Y-84949669D01*
X173500000Y-84949669D02*
X173500000Y-81500000D01*
X173500000Y-85647931D02*
X173425700Y-85573631D01*
X173500000Y-81500000D02*
X171950000Y-79950000D01*
X168825000Y-90825000D02*
X173500000Y-86150000D01*
X173500000Y-86150000D02*
X173500000Y-85647931D01*
%TO.N,Net-(Q3B-B2)*%
X174190800Y-96154700D02*
X176020500Y-94325000D01*
D25*
X174225800Y-85435400D02*
X174089200Y-85298800D01*
X174225800Y-87649300D02*
X174225800Y-85435400D01*
D24*
X176020500Y-94325000D02*
X176650000Y-94325000D01*
X174075100Y-89350100D02*
X172525000Y-89350100D01*
X175289643Y-90697170D02*
X175289643Y-90564643D01*
D25*
X172525000Y-89350100D02*
X174225800Y-87649300D01*
D24*
X175289643Y-90564643D02*
X174075100Y-89350100D01*
%TO.N,GND*%
X168653600Y-85842300D02*
X172281188Y-82214712D01*
X172281188Y-82214712D02*
X172281188Y-81218812D01*
D26*
%TO.N,VBatt*%
X152950000Y-56050000D02*
X149650000Y-52750000D01*
X160425000Y-54900000D02*
X159275000Y-56050000D01*
X158700000Y-56050000D02*
X152950000Y-56050000D01*
X159275000Y-56050000D02*
X158700000Y-56050000D01*
D23*
%TO.N,F0_ENB*%
X190000000Y-83000000D02*
X191000000Y-82000000D01*
X190000000Y-89974695D02*
X190000000Y-83000000D01*
X190500000Y-92525305D02*
X191225000Y-91800305D01*
X188500000Y-114000000D02*
X188500000Y-111000000D01*
X191225000Y-91800305D02*
X191225000Y-91199695D01*
X190500000Y-109000000D02*
X190500000Y-92525305D01*
X188500000Y-111000000D02*
X190500000Y-109000000D01*
X184000000Y-121000000D02*
X181500000Y-121000000D01*
X184512299Y-121512299D02*
X184000000Y-121000000D01*
X191225000Y-91199695D02*
X190000000Y-89974695D01*
%TO.N,F1_ENB*%
X187500000Y-94500000D02*
X187500000Y-91000000D01*
%TO.N,F3_ENB*%
X128778000Y-113284000D02*
X132588000Y-109474000D01*
X129000000Y-97700000D02*
X129000000Y-95500000D01*
X124968000Y-113284000D02*
X128778000Y-113284000D01*
X132588000Y-109474000D02*
X132588000Y-104402000D01*
X132588000Y-104402000D02*
X132580000Y-104394000D01*
X132560000Y-101260000D02*
X129000000Y-97700000D01*
%TO.N,Net-(U9-+Vs)*%
X122750000Y-105250000D02*
X130000000Y-105250000D01*
X121500000Y-104000000D02*
X122750000Y-105250000D01*
%TO.N,Net-(Q7-C)*%
X136000000Y-83500000D02*
X136000000Y-87917500D01*
X136000000Y-87917500D02*
X137632500Y-89550000D01*
X137500000Y-82000000D02*
X136000000Y-83500000D01*
X137500000Y-69000000D02*
X137500000Y-82000000D01*
%TO.N,SCL_MAIN*%
X154163000Y-117707414D02*
X154163000Y-121837000D01*
X154500000Y-108800000D02*
X156300000Y-107000000D01*
X156300000Y-107000000D02*
X157000000Y-107000000D01*
X154024598Y-107000000D02*
X157000000Y-107000000D01*
X146500000Y-89500000D02*
X146500000Y-92000000D01*
X148012299Y-100987701D02*
X154024598Y-107000000D01*
X154163000Y-121837000D02*
X153000000Y-123000000D01*
X153000000Y-123000000D02*
X130500000Y-123000000D01*
X153852793Y-117397207D02*
X154163000Y-117707414D01*
D24*
%TO.N,SDA_MAIN*%
X153163300Y-116450000D02*
X153163300Y-119836700D01*
D23*
X145500000Y-87000000D02*
X145500000Y-92000000D01*
X129900000Y-123900000D02*
X131150000Y-123900000D01*
X131350000Y-123700000D02*
X151200000Y-123700000D01*
X131150000Y-123900000D02*
X131350000Y-123700000D01*
X128500000Y-122500000D02*
X129900000Y-123900000D01*
X151200000Y-123700000D02*
X151500000Y-124000000D01*
D24*
X153163300Y-119836700D02*
X151500000Y-121500000D01*
D23*
X147000000Y-101000000D02*
X151500000Y-105500000D01*
D25*
%TO.N,BURN_RELAY_A*%
X138500000Y-84932618D02*
X138901199Y-85333817D01*
X139000500Y-82365877D02*
X138500000Y-82866377D01*
X138901199Y-85401199D02*
X142500000Y-89000000D01*
X143000000Y-103000000D02*
X143000000Y-111500000D01*
X139382700Y-61047300D02*
X139382700Y-66118300D01*
X139000500Y-66500500D02*
X139000500Y-82365877D01*
X139382700Y-66118300D02*
X139000500Y-66500500D01*
X143000000Y-111500000D02*
X149500000Y-118000000D01*
X149500000Y-118000000D02*
X151500000Y-118000000D01*
X138500000Y-82866377D02*
X138500000Y-84932618D01*
X138901199Y-85333817D02*
X138901199Y-85401199D01*
X142500000Y-89000000D02*
X142500000Y-93000000D01*
D23*
%TO.N,ENAB_HEATER*%
X144000000Y-93000000D02*
X142500000Y-94500000D01*
X142500000Y-94500000D02*
X130500000Y-94500000D01*
X128270000Y-112268000D02*
X131064000Y-109474000D01*
X141000000Y-81000000D02*
X141000000Y-86000000D01*
X130500000Y-94500000D02*
X130000000Y-95000000D01*
X144000000Y-89000000D02*
X144000000Y-93000000D01*
X131064000Y-109474000D02*
X131064000Y-104140000D01*
X122936000Y-113538000D02*
X124206000Y-112268000D01*
X124206000Y-112268000D02*
X128270000Y-112268000D01*
X130000000Y-95000000D02*
X130000000Y-96000000D01*
X141000000Y-86000000D02*
X144000000Y-89000000D01*
D24*
%TO.N,Net-(IC2-SENSE)*%
X154930001Y-69565600D02*
X156555601Y-67940000D01*
X156555601Y-64944399D02*
X161000000Y-60500000D01*
X156555601Y-67940000D02*
X156555601Y-64944399D01*
X151882001Y-69565600D02*
X154930001Y-69565600D01*
D26*
%TO.N,VCC_RF1*%
X143580000Y-132140000D02*
X134640000Y-132140000D01*
X143580000Y-132120000D02*
X143580000Y-132140000D01*
X134640000Y-132140000D02*
X132380000Y-129880000D01*
X147260000Y-128440000D02*
X143580000Y-132120000D01*
D25*
%TO.N,/3V3_EN*%
X167179469Y-86046431D02*
X167179469Y-88127944D01*
X167179469Y-88127944D02*
X166789656Y-88517757D01*
D27*
%TO.N,BM*%
X165660000Y-53290000D02*
X167450000Y-51500000D01*
X165140726Y-54859274D02*
X165140726Y-111640726D01*
X165140726Y-53809274D02*
X165660000Y-53290000D01*
X164973000Y-111808452D02*
X164973000Y-113665000D01*
X183000000Y-51500000D02*
X184790000Y-53290000D01*
X154800000Y-126000000D02*
X155600000Y-125200000D01*
X150950000Y-126000000D02*
X154800000Y-126000000D01*
X167450000Y-51500000D02*
X183000000Y-51500000D01*
X124718500Y-125485000D02*
X143848500Y-125485000D01*
X165140726Y-54859274D02*
X165140726Y-53809274D01*
X150435000Y-125485000D02*
X150950000Y-126000000D01*
X165140726Y-111640726D02*
X165140726Y-115659274D01*
X143848500Y-125485000D02*
X150435000Y-125485000D01*
X165140726Y-111640726D02*
X164973000Y-111808452D01*
X165140726Y-115659274D02*
X155600000Y-125200000D01*
D28*
%TO.N,PACK+*%
X120585000Y-53265000D02*
X124718500Y-53265000D01*
D27*
X124718500Y-53265000D02*
X143848500Y-53265000D01*
D28*
X119600000Y-54250000D02*
X120585000Y-53265000D01*
D23*
%TO.N,ENAB_BURN*%
X138500000Y-85500000D02*
X138500000Y-85567382D01*
X150000000Y-119500000D02*
X150000000Y-119067382D01*
X140000000Y-87067382D02*
X140000000Y-87500000D01*
X150000000Y-119067382D02*
X139500000Y-108567382D01*
X140000000Y-89385500D02*
X139385500Y-90000000D01*
X138324300Y-72000000D02*
X138324300Y-82474695D01*
X139500000Y-108567382D02*
X139500000Y-107000000D01*
X137599300Y-84599300D02*
X138500000Y-85500000D01*
X140000000Y-87500000D02*
X140000000Y-89385500D01*
X138500000Y-85567382D02*
X140000000Y-87067382D01*
X138324300Y-82474695D02*
X137599300Y-83199695D01*
X137599300Y-83199695D02*
X137599300Y-84599300D01*
%TO.N,VBUS_RESET*%
X167359405Y-84165900D02*
X167327100Y-84165900D01*
X166966443Y-79500000D02*
X168500000Y-79500000D01*
X159575000Y-124650000D02*
X166887400Y-117337600D01*
X168900000Y-82625305D02*
X167359405Y-84165900D01*
X166887400Y-117337600D02*
X166887400Y-96092986D01*
X166887400Y-96092986D02*
X166847207Y-96052793D01*
X162500000Y-84100000D02*
X162500000Y-92578100D01*
X162500000Y-92578100D02*
X161609362Y-93468738D01*
X168900000Y-79900000D02*
X168900000Y-82625305D01*
X168500000Y-79500000D02*
X168900000Y-79900000D01*
X162600000Y-84000000D02*
X162500000Y-84100000D01*
X166950998Y-79515445D02*
X166966443Y-79500000D01*
%TO.N,F3_SDA*%
X135500000Y-101000000D02*
X135043876Y-101000000D01*
X140000000Y-101000000D02*
X135500000Y-101000000D01*
X156000000Y-98724500D02*
X142275500Y-98724500D01*
X142275500Y-98724500D02*
X140000000Y-101000000D01*
X122500000Y-93500000D02*
X122000000Y-94000000D01*
D29*
X178432800Y-106152462D02*
X178432800Y-101797762D01*
X178432800Y-106152462D02*
X178432800Y-106182462D01*
D23*
X133000000Y-93500000D02*
X122500000Y-93500000D01*
X135043876Y-101000000D02*
X133271938Y-99228062D01*
D29*
%TO.N,F2_SDA*%
X175384800Y-106152462D02*
X175384800Y-103067762D01*
D23*
X187000000Y-103000000D02*
X185000000Y-103000000D01*
D29*
X175384800Y-106152462D02*
X175384800Y-106182462D01*
%TO.N,F1_SDA*%
X172336800Y-106152462D02*
X172336800Y-105912562D01*
D23*
X191500000Y-90000000D02*
X192000000Y-90500000D01*
D29*
X172336800Y-105912562D02*
X172336800Y-104337762D01*
D23*
X185000497Y-101000000D02*
X185000000Y-101000497D01*
X192000000Y-100000000D02*
X191500000Y-100500000D01*
X192000000Y-90500000D02*
X192000000Y-100000000D01*
X191224500Y-87000000D02*
X190500000Y-87724500D01*
X187000000Y-101000000D02*
X185000497Y-101000000D01*
X191474695Y-90000000D02*
X191500000Y-90000000D01*
X190500000Y-87724500D02*
X190500000Y-89025305D01*
X190500000Y-89025305D02*
X191474695Y-90000000D01*
D25*
X172336800Y-106182462D02*
X172336800Y-105912562D01*
D23*
%TO.N,F0_SDA*%
X183000000Y-100000000D02*
X174672262Y-100000000D01*
X186500000Y-97500000D02*
X186500000Y-82000000D01*
X185000000Y-99000000D02*
X186500000Y-97500000D01*
X174672262Y-100000000D02*
X169000000Y-105672262D01*
%TO.N,F3_SCL*%
X130724500Y-97000000D02*
X131724500Y-98000000D01*
X131724500Y-98000000D02*
X157500000Y-98000000D01*
D29*
X179956800Y-106152462D02*
X179956800Y-101137363D01*
D23*
X127500000Y-92500000D02*
X122000000Y-92500000D01*
D29*
%TO.N,F2_SCL*%
X176908800Y-105810962D02*
X176908800Y-102407362D01*
D25*
X176908800Y-106182461D02*
X176908800Y-105810962D01*
D23*
X187000000Y-104500000D02*
X185000000Y-104500000D01*
D29*
X176908800Y-106152462D02*
X176908800Y-105810962D01*
D23*
%TO.N,F1_SCL*%
X187000000Y-102000000D02*
X185000000Y-102000000D01*
D29*
X173860800Y-106152462D02*
X173860800Y-105760162D01*
D23*
X192000000Y-89500000D02*
X193000000Y-89500000D01*
X191500000Y-89000000D02*
X192000000Y-89500000D01*
X193000000Y-89500000D02*
X193500000Y-90000000D01*
D29*
X173860800Y-105760162D02*
X173860800Y-103677362D01*
D25*
X173860800Y-106182462D02*
X173860800Y-105760162D01*
D23*
X193500000Y-90000000D02*
X193500000Y-91000000D01*
X193500000Y-91000000D02*
X193500000Y-100000000D01*
X193500000Y-100000000D02*
X191500000Y-102000000D01*
D29*
%TO.N,F0_SCL*%
X188500000Y-96500000D02*
X188500000Y-88500000D01*
X182081963Y-100581963D02*
X182500000Y-101000000D01*
X170812800Y-106152462D02*
X170812800Y-104998162D01*
X188500000Y-88500000D02*
X188500000Y-75000000D01*
X170812800Y-104972762D02*
X175203599Y-100581963D01*
X175203599Y-100581963D02*
X182081963Y-100581963D01*
X188500000Y-75000000D02*
X191000000Y-72500000D01*
X185000000Y-100000000D02*
X188500000Y-96500000D01*
D23*
%TO.N,F4_SCL*%
X130500000Y-102963400D02*
X139963400Y-102963400D01*
X130213400Y-102963400D02*
X130000000Y-102750000D01*
X129000000Y-101750000D02*
X129000000Y-100500000D01*
X139963400Y-102963400D02*
X142000000Y-105000000D01*
X130000000Y-102750000D02*
X129000000Y-101750000D01*
X130500000Y-102963400D02*
X130213400Y-102963400D01*
%TO.N,F4_SDA*%
X130775000Y-102275000D02*
X130000000Y-101500000D01*
X146775000Y-102275000D02*
X130775000Y-102275000D01*
X148500000Y-104000000D02*
X146775000Y-102275000D01*
%TO.N,I2C_RESET*%
X163812299Y-119162701D02*
X164037701Y-119162701D01*
X159587701Y-123387299D02*
X163812299Y-119162701D01*
X159587701Y-123612701D02*
X159587701Y-123387299D01*
D25*
%TO.N,ENAB_RF*%
X155000000Y-119500000D02*
X155000000Y-121500000D01*
D28*
%TO.N,VSOLAR*%
X140502690Y-91422310D02*
X141500000Y-90425000D01*
X130275000Y-88050000D02*
X133647310Y-91422310D01*
X184450000Y-92950000D02*
X170450000Y-92950000D01*
X133647310Y-91422310D02*
X140502690Y-91422310D01*
X170450000Y-92950000D02*
X168275000Y-95125000D01*
%TO.N,PACK-*%
X184000000Y-115760000D02*
X184000000Y-98702082D01*
X184840000Y-116600000D02*
X184000000Y-115760000D01*
X184000000Y-98702082D02*
X185302400Y-97399682D01*
X185302400Y-97399682D02*
X185302400Y-81523100D01*
X185302400Y-81523100D02*
X185775500Y-81050000D01*
X187880000Y-116600000D02*
X184840000Y-116600000D01*
D23*
%TO.N,Net-(J9-Pin_2)*%
X122000000Y-107000000D02*
X121500000Y-106500000D01*
X121500000Y-106500000D02*
X119800000Y-106500000D01*
X128250000Y-109500000D02*
X124500000Y-109500000D01*
X124500000Y-109500000D02*
X122000000Y-107000000D01*
X129000000Y-110250000D02*
X128250000Y-109500000D01*
%TD*%
%TA.AperFunction,Conductor*%
%TO.N,GND*%
G36*
X167058884Y-49824602D02*
G01*
X167105377Y-49878258D01*
X167115481Y-49948532D01*
X167085987Y-50013112D01*
X167029699Y-50050433D01*
X166870941Y-50102016D01*
X166870935Y-50102019D01*
X166659369Y-50209817D01*
X166467275Y-50349382D01*
X166467272Y-50349384D01*
X164768371Y-52048286D01*
X164756667Y-52058623D01*
X164621620Y-52163734D01*
X164621615Y-52163739D01*
X164453420Y-52346447D01*
X164428919Y-52383947D01*
X164412534Y-52404124D01*
X164158007Y-52658651D01*
X164158004Y-52658654D01*
X164105723Y-52710935D01*
X163990106Y-52826551D01*
X163889521Y-52964996D01*
X163850543Y-53018643D01*
X163742745Y-53230209D01*
X163742742Y-53230215D01*
X163669371Y-53456028D01*
X163669370Y-53456031D01*
X163669370Y-53456033D01*
X163633036Y-53685436D01*
X163632225Y-53690555D01*
X163632225Y-53933188D01*
X163632226Y-53933213D01*
X163632226Y-83500630D01*
X163612224Y-83568751D01*
X163558568Y-83615244D01*
X163488294Y-83625348D01*
X163423714Y-83595854D01*
X163397107Y-83563631D01*
X163395602Y-83561024D01*
X163339040Y-83463056D01*
X163339036Y-83463051D01*
X163339034Y-83463048D01*
X163211255Y-83321135D01*
X163056752Y-83208882D01*
X162882288Y-83131206D01*
X162695487Y-83091500D01*
X162504513Y-83091500D01*
X162317711Y-83131206D01*
X162143247Y-83208882D01*
X161988744Y-83321135D01*
X161860965Y-83463048D01*
X161860958Y-83463058D01*
X161765476Y-83628438D01*
X161765473Y-83628445D01*
X161706457Y-83810072D01*
X161686496Y-84000000D01*
X161706457Y-84189927D01*
X161720341Y-84232656D01*
X161765473Y-84371556D01*
X161815473Y-84458159D01*
X161849619Y-84517300D01*
X161866500Y-84580300D01*
X161866500Y-92263506D01*
X161846498Y-92331627D01*
X161829595Y-92352601D01*
X161658863Y-92523333D01*
X161596551Y-92557359D01*
X161569768Y-92560238D01*
X161513875Y-92560238D01*
X161327073Y-92599944D01*
X161152609Y-92677620D01*
X160998106Y-92789873D01*
X160870327Y-92931786D01*
X160870320Y-92931796D01*
X160774838Y-93097176D01*
X160774835Y-93097183D01*
X160715819Y-93278810D01*
X160695858Y-93468738D01*
X160715819Y-93658665D01*
X160734945Y-93717526D01*
X160774835Y-93840294D01*
X160774838Y-93840299D01*
X160870320Y-94005679D01*
X160870327Y-94005689D01*
X160998106Y-94147602D01*
X161056361Y-94189927D01*
X161152610Y-94259856D01*
X161327074Y-94337532D01*
X161513875Y-94377238D01*
X161704849Y-94377238D01*
X161891650Y-94337532D01*
X162066114Y-94259856D01*
X162220615Y-94147604D01*
X162233314Y-94133500D01*
X162348396Y-94005689D01*
X162348397Y-94005687D01*
X162348402Y-94005682D01*
X162443889Y-93840294D01*
X162502904Y-93658666D01*
X162520269Y-93493442D01*
X162547282Y-93427787D01*
X162556474Y-93417528D01*
X162992071Y-92981933D01*
X163061400Y-92878175D01*
X163109155Y-92762885D01*
X163133500Y-92640494D01*
X163133500Y-92515707D01*
X163133500Y-84799557D01*
X163153502Y-84731436D01*
X163185439Y-84697621D01*
X163195339Y-84690428D01*
X163211253Y-84678866D01*
X163336321Y-84539964D01*
X163339034Y-84536951D01*
X163339035Y-84536949D01*
X163339040Y-84536944D01*
X163397107Y-84436368D01*
X163448490Y-84387376D01*
X163518203Y-84373940D01*
X163584114Y-84400326D01*
X163625296Y-84458159D01*
X163632226Y-84499369D01*
X163632226Y-109065500D01*
X163612224Y-109133621D01*
X163558568Y-109180114D01*
X163506226Y-109191500D01*
X163404510Y-109191500D01*
X163400397Y-109192374D01*
X163397959Y-109192187D01*
X163397940Y-109192190D01*
X163397939Y-109192186D01*
X163329607Y-109186969D01*
X163285112Y-109158222D01*
X162359014Y-108232124D01*
X162349666Y-108226727D01*
X162225686Y-108155147D01*
X162076977Y-108115300D01*
X162076975Y-108115300D01*
X160652139Y-108115300D01*
X160584018Y-108095298D01*
X160558502Y-108073610D01*
X160511252Y-108021133D01*
X160356752Y-107908882D01*
X160182288Y-107831206D01*
X159995487Y-107791500D01*
X159804513Y-107791500D01*
X159617711Y-107831206D01*
X159443247Y-107908882D01*
X159288744Y-108021135D01*
X159160965Y-108163048D01*
X159160958Y-108163058D01*
X159079021Y-108304978D01*
X159065473Y-108328444D01*
X159050999Y-108372986D01*
X159006457Y-108510072D01*
X158986496Y-108700000D01*
X159006457Y-108889927D01*
X159022273Y-108938601D01*
X159065473Y-109071556D01*
X159065476Y-109071561D01*
X159160958Y-109236941D01*
X159160965Y-109236951D01*
X159288744Y-109378864D01*
X159323104Y-109403828D01*
X159443248Y-109491118D01*
X159617712Y-109568794D01*
X159804513Y-109608500D01*
X159995487Y-109608500D01*
X160182288Y-109568794D01*
X160356752Y-109491118D01*
X160511253Y-109378866D01*
X160558502Y-109326389D01*
X160618948Y-109289150D01*
X160652139Y-109284700D01*
X161705620Y-109284700D01*
X161773741Y-109304702D01*
X161794715Y-109321605D01*
X162556516Y-110083406D01*
X162590542Y-110145718D01*
X162592731Y-110159330D01*
X162606457Y-110289927D01*
X162613003Y-110310072D01*
X162665473Y-110471556D01*
X162665476Y-110471561D01*
X162760958Y-110636941D01*
X162760965Y-110636951D01*
X162888744Y-110778864D01*
X162888747Y-110778866D01*
X163043248Y-110891118D01*
X163217712Y-110968794D01*
X163404513Y-111008500D01*
X163481953Y-111008500D01*
X163550074Y-111028502D01*
X163596567Y-111082158D01*
X163606671Y-111152432D01*
X163594220Y-111191702D01*
X163575021Y-111229381D01*
X163575016Y-111229393D01*
X163501645Y-111455206D01*
X163464499Y-111689733D01*
X163464499Y-111932366D01*
X163464500Y-111932391D01*
X163464500Y-113600770D01*
X163464112Y-113610655D01*
X163459835Y-113664999D01*
X163464112Y-113719343D01*
X163464500Y-113729228D01*
X163464500Y-113783721D01*
X163473025Y-113837550D01*
X163474187Y-113847371D01*
X163478464Y-113901704D01*
X163478465Y-113901710D01*
X163491187Y-113954706D01*
X163493116Y-113964405D01*
X163501643Y-114018241D01*
X163518487Y-114070079D01*
X163521167Y-114079582D01*
X163532899Y-114128444D01*
X163533896Y-114132597D01*
X163554750Y-114182943D01*
X163558172Y-114192218D01*
X163566180Y-114216864D01*
X163575019Y-114244065D01*
X163575019Y-114244066D01*
X163587168Y-114267909D01*
X163599760Y-114292623D01*
X163603896Y-114301595D01*
X163622634Y-114346831D01*
X163632226Y-114395051D01*
X163632226Y-114982242D01*
X163612224Y-115050363D01*
X163595321Y-115071337D01*
X160646184Y-118020473D01*
X160583872Y-118054499D01*
X160513056Y-118049434D01*
X160456221Y-118006887D01*
X160431410Y-117940367D01*
X160436381Y-117895248D01*
X160510277Y-117648418D01*
X160568806Y-117316484D01*
X160588404Y-116980000D01*
X160568806Y-116643516D01*
X160510277Y-116311582D01*
X160413609Y-115988687D01*
X160280108Y-115679199D01*
X160111581Y-115387301D01*
X160039975Y-115291117D01*
X159910305Y-115116940D01*
X159679009Y-114871780D01*
X159679008Y-114871779D01*
X159679006Y-114871777D01*
X159420807Y-114655123D01*
X159139202Y-114469909D01*
X158837999Y-114318639D01*
X158837998Y-114318638D01*
X158837997Y-114318638D01*
X158521277Y-114203360D01*
X158193304Y-114125629D01*
X158193298Y-114125628D01*
X157963183Y-114098732D01*
X157897845Y-114070957D01*
X157857896Y-114012266D01*
X157856019Y-113941295D01*
X157868688Y-113910591D01*
X157934527Y-113796556D01*
X157993542Y-113614928D01*
X158013504Y-113425000D01*
X157993542Y-113235072D01*
X157934527Y-113053444D01*
X157839040Y-112888056D01*
X157839038Y-112888054D01*
X157839034Y-112888048D01*
X157711255Y-112746135D01*
X157556752Y-112633882D01*
X157382288Y-112556206D01*
X157195487Y-112516500D01*
X157004513Y-112516500D01*
X156817711Y-112556206D01*
X156643247Y-112633882D01*
X156488744Y-112746135D01*
X156360965Y-112888048D01*
X156360958Y-112888058D01*
X156265476Y-113053438D01*
X156265473Y-113053445D01*
X156206457Y-113235072D01*
X156189093Y-113400290D01*
X156162080Y-113465947D01*
X156152879Y-113476215D01*
X155799501Y-113829595D01*
X155737189Y-113863620D01*
X155710405Y-113866500D01*
X152108200Y-113866500D01*
X152040079Y-113846498D01*
X152014563Y-113824810D01*
X152011252Y-113821133D01*
X151856752Y-113708882D01*
X151682288Y-113631206D01*
X151495487Y-113591500D01*
X151304513Y-113591500D01*
X151117711Y-113631206D01*
X150943247Y-113708882D01*
X150788744Y-113821135D01*
X150660965Y-113963048D01*
X150660958Y-113963058D01*
X150567098Y-114125629D01*
X150565473Y-114128444D01*
X150557561Y-114152794D01*
X150506457Y-114310072D01*
X150486496Y-114500000D01*
X150506457Y-114689927D01*
X150536526Y-114782470D01*
X150565473Y-114871556D01*
X150565601Y-114871777D01*
X150660958Y-115036941D01*
X150660965Y-115036951D01*
X150788744Y-115178864D01*
X150788747Y-115178866D01*
X150943248Y-115291118D01*
X151117712Y-115368794D01*
X151304513Y-115408500D01*
X151495487Y-115408500D01*
X151682288Y-115368794D01*
X151856752Y-115291118D01*
X152011253Y-115178866D01*
X152014563Y-115175190D01*
X152075009Y-115137950D01*
X152108200Y-115133500D01*
X155206480Y-115133500D01*
X155274601Y-115153502D01*
X155321094Y-115207158D01*
X155331198Y-115277432D01*
X155307548Y-115334742D01*
X155268422Y-115387296D01*
X155268412Y-115387312D01*
X155099895Y-115679193D01*
X155099886Y-115679211D01*
X154966394Y-115988679D01*
X154966391Y-115988687D01*
X154927293Y-116119283D01*
X154869723Y-116311581D01*
X154811193Y-116643520D01*
X154811193Y-116643526D01*
X154803552Y-116774722D01*
X154779623Y-116841565D01*
X154723355Y-116884859D01*
X154652612Y-116890860D01*
X154589855Y-116857662D01*
X154584129Y-116851706D01*
X154464048Y-116718342D01*
X154361064Y-116643520D01*
X154309545Y-116606089D01*
X154149044Y-116534630D01*
X154094950Y-116488651D01*
X154074985Y-116432696D01*
X154056842Y-116260072D01*
X153997827Y-116078444D01*
X153902340Y-115913056D01*
X153902338Y-115913054D01*
X153902334Y-115913048D01*
X153774555Y-115771135D01*
X153620052Y-115658882D01*
X153445588Y-115581206D01*
X153258787Y-115541500D01*
X153067813Y-115541500D01*
X152881011Y-115581206D01*
X152706547Y-115658882D01*
X152552044Y-115771135D01*
X152424265Y-115913048D01*
X152424258Y-115913058D01*
X152337657Y-116063056D01*
X152328773Y-116078444D01*
X152315503Y-116119284D01*
X152269757Y-116260072D01*
X152249796Y-116450000D01*
X152269757Y-116639927D01*
X152295236Y-116718341D01*
X152328773Y-116821556D01*
X152328776Y-116821561D01*
X152424258Y-116986941D01*
X152424265Y-116986951D01*
X152556465Y-117133774D01*
X152554866Y-117135213D01*
X152586843Y-117187093D01*
X152591300Y-117220308D01*
X152591300Y-117623177D01*
X152571298Y-117691298D01*
X152517642Y-117737791D01*
X152447368Y-117747895D01*
X152382788Y-117718401D01*
X152345467Y-117662114D01*
X152339392Y-117643418D01*
X152334527Y-117628444D01*
X152239040Y-117463056D01*
X152239038Y-117463054D01*
X152239034Y-117463048D01*
X152111255Y-117321135D01*
X151956752Y-117208882D01*
X151782288Y-117131206D01*
X151595487Y-117091500D01*
X151404513Y-117091500D01*
X151217711Y-117131206D01*
X151043247Y-117208882D01*
X150888747Y-117321133D01*
X150841498Y-117373610D01*
X150781052Y-117410850D01*
X150747861Y-117415300D01*
X149794380Y-117415300D01*
X149726259Y-117395298D01*
X149705285Y-117378395D01*
X143621605Y-111294715D01*
X143587579Y-111232403D01*
X143584700Y-111205620D01*
X143584700Y-103756722D01*
X143604702Y-103688601D01*
X143617057Y-103672419D01*
X143739040Y-103536944D01*
X143834527Y-103371556D01*
X143893542Y-103189928D01*
X143911262Y-103021329D01*
X143938275Y-102955673D01*
X143996496Y-102915043D01*
X144036572Y-102908500D01*
X146460406Y-102908500D01*
X146528527Y-102928502D01*
X146549501Y-102945405D01*
X147552877Y-103948781D01*
X147586903Y-104011093D01*
X147589092Y-104024705D01*
X147606457Y-104189927D01*
X147633180Y-104272168D01*
X147665473Y-104371556D01*
X147678431Y-104394000D01*
X147760958Y-104536941D01*
X147760965Y-104536951D01*
X147888744Y-104678864D01*
X147888747Y-104678866D01*
X148043248Y-104791118D01*
X148043250Y-104791119D01*
X148044971Y-104792369D01*
X148088325Y-104848591D01*
X148096220Y-104907476D01*
X148089092Y-104975293D01*
X148062079Y-105040950D01*
X148052877Y-105051217D01*
X146596167Y-106507929D01*
X146507931Y-106596164D01*
X146507926Y-106596171D01*
X146438601Y-106699923D01*
X146390846Y-106815212D01*
X146366500Y-106937603D01*
X146366500Y-109797474D01*
X146346498Y-109865595D01*
X146334137Y-109881784D01*
X146260957Y-109963059D01*
X146173259Y-110114958D01*
X146165473Y-110128444D01*
X146151839Y-110170405D01*
X146106457Y-110310072D01*
X146086496Y-110500000D01*
X146106457Y-110689927D01*
X146109706Y-110699925D01*
X146165473Y-110871556D01*
X146165476Y-110871561D01*
X146260958Y-111036941D01*
X146260965Y-111036951D01*
X146388744Y-111178864D01*
X146449999Y-111223368D01*
X146543248Y-111291118D01*
X146717712Y-111368794D01*
X146904513Y-111408500D01*
X147095487Y-111408500D01*
X147282288Y-111368794D01*
X147456752Y-111291118D01*
X147611253Y-111178866D01*
X147635054Y-111152432D01*
X147739034Y-111036951D01*
X147739035Y-111036949D01*
X147739040Y-111036944D01*
X147834527Y-110871556D01*
X147893542Y-110689928D01*
X147913504Y-110500000D01*
X147893542Y-110310072D01*
X147834527Y-110128444D01*
X147739040Y-109963056D01*
X147665863Y-109881784D01*
X147635146Y-109817776D01*
X147633500Y-109797474D01*
X147633500Y-107314594D01*
X147653502Y-107246473D01*
X147670405Y-107225499D01*
X148950499Y-105945405D01*
X149012811Y-105911379D01*
X149039594Y-105908500D01*
X149095487Y-105908500D01*
X149282288Y-105868794D01*
X149456752Y-105791118D01*
X149611253Y-105678866D01*
X149611633Y-105678444D01*
X149739034Y-105536951D01*
X149739035Y-105536949D01*
X149739040Y-105536944D01*
X149834527Y-105371556D01*
X149893542Y-105189928D01*
X149904018Y-105090251D01*
X149931031Y-105024595D01*
X149989252Y-104983965D01*
X150060197Y-104981262D01*
X150118423Y-105014327D01*
X150552877Y-105448781D01*
X150586903Y-105511093D01*
X150589092Y-105524705D01*
X150606457Y-105689927D01*
X150621886Y-105737410D01*
X150665473Y-105871556D01*
X150674516Y-105887219D01*
X150760958Y-106036941D01*
X150760965Y-106036951D01*
X150888744Y-106178864D01*
X150888747Y-106178866D01*
X151043248Y-106291118D01*
X151217712Y-106368794D01*
X151404513Y-106408500D01*
X151595487Y-106408500D01*
X151782288Y-106368794D01*
X151956752Y-106291118D01*
X152111253Y-106178866D01*
X152115416Y-106174242D01*
X152175860Y-106137001D01*
X152246844Y-106138350D01*
X152298147Y-106169453D01*
X153620765Y-107492072D01*
X153724523Y-107561401D01*
X153839813Y-107609155D01*
X153962204Y-107633500D01*
X154086992Y-107633500D01*
X154466406Y-107633500D01*
X154534527Y-107653502D01*
X154581020Y-107707158D01*
X154591124Y-107777432D01*
X154561630Y-107842012D01*
X154555501Y-107848595D01*
X154549501Y-107854595D01*
X154487189Y-107888621D01*
X154460406Y-107891500D01*
X154404513Y-107891500D01*
X154217711Y-107931206D01*
X154043247Y-108008882D01*
X153888744Y-108121135D01*
X153760965Y-108263048D01*
X153760958Y-108263058D01*
X153665476Y-108428438D01*
X153665473Y-108428445D01*
X153606457Y-108610072D01*
X153586496Y-108800000D01*
X153606457Y-108989927D01*
X153630003Y-109062392D01*
X153665473Y-109171556D01*
X153665476Y-109171561D01*
X153760958Y-109336941D01*
X153760965Y-109336951D01*
X153888744Y-109478864D01*
X153888747Y-109478866D01*
X154043248Y-109591118D01*
X154217712Y-109668794D01*
X154404513Y-109708500D01*
X154595487Y-109708500D01*
X154782288Y-109668794D01*
X154956752Y-109591118D01*
X155111253Y-109478866D01*
X155178813Y-109403833D01*
X155239034Y-109336951D01*
X155239035Y-109336949D01*
X155239040Y-109336944D01*
X155334527Y-109171556D01*
X155393542Y-108989928D01*
X155410907Y-108824703D01*
X155437920Y-108759048D01*
X155447113Y-108748789D01*
X156387102Y-107808800D01*
X156449412Y-107774776D01*
X156520227Y-107779841D01*
X156539196Y-107788778D01*
X156543244Y-107791115D01*
X156543248Y-107791118D01*
X156717712Y-107868794D01*
X156904513Y-107908500D01*
X157095487Y-107908500D01*
X157282288Y-107868794D01*
X157456752Y-107791118D01*
X157611253Y-107678866D01*
X157739040Y-107536944D01*
X157834527Y-107371556D01*
X157893542Y-107189928D01*
X157913504Y-107000000D01*
X157893542Y-106810072D01*
X157834527Y-106628444D01*
X157739040Y-106463056D01*
X157739038Y-106463054D01*
X157739034Y-106463048D01*
X157611255Y-106321135D01*
X157456752Y-106208882D01*
X157282288Y-106131206D01*
X157095487Y-106091500D01*
X156904513Y-106091500D01*
X156717711Y-106131206D01*
X156543247Y-106208882D01*
X156388747Y-106321133D01*
X156385437Y-106324810D01*
X156324991Y-106362050D01*
X156291800Y-106366500D01*
X154339193Y-106366500D01*
X154271072Y-106346498D01*
X154250098Y-106329595D01*
X153553665Y-105633162D01*
X157707296Y-105633162D01*
X157727257Y-105823089D01*
X157748095Y-105887219D01*
X157786273Y-106004718D01*
X157786276Y-106004723D01*
X157881758Y-106170103D01*
X157881765Y-106170113D01*
X158009544Y-106312026D01*
X158023871Y-106322435D01*
X158164048Y-106424280D01*
X158338512Y-106501956D01*
X158525313Y-106541662D01*
X158716287Y-106541662D01*
X158903088Y-106501956D01*
X159077552Y-106424280D01*
X159232053Y-106312028D01*
X159233814Y-106310072D01*
X159359834Y-106170113D01*
X159359835Y-106170111D01*
X159359840Y-106170106D01*
X159455327Y-106004718D01*
X159514342Y-105823090D01*
X159534304Y-105633162D01*
X159514342Y-105443234D01*
X159455327Y-105261606D01*
X159359840Y-105096218D01*
X159232053Y-104954296D01*
X159232051Y-104954294D01*
X159227635Y-104949390D01*
X159229225Y-104947957D01*
X159197242Y-104896013D01*
X159192800Y-104862853D01*
X159192800Y-100388320D01*
X159212802Y-100320199D01*
X159229705Y-100299225D01*
X159470525Y-100058405D01*
X159532837Y-100024379D01*
X159559620Y-100021500D01*
X160069226Y-100021500D01*
X160137347Y-100041502D01*
X160162862Y-100063190D01*
X160221544Y-100128363D01*
X160221549Y-100128368D01*
X160306222Y-100189886D01*
X160376048Y-100240618D01*
X160550512Y-100318294D01*
X160737313Y-100358000D01*
X160928287Y-100358000D01*
X161115088Y-100318294D01*
X161289552Y-100240618D01*
X161444053Y-100128366D01*
X161477247Y-100091500D01*
X161571834Y-99986451D01*
X161571835Y-99986449D01*
X161571840Y-99986444D01*
X161667327Y-99821056D01*
X161726342Y-99639428D01*
X161746304Y-99449500D01*
X161726342Y-99259572D01*
X161667327Y-99077944D01*
X161571840Y-98912556D01*
X161498663Y-98831284D01*
X161467946Y-98767276D01*
X161466300Y-98746974D01*
X161466300Y-98182838D01*
X161486302Y-98114717D01*
X161537893Y-98070012D01*
X161537838Y-98069917D01*
X161538335Y-98069629D01*
X161539958Y-98068224D01*
X161541053Y-98067731D01*
X161542234Y-98067204D01*
X161543552Y-98066618D01*
X161698053Y-97954366D01*
X161762085Y-97883251D01*
X161825834Y-97812451D01*
X161825835Y-97812449D01*
X161825840Y-97812444D01*
X161921327Y-97647056D01*
X161980342Y-97465428D01*
X162000304Y-97275500D01*
X161980342Y-97085572D01*
X161921327Y-96903944D01*
X161825840Y-96738556D01*
X161825838Y-96738554D01*
X161825834Y-96738548D01*
X161698055Y-96596635D01*
X161543552Y-96484382D01*
X161369088Y-96406706D01*
X161182287Y-96367000D01*
X160991313Y-96367000D01*
X160804511Y-96406706D01*
X160630047Y-96484382D01*
X160475544Y-96596635D01*
X160347765Y-96738548D01*
X160347758Y-96738558D01*
X160252276Y-96903938D01*
X160252273Y-96903944D01*
X160246549Y-96921561D01*
X160193257Y-97085572D01*
X160173296Y-97275500D01*
X160193257Y-97465430D01*
X160194630Y-97471885D01*
X160194229Y-97471970D01*
X160199300Y-97503980D01*
X160199300Y-98746974D01*
X160179298Y-98815095D01*
X160166939Y-98831282D01*
X160162864Y-98835808D01*
X160102419Y-98873049D01*
X160069225Y-98877500D01*
X159345806Y-98877500D01*
X159195195Y-98877500D01*
X159049717Y-98916480D01*
X159049715Y-98916481D01*
X159049712Y-98916482D01*
X158919287Y-98991783D01*
X158919281Y-98991788D01*
X158707718Y-99203352D01*
X158269584Y-99641486D01*
X158242371Y-99668699D01*
X158163087Y-99747982D01*
X158163083Y-99747987D01*
X158087783Y-99878411D01*
X158087780Y-99878418D01*
X158065104Y-99963048D01*
X158050064Y-100019180D01*
X158048800Y-100023896D01*
X158048800Y-104862853D01*
X158028798Y-104930974D01*
X158013502Y-104948973D01*
X158013965Y-104949390D01*
X158009548Y-104954294D01*
X158009547Y-104954296D01*
X157968395Y-105000000D01*
X157881762Y-105096215D01*
X157881758Y-105096220D01*
X157786276Y-105261600D01*
X157786273Y-105261606D01*
X157773569Y-105300706D01*
X157727257Y-105443234D01*
X157707296Y-105633162D01*
X153553665Y-105633162D01*
X151426189Y-103505686D01*
X151392163Y-103443374D01*
X151397228Y-103372559D01*
X151439775Y-103315723D01*
X151506295Y-103290912D01*
X151566528Y-103301483D01*
X151717712Y-103368794D01*
X151904513Y-103408500D01*
X152095487Y-103408500D01*
X152282288Y-103368794D01*
X152456752Y-103291118D01*
X152611253Y-103178866D01*
X152689918Y-103091500D01*
X152739034Y-103036951D01*
X152739035Y-103036949D01*
X152739040Y-103036944D01*
X152834527Y-102871556D01*
X152893542Y-102689928D01*
X152913504Y-102500000D01*
X152893542Y-102310072D01*
X152834527Y-102128444D01*
X152739040Y-101963056D01*
X152665863Y-101881784D01*
X152635146Y-101817776D01*
X152633500Y-101797474D01*
X152633500Y-101202524D01*
X152653502Y-101134403D01*
X152665858Y-101118220D01*
X152739040Y-101036944D01*
X152834527Y-100871556D01*
X152893542Y-100689928D01*
X152913504Y-100500000D01*
X152893542Y-100310072D01*
X152834527Y-100128444D01*
X152739040Y-99963056D01*
X152739038Y-99963054D01*
X152739034Y-99963048D01*
X152611255Y-99821135D01*
X152456752Y-99708882D01*
X152282288Y-99631206D01*
X152169570Y-99607247D01*
X152107097Y-99573518D01*
X152072775Y-99511369D01*
X152077503Y-99440530D01*
X152119779Y-99383492D01*
X152186180Y-99358365D01*
X152195767Y-99358000D01*
X155291800Y-99358000D01*
X155359921Y-99378002D01*
X155385437Y-99399690D01*
X155388747Y-99403366D01*
X155543248Y-99515618D01*
X155717712Y-99593294D01*
X155904513Y-99633000D01*
X156095487Y-99633000D01*
X156282288Y-99593294D01*
X156456752Y-99515618D01*
X156611253Y-99403366D01*
X156614563Y-99399690D01*
X156739034Y-99261451D01*
X156739035Y-99261449D01*
X156739040Y-99261444D01*
X156834527Y-99096056D01*
X156893542Y-98914428D01*
X156894487Y-98905435D01*
X156921496Y-98839780D01*
X156979715Y-98799146D01*
X157050660Y-98796439D01*
X157071041Y-98803492D01*
X157217712Y-98868794D01*
X157404513Y-98908500D01*
X157595487Y-98908500D01*
X157782288Y-98868794D01*
X157956752Y-98791118D01*
X158111253Y-98678866D01*
X158157615Y-98627376D01*
X158239034Y-98536951D01*
X158239035Y-98536949D01*
X158239040Y-98536944D01*
X158334527Y-98371556D01*
X158393542Y-98189928D01*
X158413504Y-98000000D01*
X158393542Y-97810072D01*
X158334527Y-97628444D01*
X158239040Y-97463056D01*
X158239038Y-97463054D01*
X158239034Y-97463048D01*
X158111255Y-97321135D01*
X157956752Y-97208882D01*
X157782288Y-97131206D01*
X157595487Y-97091500D01*
X157404513Y-97091500D01*
X157217711Y-97131206D01*
X157043247Y-97208882D01*
X156888747Y-97321133D01*
X156885437Y-97324810D01*
X156824991Y-97362050D01*
X156791800Y-97366500D01*
X132039095Y-97366500D01*
X131970974Y-97346498D01*
X131950000Y-97329595D01*
X131671621Y-97051216D01*
X131637595Y-96988904D01*
X131635408Y-96975306D01*
X131618042Y-96810072D01*
X131559027Y-96628444D01*
X131463540Y-96463056D01*
X131463538Y-96463054D01*
X131463534Y-96463048D01*
X131335755Y-96321135D01*
X131181252Y-96208882D01*
X131006786Y-96131205D01*
X131000515Y-96129168D01*
X131001433Y-96126339D01*
X130950322Y-96098575D01*
X130916160Y-96036338D01*
X130914499Y-96006604D01*
X130913504Y-96006604D01*
X130913504Y-96000001D01*
X130893542Y-95810072D01*
X130834527Y-95628444D01*
X130758384Y-95496561D01*
X130739041Y-95463057D01*
X130739040Y-95463055D01*
X130673975Y-95390793D01*
X130643257Y-95326786D01*
X130652022Y-95256332D01*
X130678514Y-95217390D01*
X130725502Y-95170403D01*
X130787815Y-95136379D01*
X130814596Y-95133500D01*
X142562393Y-95133500D01*
X142562394Y-95133500D01*
X142684785Y-95109155D01*
X142800075Y-95061400D01*
X142903833Y-94992071D01*
X144492071Y-93403833D01*
X144561400Y-93300075D01*
X144609155Y-93184785D01*
X144633500Y-93062394D01*
X144633500Y-92937607D01*
X144633500Y-92723627D01*
X144653502Y-92655506D01*
X144707158Y-92609013D01*
X144777432Y-92598909D01*
X144842012Y-92628403D01*
X144853136Y-92639316D01*
X144888747Y-92678866D01*
X145043248Y-92791118D01*
X145217712Y-92868794D01*
X145404513Y-92908500D01*
X145595487Y-92908500D01*
X145782288Y-92868794D01*
X145948755Y-92794678D01*
X146019118Y-92785245D01*
X146051240Y-92794676D01*
X146217712Y-92868794D01*
X146404513Y-92908500D01*
X146595487Y-92908500D01*
X146782288Y-92868794D01*
X146956752Y-92791118D01*
X147111253Y-92678866D01*
X147112375Y-92677620D01*
X147239034Y-92536951D01*
X147239035Y-92536949D01*
X147239040Y-92536944D01*
X147260370Y-92500000D01*
X149586496Y-92500000D01*
X149606457Y-92689927D01*
X149618453Y-92726845D01*
X149665473Y-92871556D01*
X149669295Y-92878176D01*
X149760958Y-93036941D01*
X149760965Y-93036951D01*
X149888744Y-93178864D01*
X149903971Y-93189927D01*
X150043248Y-93291118D01*
X150217712Y-93368794D01*
X150404513Y-93408500D01*
X150595487Y-93408500D01*
X150782288Y-93368794D01*
X150956752Y-93291118D01*
X151111253Y-93178866D01*
X151147816Y-93138259D01*
X151239034Y-93036951D01*
X151239035Y-93036949D01*
X151239040Y-93036944D01*
X151334527Y-92871556D01*
X151393542Y-92689928D01*
X151413504Y-92500000D01*
X151393542Y-92310072D01*
X151334527Y-92128444D01*
X151239040Y-91963056D01*
X151165863Y-91881784D01*
X151135146Y-91817776D01*
X151133500Y-91797474D01*
X151133500Y-91541600D01*
X156160096Y-91541600D01*
X156180057Y-91731527D01*
X156201485Y-91797474D01*
X156239073Y-91913156D01*
X156239076Y-91913161D01*
X156313172Y-92041500D01*
X156334560Y-92078544D01*
X156407737Y-92159815D01*
X156438453Y-92223820D01*
X156440100Y-92244124D01*
X156440100Y-92972674D01*
X156420098Y-93040795D01*
X156407737Y-93056984D01*
X156334557Y-93138259D01*
X156239076Y-93303638D01*
X156239073Y-93303644D01*
X156233390Y-93321134D01*
X156180057Y-93485272D01*
X156160096Y-93675200D01*
X156180057Y-93865127D01*
X156208752Y-93953438D01*
X156239073Y-94046756D01*
X156239076Y-94046761D01*
X156334558Y-94212141D01*
X156334565Y-94212151D01*
X156462344Y-94354064D01*
X156462347Y-94354066D01*
X156616848Y-94466318D01*
X156791312Y-94543994D01*
X156978113Y-94583700D01*
X157169087Y-94583700D01*
X157355888Y-94543994D01*
X157530352Y-94466318D01*
X157684853Y-94354066D01*
X157689779Y-94348595D01*
X157812634Y-94212151D01*
X157812635Y-94212149D01*
X157812640Y-94212144D01*
X157908127Y-94046756D01*
X157967142Y-93865128D01*
X157987104Y-93675200D01*
X157967142Y-93485272D01*
X157908127Y-93303644D01*
X157812640Y-93138256D01*
X157739463Y-93056984D01*
X157708746Y-92992976D01*
X157707100Y-92972674D01*
X157707100Y-92244124D01*
X157727102Y-92176003D01*
X157739458Y-92159820D01*
X157812640Y-92078544D01*
X157908127Y-91913156D01*
X157967142Y-91731528D01*
X157987104Y-91541600D01*
X157967142Y-91351672D01*
X157908127Y-91170044D01*
X157812640Y-91004656D01*
X157812638Y-91004654D01*
X157812634Y-91004648D01*
X157684855Y-90862735D01*
X157530352Y-90750482D01*
X157355888Y-90672806D01*
X157169087Y-90633100D01*
X156978113Y-90633100D01*
X156791311Y-90672806D01*
X156616847Y-90750482D01*
X156462344Y-90862735D01*
X156334565Y-91004648D01*
X156334558Y-91004658D01*
X156239076Y-91170038D01*
X156239073Y-91170045D01*
X156180057Y-91351672D01*
X156160096Y-91541600D01*
X151133500Y-91541600D01*
X151133500Y-90814594D01*
X151153502Y-90746473D01*
X151170405Y-90725499D01*
X152450499Y-89445405D01*
X152512811Y-89411379D01*
X152539594Y-89408500D01*
X152595487Y-89408500D01*
X152782288Y-89368794D01*
X152956752Y-89291118D01*
X153111253Y-89178866D01*
X153111255Y-89178864D01*
X153239034Y-89036951D01*
X153239035Y-89036949D01*
X153239040Y-89036944D01*
X153334527Y-88871556D01*
X153393542Y-88689928D01*
X153413504Y-88500000D01*
X153393542Y-88310072D01*
X153334527Y-88128444D01*
X153248763Y-87979896D01*
X153239042Y-87963059D01*
X153239041Y-87963058D01*
X153239040Y-87963056D01*
X153165863Y-87881784D01*
X153135146Y-87817776D01*
X153133500Y-87797474D01*
X153133500Y-81002453D01*
X153153502Y-80934332D01*
X153207158Y-80887839D01*
X153233301Y-80879206D01*
X153282288Y-80868794D01*
X153456752Y-80791118D01*
X153611253Y-80678866D01*
X153611633Y-80678444D01*
X153739034Y-80536951D01*
X153739035Y-80536949D01*
X153739040Y-80536944D01*
X153834527Y-80371556D01*
X153893542Y-80189928D01*
X153913504Y-80000000D01*
X153893542Y-79810072D01*
X153834527Y-79628444D01*
X153739040Y-79463056D01*
X153739038Y-79463054D01*
X153739034Y-79463048D01*
X153611255Y-79321135D01*
X153456752Y-79208882D01*
X153282288Y-79131206D01*
X153095487Y-79091500D01*
X152904513Y-79091500D01*
X152717711Y-79131206D01*
X152543247Y-79208882D01*
X152388744Y-79321135D01*
X152260965Y-79463048D01*
X152260958Y-79463058D01*
X152165476Y-79628438D01*
X152165473Y-79628445D01*
X152106457Y-79810072D01*
X152089092Y-79975292D01*
X152062079Y-80040949D01*
X152052879Y-80051215D01*
X152007930Y-80096165D01*
X152007928Y-80096168D01*
X151945280Y-80189928D01*
X151938600Y-80199925D01*
X151890845Y-80315215D01*
X151881529Y-80362050D01*
X151866500Y-80437603D01*
X151866500Y-87797474D01*
X151846498Y-87865595D01*
X151834137Y-87881784D01*
X151760957Y-87963059D01*
X151665476Y-88128438D01*
X151665473Y-88128445D01*
X151606457Y-88310072D01*
X151589092Y-88475293D01*
X151562079Y-88540950D01*
X151552877Y-88551217D01*
X150096167Y-90007929D01*
X150007931Y-90096164D01*
X150007926Y-90096171D01*
X149945280Y-90189928D01*
X149938600Y-90199925D01*
X149930743Y-90218893D01*
X149907598Y-90274771D01*
X149890845Y-90315215D01*
X149881028Y-90364568D01*
X149866500Y-90437603D01*
X149866500Y-91797474D01*
X149846498Y-91865595D01*
X149834137Y-91881784D01*
X149760957Y-91963059D01*
X149665476Y-92128438D01*
X149665473Y-92128445D01*
X149606457Y-92310072D01*
X149586496Y-92500000D01*
X147260370Y-92500000D01*
X147334527Y-92371556D01*
X147393542Y-92189928D01*
X147413504Y-92000000D01*
X147393542Y-91810072D01*
X147334527Y-91628444D01*
X147253607Y-91488287D01*
X147239042Y-91463059D01*
X147239041Y-91463058D01*
X147239040Y-91463056D01*
X147165863Y-91381784D01*
X147135146Y-91317776D01*
X147133500Y-91297474D01*
X147133500Y-90202524D01*
X147153502Y-90134403D01*
X147165858Y-90118220D01*
X147239040Y-90036944D01*
X147334527Y-89871556D01*
X147393542Y-89689928D01*
X147413504Y-89500000D01*
X147393542Y-89310072D01*
X147334527Y-89128444D01*
X147239040Y-88963056D01*
X147239038Y-88963054D01*
X147239034Y-88963048D01*
X147111255Y-88821135D01*
X146956752Y-88708882D01*
X146782288Y-88631206D01*
X146595487Y-88591500D01*
X146404513Y-88591500D01*
X146285697Y-88616755D01*
X146214906Y-88611353D01*
X146158274Y-88568536D01*
X146133780Y-88501898D01*
X146133500Y-88493508D01*
X146133500Y-87702524D01*
X146153502Y-87634403D01*
X146165858Y-87618220D01*
X146239040Y-87536944D01*
X146334527Y-87371556D01*
X146393542Y-87189928D01*
X146413504Y-87000000D01*
X146393542Y-86810072D01*
X146334527Y-86628444D01*
X146239040Y-86463056D01*
X146239038Y-86463054D01*
X146239034Y-86463048D01*
X146111255Y-86321135D01*
X145956752Y-86208882D01*
X145782288Y-86131206D01*
X145595487Y-86091500D01*
X145404513Y-86091500D01*
X145217711Y-86131206D01*
X145043247Y-86208882D01*
X144888744Y-86321135D01*
X144760965Y-86463048D01*
X144760958Y-86463058D01*
X144665476Y-86628438D01*
X144665473Y-86628445D01*
X144606457Y-86810072D01*
X144586496Y-87000000D01*
X144606457Y-87189927D01*
X144628863Y-87258882D01*
X144665473Y-87371556D01*
X144665476Y-87371561D01*
X144747163Y-87513048D01*
X144760960Y-87536944D01*
X144834137Y-87618215D01*
X144864853Y-87682220D01*
X144866500Y-87702524D01*
X144866500Y-88829676D01*
X144846498Y-88897797D01*
X144792842Y-88944290D01*
X144722568Y-88954394D01*
X144657988Y-88924900D01*
X144619604Y-88865174D01*
X144616921Y-88854258D01*
X144609155Y-88815215D01*
X144594335Y-88779437D01*
X144592232Y-88774359D01*
X144592212Y-88774312D01*
X144573388Y-88728866D01*
X144561401Y-88699925D01*
X144492072Y-88596167D01*
X141670405Y-85774500D01*
X141636379Y-85712188D01*
X141633500Y-85685405D01*
X141633500Y-81702524D01*
X141653502Y-81634403D01*
X141665858Y-81618220D01*
X141739040Y-81536944D01*
X141834527Y-81371556D01*
X141893542Y-81189928D01*
X141913504Y-81000000D01*
X141893542Y-80810072D01*
X141834527Y-80628444D01*
X141739040Y-80463056D01*
X141739038Y-80463054D01*
X141739034Y-80463048D01*
X141611255Y-80321135D01*
X141456752Y-80208882D01*
X141282288Y-80131206D01*
X141095487Y-80091500D01*
X140904513Y-80091500D01*
X140717711Y-80131206D01*
X140543247Y-80208882D01*
X140388744Y-80321135D01*
X140260965Y-80463048D01*
X140260958Y-80463058D01*
X140165476Y-80628438D01*
X140165473Y-80628444D01*
X140163027Y-80635972D01*
X140106457Y-80810072D01*
X140086496Y-81000000D01*
X140106457Y-81189927D01*
X140123082Y-81241092D01*
X140165473Y-81371556D01*
X140260960Y-81536944D01*
X140334137Y-81618215D01*
X140364853Y-81682220D01*
X140366500Y-81702524D01*
X140366500Y-85735418D01*
X140346498Y-85803539D01*
X140292842Y-85850032D01*
X140222568Y-85860136D01*
X140157988Y-85830642D01*
X140151405Y-85824514D01*
X139471574Y-85144684D01*
X139451445Y-85114554D01*
X139450182Y-85115284D01*
X139369077Y-84974806D01*
X139369073Y-84974801D01*
X139321510Y-84927238D01*
X139260213Y-84865941D01*
X139121605Y-84727333D01*
X139087579Y-84665021D01*
X139084700Y-84638238D01*
X139084700Y-83160757D01*
X139104702Y-83092636D01*
X139121600Y-83071666D01*
X139468376Y-82724891D01*
X139489849Y-82687699D01*
X139545353Y-82591563D01*
X139585200Y-82442854D01*
X139585200Y-77000000D01*
X146086496Y-77000000D01*
X146106457Y-77189927D01*
X146136526Y-77282470D01*
X146165473Y-77371556D01*
X146165476Y-77371561D01*
X146260958Y-77536941D01*
X146260965Y-77536951D01*
X146388744Y-77678864D01*
X146388747Y-77678866D01*
X146543248Y-77791118D01*
X146717712Y-77868794D01*
X146904513Y-77908500D01*
X147095487Y-77908500D01*
X147282288Y-77868794D01*
X147456752Y-77791118D01*
X147611253Y-77678866D01*
X147614563Y-77675190D01*
X147675009Y-77637950D01*
X147708200Y-77633500D01*
X148562393Y-77633500D01*
X148562394Y-77633500D01*
X148684785Y-77609155D01*
X148800075Y-77561400D01*
X148903833Y-77492071D01*
X148950499Y-77445405D01*
X149012811Y-77411379D01*
X149039594Y-77408500D01*
X149095487Y-77408500D01*
X149282288Y-77368794D01*
X149456752Y-77291118D01*
X149611253Y-77178866D01*
X149739040Y-77036944D01*
X149834527Y-76871556D01*
X149893542Y-76689928D01*
X149913504Y-76500000D01*
X149893542Y-76310072D01*
X149834527Y-76128444D01*
X149739040Y-75963056D01*
X149739038Y-75963054D01*
X149739034Y-75963048D01*
X149611255Y-75821135D01*
X149456752Y-75708882D01*
X149282288Y-75631206D01*
X149095487Y-75591500D01*
X148904513Y-75591500D01*
X148717711Y-75631206D01*
X148543247Y-75708882D01*
X148388744Y-75821135D01*
X148260965Y-75963048D01*
X148260958Y-75963058D01*
X148165476Y-76128438D01*
X148165473Y-76128445D01*
X148116412Y-76279437D01*
X148076338Y-76338042D01*
X148010941Y-76365679D01*
X147996579Y-76366500D01*
X147708200Y-76366500D01*
X147640079Y-76346498D01*
X147614563Y-76324810D01*
X147611252Y-76321133D01*
X147456752Y-76208882D01*
X147282288Y-76131206D01*
X147095487Y-76091500D01*
X146904513Y-76091500D01*
X146717711Y-76131206D01*
X146543247Y-76208882D01*
X146388744Y-76321135D01*
X146260965Y-76463048D01*
X146260958Y-76463058D01*
X146165476Y-76628438D01*
X146165473Y-76628445D01*
X146106457Y-76810072D01*
X146086496Y-77000000D01*
X139585200Y-77000000D01*
X139585200Y-72500000D01*
X145586496Y-72500000D01*
X145606457Y-72689927D01*
X145636526Y-72782470D01*
X145665473Y-72871556D01*
X145665476Y-72871561D01*
X145760958Y-73036941D01*
X145760965Y-73036951D01*
X145888744Y-73178864D01*
X145888747Y-73178866D01*
X146043248Y-73291118D01*
X146217712Y-73368794D01*
X146404513Y-73408500D01*
X146595487Y-73408500D01*
X146782288Y-73368794D01*
X146956752Y-73291118D01*
X147111253Y-73178866D01*
X147114563Y-73175190D01*
X147175009Y-73137950D01*
X147208200Y-73133500D01*
X148291800Y-73133500D01*
X148359921Y-73153502D01*
X148385437Y-73175190D01*
X148388747Y-73178866D01*
X148543248Y-73291118D01*
X148717712Y-73368794D01*
X148904513Y-73408500D01*
X149095487Y-73408500D01*
X149282288Y-73368794D01*
X149456752Y-73291118D01*
X149611253Y-73178866D01*
X149739040Y-73036944D01*
X149834527Y-72871556D01*
X149893542Y-72689928D01*
X149913504Y-72500000D01*
X149893542Y-72310072D01*
X149834527Y-72128444D01*
X149739040Y-71963056D01*
X149739038Y-71963054D01*
X149739034Y-71963048D01*
X149611255Y-71821135D01*
X149456752Y-71708882D01*
X149282288Y-71631206D01*
X149095487Y-71591500D01*
X148904513Y-71591500D01*
X148717711Y-71631206D01*
X148543247Y-71708882D01*
X148388747Y-71821133D01*
X148385437Y-71824810D01*
X148324991Y-71862050D01*
X148291800Y-71866500D01*
X147208200Y-71866500D01*
X147140079Y-71846498D01*
X147114563Y-71824810D01*
X147111252Y-71821133D01*
X146956752Y-71708882D01*
X146782288Y-71631206D01*
X146595487Y-71591500D01*
X146404513Y-71591500D01*
X146217711Y-71631206D01*
X146043247Y-71708882D01*
X145888744Y-71821135D01*
X145760965Y-71963048D01*
X145760958Y-71963058D01*
X145665476Y-72128438D01*
X145665473Y-72128445D01*
X145606457Y-72310072D01*
X145586496Y-72500000D01*
X139585200Y-72500000D01*
X139585200Y-69565600D01*
X150968497Y-69565600D01*
X150988458Y-69755527D01*
X151018527Y-69848070D01*
X151047474Y-69937156D01*
X151047477Y-69937161D01*
X151142959Y-70102541D01*
X151142966Y-70102551D01*
X151270745Y-70244464D01*
X151270748Y-70244466D01*
X151425249Y-70356718D01*
X151599713Y-70434394D01*
X151786514Y-70474100D01*
X151977488Y-70474100D01*
X152164289Y-70434394D01*
X152338753Y-70356718D01*
X152493254Y-70244466D01*
X152524426Y-70209844D01*
X152551939Y-70179290D01*
X152612385Y-70142050D01*
X152645575Y-70137600D01*
X155005304Y-70137600D01*
X155005306Y-70137600D01*
X155150785Y-70098619D01*
X155281217Y-70023314D01*
X155387715Y-69916816D01*
X156419125Y-68885404D01*
X156481437Y-68851380D01*
X156508220Y-68848500D01*
X156651088Y-68848500D01*
X156837889Y-68808794D01*
X157012353Y-68731118D01*
X157166854Y-68618866D01*
X157294641Y-68476944D01*
X157390128Y-68311556D01*
X157449143Y-68129928D01*
X157469105Y-67940000D01*
X157449143Y-67750072D01*
X157390128Y-67568444D01*
X157294641Y-67403056D01*
X157166854Y-67261134D01*
X157166852Y-67261132D01*
X157162436Y-67256228D01*
X157164026Y-67254795D01*
X157132043Y-67202851D01*
X157127601Y-67169691D01*
X157127601Y-65233519D01*
X157147603Y-65165398D01*
X157164506Y-65144424D01*
X160863525Y-61445405D01*
X160925837Y-61411379D01*
X160952620Y-61408500D01*
X161095487Y-61408500D01*
X161282288Y-61368794D01*
X161456752Y-61291118D01*
X161611253Y-61178866D01*
X161706323Y-61073280D01*
X161739034Y-61036951D01*
X161739035Y-61036949D01*
X161739040Y-61036944D01*
X161834527Y-60871556D01*
X161893542Y-60689928D01*
X161913504Y-60500000D01*
X161893542Y-60310072D01*
X161834527Y-60128444D01*
X161739040Y-59963056D01*
X161739038Y-59963054D01*
X161739034Y-59963048D01*
X161611255Y-59821135D01*
X161456752Y-59708882D01*
X161282288Y-59631206D01*
X161095487Y-59591500D01*
X160904513Y-59591500D01*
X160717711Y-59631206D01*
X160543247Y-59708882D01*
X160388744Y-59821135D01*
X160260965Y-59963048D01*
X160260958Y-59963058D01*
X160165476Y-60128438D01*
X160165473Y-60128445D01*
X160106457Y-60310072D01*
X160086496Y-60500001D01*
X160090159Y-60534860D01*
X160077386Y-60604698D01*
X160053944Y-60637123D01*
X156670303Y-64020767D01*
X156204385Y-64486685D01*
X156151136Y-64539933D01*
X156097888Y-64593181D01*
X156097884Y-64593186D01*
X156022584Y-64723610D01*
X156022581Y-64723617D01*
X155983601Y-64869095D01*
X155983601Y-67169691D01*
X155963599Y-67237812D01*
X155948303Y-67255811D01*
X155948766Y-67256228D01*
X155944349Y-67261132D01*
X155944348Y-67261134D01*
X155886584Y-67325286D01*
X155816563Y-67403053D01*
X155816559Y-67403058D01*
X155721077Y-67568438D01*
X155721074Y-67568445D01*
X155662058Y-67750072D01*
X155642097Y-67940000D01*
X155642097Y-67940001D01*
X155645760Y-67974860D01*
X155632987Y-68044698D01*
X155609546Y-68077123D01*
X154729976Y-68956695D01*
X154667663Y-68990720D01*
X154640880Y-68993600D01*
X152645575Y-68993600D01*
X152577454Y-68973598D01*
X152551939Y-68951910D01*
X152493256Y-68886736D01*
X152493251Y-68886731D01*
X152338753Y-68774482D01*
X152164289Y-68696806D01*
X151977488Y-68657100D01*
X151786514Y-68657100D01*
X151599712Y-68696806D01*
X151425248Y-68774482D01*
X151270745Y-68886735D01*
X151142966Y-69028648D01*
X151142959Y-69028658D01*
X151047477Y-69194038D01*
X151047474Y-69194045D01*
X150988458Y-69375672D01*
X150968497Y-69565600D01*
X139585200Y-69565600D01*
X139585200Y-66794881D01*
X139605202Y-66726760D01*
X139622105Y-66705785D01*
X139850576Y-66477315D01*
X139889063Y-66410652D01*
X139889064Y-66410651D01*
X139927550Y-66343991D01*
X139927549Y-66343991D01*
X139927553Y-66343986D01*
X139967400Y-66195277D01*
X139967400Y-62000000D01*
X145586496Y-62000000D01*
X145606457Y-62189927D01*
X145636526Y-62282470D01*
X145665473Y-62371556D01*
X145665476Y-62371561D01*
X145760958Y-62536941D01*
X145760965Y-62536951D01*
X145888744Y-62678864D01*
X145888747Y-62678866D01*
X146043248Y-62791118D01*
X146217712Y-62868794D01*
X146404513Y-62908500D01*
X146595487Y-62908500D01*
X146782288Y-62868794D01*
X146956752Y-62791118D01*
X147111253Y-62678866D01*
X147239040Y-62536944D01*
X147334527Y-62371556D01*
X147393542Y-62189928D01*
X147410907Y-62024703D01*
X147437920Y-61959048D01*
X147447113Y-61948789D01*
X148466156Y-60929746D01*
X148528466Y-60895722D01*
X148599281Y-60900787D01*
X148656117Y-60943334D01*
X148680928Y-61009854D01*
X148676325Y-61053722D01*
X148672132Y-61068275D01*
X148612473Y-61419404D01*
X148592504Y-61775000D01*
X148612473Y-62130595D01*
X148672131Y-62481719D01*
X148770731Y-62823969D01*
X148907021Y-63153002D01*
X148907026Y-63153013D01*
X148909796Y-63158025D01*
X149079300Y-63464721D01*
X149079304Y-63464728D01*
X149285400Y-63755194D01*
X149285401Y-63755195D01*
X149285406Y-63755201D01*
X149522732Y-64020768D01*
X149788299Y-64258094D01*
X149788304Y-64258097D01*
X149788305Y-64258099D01*
X150078771Y-64464195D01*
X150078778Y-64464199D01*
X150193260Y-64527470D01*
X150390487Y-64636474D01*
X150719535Y-64772770D01*
X151061774Y-64871367D01*
X151412901Y-64931026D01*
X151768500Y-64950996D01*
X152124099Y-64931026D01*
X152475226Y-64871367D01*
X152817465Y-64772770D01*
X153146513Y-64636474D01*
X153458232Y-64464193D01*
X153748701Y-64258094D01*
X154014268Y-64020768D01*
X154251594Y-63755201D01*
X154457693Y-63464732D01*
X154629974Y-63153013D01*
X154766270Y-62823965D01*
X154864867Y-62481726D01*
X154924526Y-62130599D01*
X154944496Y-61775000D01*
X154924526Y-61419401D01*
X154864867Y-61068274D01*
X154766270Y-60726035D01*
X154629974Y-60396987D01*
X154481556Y-60128444D01*
X154457699Y-60085278D01*
X154457695Y-60085271D01*
X154251599Y-59794805D01*
X154251597Y-59794804D01*
X154251594Y-59794799D01*
X154014268Y-59529232D01*
X153748701Y-59291906D01*
X153748695Y-59291901D01*
X153748694Y-59291900D01*
X153458228Y-59085804D01*
X153458221Y-59085800D01*
X153155572Y-58918533D01*
X153146513Y-58913526D01*
X153146506Y-58913523D01*
X153146502Y-58913521D01*
X152817469Y-58777231D01*
X152492581Y-58683633D01*
X152475226Y-58678633D01*
X152475225Y-58678632D01*
X152475219Y-58678631D01*
X152124095Y-58618973D01*
X151768500Y-58599004D01*
X151412904Y-58618973D01*
X151061780Y-58678631D01*
X150719530Y-58777231D01*
X150390497Y-58913521D01*
X150390474Y-58913533D01*
X150097486Y-59075461D01*
X150028190Y-59090906D01*
X149961544Y-59066435D01*
X149918708Y-59009817D01*
X149911229Y-58978359D01*
X149893542Y-58810072D01*
X149834527Y-58628444D01*
X149739040Y-58463056D01*
X149739038Y-58463054D01*
X149739034Y-58463048D01*
X149611255Y-58321135D01*
X149456752Y-58208882D01*
X149282288Y-58131206D01*
X149095487Y-58091500D01*
X148904513Y-58091500D01*
X148717711Y-58131206D01*
X148543247Y-58208882D01*
X148388744Y-58321135D01*
X148260965Y-58463048D01*
X148260958Y-58463058D01*
X148165476Y-58628438D01*
X148165473Y-58628445D01*
X148106457Y-58810072D01*
X148086496Y-59000000D01*
X148106457Y-59189927D01*
X148158060Y-59348740D01*
X148160088Y-59419708D01*
X148127322Y-59476772D01*
X146549499Y-61054596D01*
X146487189Y-61088620D01*
X146460406Y-61091500D01*
X146404513Y-61091500D01*
X146217711Y-61131206D01*
X146043247Y-61208882D01*
X145888744Y-61321135D01*
X145760965Y-61463048D01*
X145760958Y-61463058D01*
X145665476Y-61628438D01*
X145665473Y-61628445D01*
X145606457Y-61810072D01*
X145586496Y-62000000D01*
X139967400Y-62000000D01*
X139967400Y-61804022D01*
X139987402Y-61735901D01*
X139999757Y-61719719D01*
X140121740Y-61584244D01*
X140217227Y-61418856D01*
X140276242Y-61237228D01*
X140296204Y-61047300D01*
X140276242Y-60857372D01*
X140217227Y-60675744D01*
X140121740Y-60510356D01*
X140121738Y-60510354D01*
X140121734Y-60510348D01*
X139993955Y-60368435D01*
X139839452Y-60256182D01*
X139664988Y-60178506D01*
X139478187Y-60138800D01*
X139287213Y-60138800D01*
X139100411Y-60178506D01*
X138925947Y-60256182D01*
X138771444Y-60368435D01*
X138643665Y-60510348D01*
X138643658Y-60510358D01*
X138548176Y-60675738D01*
X138548173Y-60675744D01*
X138533699Y-60720286D01*
X138489157Y-60857372D01*
X138469196Y-61047300D01*
X138489157Y-61237227D01*
X138506668Y-61291118D01*
X138548173Y-61418856D01*
X138643660Y-61584244D01*
X138765637Y-61719713D01*
X138796353Y-61783719D01*
X138798000Y-61804022D01*
X138798000Y-65823918D01*
X138777998Y-65892039D01*
X138761096Y-65913013D01*
X138641486Y-66032624D01*
X138641485Y-66032624D01*
X138532629Y-66141479D01*
X138532621Y-66141489D01*
X138455647Y-66274813D01*
X138455647Y-66274814D01*
X138419250Y-66410650D01*
X138415800Y-66423524D01*
X138415800Y-68331126D01*
X138395798Y-68399247D01*
X138342142Y-68445740D01*
X138271868Y-68455844D01*
X138207288Y-68426350D01*
X138196164Y-68415436D01*
X138111255Y-68321135D01*
X137956752Y-68208882D01*
X137782288Y-68131206D01*
X137595487Y-68091500D01*
X137404513Y-68091500D01*
X137217711Y-68131206D01*
X137043247Y-68208882D01*
X136888744Y-68321135D01*
X136760965Y-68463048D01*
X136760958Y-68463058D01*
X136665476Y-68628438D01*
X136665473Y-68628445D01*
X136606457Y-68810072D01*
X136586496Y-69000000D01*
X136606457Y-69189927D01*
X136636526Y-69282470D01*
X136665473Y-69371556D01*
X136760960Y-69536944D01*
X136834137Y-69618215D01*
X136864853Y-69682220D01*
X136866500Y-69702524D01*
X136866500Y-81685406D01*
X136846498Y-81753527D01*
X136829595Y-81774501D01*
X135507931Y-83096164D01*
X135507926Y-83096171D01*
X135450421Y-83182234D01*
X135438600Y-83199925D01*
X135390845Y-83315215D01*
X135389068Y-83324148D01*
X135366500Y-83437603D01*
X135366500Y-87979896D01*
X135374048Y-88017842D01*
X135390845Y-88102285D01*
X135438600Y-88217575D01*
X135507929Y-88321333D01*
X136149643Y-88963048D01*
X136360906Y-89174311D01*
X136394931Y-89236623D01*
X136393517Y-89296016D01*
X136384430Y-89329926D01*
X136366049Y-89540028D01*
X136365177Y-89550000D01*
X136384430Y-89770068D01*
X136413778Y-89879595D01*
X136441605Y-89983447D01*
X136441607Y-89983453D01*
X136534966Y-90183662D01*
X136661671Y-90364616D01*
X136661676Y-90364622D01*
X136745769Y-90448715D01*
X136779795Y-90511027D01*
X136774730Y-90581842D01*
X136732183Y-90638678D01*
X136665663Y-90663489D01*
X136656674Y-90663810D01*
X134013681Y-90663810D01*
X133945560Y-90643808D01*
X133924586Y-90626905D01*
X131195125Y-87897444D01*
X131164387Y-87847285D01*
X131153129Y-87812638D01*
X131109527Y-87678444D01*
X131014040Y-87513056D01*
X131014038Y-87513054D01*
X131014034Y-87513048D01*
X130886255Y-87371135D01*
X130731752Y-87258882D01*
X130557288Y-87181206D01*
X130370487Y-87141500D01*
X130179513Y-87141500D01*
X129992711Y-87181206D01*
X129818247Y-87258882D01*
X129663744Y-87371135D01*
X129535965Y-87513048D01*
X129535958Y-87513058D01*
X129440476Y-87678438D01*
X129440473Y-87678445D01*
X129381457Y-87860072D01*
X129361496Y-88050000D01*
X129381457Y-88239927D01*
X129395348Y-88282677D01*
X129440473Y-88421556D01*
X129440476Y-88421561D01*
X129535958Y-88586941D01*
X129535965Y-88586951D01*
X129663744Y-88728864D01*
X129724999Y-88773368D01*
X129818248Y-88841118D01*
X129992712Y-88918794D01*
X130055769Y-88932197D01*
X130118243Y-88965925D01*
X130118668Y-88966349D01*
X133163787Y-92011469D01*
X133163790Y-92011471D01*
X133163795Y-92011476D01*
X133240000Y-92062394D01*
X133288026Y-92094484D01*
X133426064Y-92151661D01*
X133572604Y-92180810D01*
X140577391Y-92180810D01*
X140577395Y-92180810D01*
X140577396Y-92180810D01*
X140650666Y-92166235D01*
X140723937Y-92151661D01*
X140861974Y-92094484D01*
X140986205Y-92011476D01*
X141656332Y-91341347D01*
X141718643Y-91307324D01*
X141719228Y-91307198D01*
X141763102Y-91297872D01*
X141833893Y-91303273D01*
X141890526Y-91346089D01*
X141915020Y-91412727D01*
X141915300Y-91421118D01*
X141915300Y-92243276D01*
X141895298Y-92311397D01*
X141882937Y-92327586D01*
X141760961Y-92463054D01*
X141760958Y-92463058D01*
X141665476Y-92628438D01*
X141665473Y-92628444D01*
X141661558Y-92640494D01*
X141606457Y-92810072D01*
X141586496Y-93000000D01*
X141606457Y-93189927D01*
X141635338Y-93278810D01*
X141665473Y-93371556D01*
X141665476Y-93371561D01*
X141760958Y-93536941D01*
X141760961Y-93536945D01*
X141868329Y-93656190D01*
X141899046Y-93720198D01*
X141890281Y-93790651D01*
X141844818Y-93845182D01*
X141777090Y-93866477D01*
X141774692Y-93866500D01*
X134009595Y-93866500D01*
X133941474Y-93846498D01*
X133894981Y-93792842D01*
X133884877Y-93722568D01*
X133889761Y-93701565D01*
X133890303Y-93699894D01*
X133893542Y-93689928D01*
X133913504Y-93500000D01*
X133893542Y-93310072D01*
X133834527Y-93128444D01*
X133739040Y-92963056D01*
X133739038Y-92963054D01*
X133739034Y-92963048D01*
X133611255Y-92821135D01*
X133456752Y-92708882D01*
X133282288Y-92631206D01*
X133095487Y-92591500D01*
X132904513Y-92591500D01*
X132717711Y-92631206D01*
X132543247Y-92708882D01*
X132388747Y-92821133D01*
X132385437Y-92824810D01*
X132324991Y-92862050D01*
X132291800Y-92866500D01*
X128509595Y-92866500D01*
X128441474Y-92846498D01*
X128394981Y-92792842D01*
X128384877Y-92722568D01*
X128389761Y-92701565D01*
X128390303Y-92699894D01*
X128393542Y-92689928D01*
X128413504Y-92500000D01*
X128393542Y-92310072D01*
X128334527Y-92128444D01*
X128239040Y-91963056D01*
X128239038Y-91963054D01*
X128239034Y-91963048D01*
X128111255Y-91821135D01*
X127956752Y-91708882D01*
X127782288Y-91631206D01*
X127595487Y-91591500D01*
X127404513Y-91591500D01*
X127217711Y-91631206D01*
X127043247Y-91708882D01*
X126888747Y-91821133D01*
X126885437Y-91824810D01*
X126824991Y-91862050D01*
X126791800Y-91866500D01*
X122708200Y-91866500D01*
X122640079Y-91846498D01*
X122614563Y-91824810D01*
X122611252Y-91821133D01*
X122456752Y-91708882D01*
X122282288Y-91631206D01*
X122095487Y-91591500D01*
X121904513Y-91591500D01*
X121717711Y-91631206D01*
X121543247Y-91708882D01*
X121388744Y-91821135D01*
X121260965Y-91963048D01*
X121260958Y-91963058D01*
X121165476Y-92128438D01*
X121165473Y-92128445D01*
X121106457Y-92310072D01*
X121086496Y-92500000D01*
X121106457Y-92689927D01*
X121118453Y-92726845D01*
X121165473Y-92871556D01*
X121169295Y-92878176D01*
X121260958Y-93036941D01*
X121260965Y-93036951D01*
X121376882Y-93165690D01*
X121407600Y-93229697D01*
X121398835Y-93300151D01*
X121376882Y-93334310D01*
X121260965Y-93463048D01*
X121260958Y-93463058D01*
X121165476Y-93628438D01*
X121165473Y-93628445D01*
X121106457Y-93810072D01*
X121086496Y-94000000D01*
X121106457Y-94189927D01*
X121127993Y-94256206D01*
X121165473Y-94371556D01*
X121165476Y-94371561D01*
X121260958Y-94536941D01*
X121260965Y-94536951D01*
X121388744Y-94678864D01*
X121388747Y-94678866D01*
X121543248Y-94791118D01*
X121717712Y-94868794D01*
X121904513Y-94908500D01*
X122095487Y-94908500D01*
X122282288Y-94868794D01*
X122456752Y-94791118D01*
X122611253Y-94678866D01*
X122685714Y-94596169D01*
X122739034Y-94536951D01*
X122739035Y-94536949D01*
X122739040Y-94536944D01*
X122834527Y-94371556D01*
X122883588Y-94220562D01*
X122923662Y-94161958D01*
X122989059Y-94134321D01*
X123003421Y-94133500D01*
X129666405Y-94133500D01*
X129734526Y-94153502D01*
X129781019Y-94207158D01*
X129791123Y-94277432D01*
X129761629Y-94342012D01*
X129755500Y-94348595D01*
X129596166Y-94507928D01*
X129596167Y-94507929D01*
X129507927Y-94596169D01*
X129497146Y-94612304D01*
X129442667Y-94657830D01*
X129372223Y-94666675D01*
X129341136Y-94657405D01*
X129282292Y-94631206D01*
X129095487Y-94591500D01*
X128904513Y-94591500D01*
X128717711Y-94631206D01*
X128543247Y-94708882D01*
X128388744Y-94821135D01*
X128260965Y-94963048D01*
X128260958Y-94963058D01*
X128165476Y-95128438D01*
X128165473Y-95128445D01*
X128106457Y-95310072D01*
X128086496Y-95500000D01*
X128106457Y-95689927D01*
X128133601Y-95773465D01*
X128165473Y-95871556D01*
X128165476Y-95871561D01*
X128249776Y-96017574D01*
X128260960Y-96036944D01*
X128334137Y-96118215D01*
X128364853Y-96182220D01*
X128366500Y-96202524D01*
X128366500Y-97762396D01*
X128375984Y-97810072D01*
X128390845Y-97884785D01*
X128438600Y-98000075D01*
X128507929Y-98103833D01*
X128507931Y-98103835D01*
X131612877Y-101208781D01*
X131646903Y-101271093D01*
X131649092Y-101284705D01*
X131666457Y-101449929D01*
X131675112Y-101476564D01*
X131677139Y-101547532D01*
X131640477Y-101608330D01*
X131576765Y-101639655D01*
X131555279Y-101641500D01*
X131089595Y-101641500D01*
X131021474Y-101621498D01*
X131000500Y-101604595D01*
X130947121Y-101551216D01*
X130913095Y-101488904D01*
X130910908Y-101475306D01*
X130893542Y-101310072D01*
X130834527Y-101128444D01*
X130739040Y-100963056D01*
X130739038Y-100963054D01*
X130739034Y-100963048D01*
X130611255Y-100821135D01*
X130456752Y-100708882D01*
X130282288Y-100631206D01*
X130095487Y-100591500D01*
X130036572Y-100591500D01*
X129968451Y-100571498D01*
X129921958Y-100517842D01*
X129911262Y-100478670D01*
X129908328Y-100450759D01*
X129893542Y-100310072D01*
X129834527Y-100128444D01*
X129739040Y-99963056D01*
X129739038Y-99963054D01*
X129739034Y-99963048D01*
X129611255Y-99821135D01*
X129456752Y-99708882D01*
X129282288Y-99631206D01*
X129095487Y-99591500D01*
X128904513Y-99591500D01*
X128717711Y-99631206D01*
X128543247Y-99708882D01*
X128388744Y-99821135D01*
X128260965Y-99963048D01*
X128260958Y-99963058D01*
X128165476Y-100128438D01*
X128165473Y-100128444D01*
X128156336Y-100156564D01*
X128106457Y-100310072D01*
X128086496Y-100500000D01*
X128106457Y-100689927D01*
X128136526Y-100782470D01*
X128165473Y-100871556D01*
X128260960Y-101036944D01*
X128334137Y-101118215D01*
X128364853Y-101182220D01*
X128366500Y-101202524D01*
X128366500Y-101812396D01*
X128370305Y-101831525D01*
X128390845Y-101934785D01*
X128438600Y-102050075D01*
X128507929Y-102153833D01*
X129336253Y-102982158D01*
X129600567Y-103246472D01*
X129600578Y-103246482D01*
X129721329Y-103367233D01*
X129809567Y-103455471D01*
X129913325Y-103524800D01*
X130008830Y-103564360D01*
X130028612Y-103572554D01*
X130028613Y-103572554D01*
X130028615Y-103572555D01*
X130138585Y-103594429D01*
X130201495Y-103627336D01*
X130236627Y-103689031D01*
X130232827Y-103759926D01*
X130229644Y-103767918D01*
X130170457Y-103950072D01*
X130150496Y-104140000D01*
X130157047Y-104202330D01*
X130144275Y-104272168D01*
X130095772Y-104324015D01*
X130031737Y-104341500D01*
X129904513Y-104341500D01*
X129717711Y-104381206D01*
X129543247Y-104458882D01*
X129388747Y-104571133D01*
X129385437Y-104574810D01*
X129324991Y-104612050D01*
X129291800Y-104616500D01*
X123064594Y-104616500D01*
X122996473Y-104596498D01*
X122975499Y-104579595D01*
X122447122Y-104051218D01*
X122413096Y-103988906D01*
X122410907Y-103975293D01*
X122410814Y-103974412D01*
X122393542Y-103810072D01*
X122334527Y-103628444D01*
X122239040Y-103463056D01*
X122239038Y-103463054D01*
X122239034Y-103463048D01*
X122111255Y-103321135D01*
X121956752Y-103208882D01*
X121782288Y-103131206D01*
X121595487Y-103091500D01*
X121404513Y-103091500D01*
X121217711Y-103131206D01*
X121043247Y-103208882D01*
X120888744Y-103321135D01*
X120760965Y-103463048D01*
X120760958Y-103463058D01*
X120665476Y-103628438D01*
X120665473Y-103628444D01*
X120653371Y-103665689D01*
X120606457Y-103810072D01*
X120586496Y-104000000D01*
X120606457Y-104189927D01*
X120633180Y-104272168D01*
X120665473Y-104371556D01*
X120678431Y-104394000D01*
X120760958Y-104536941D01*
X120760965Y-104536951D01*
X120888744Y-104678864D01*
X120888747Y-104678866D01*
X121043248Y-104791118D01*
X121217712Y-104868794D01*
X121404513Y-104908500D01*
X121460406Y-104908500D01*
X121528527Y-104928502D01*
X121549501Y-104945405D01*
X122346167Y-105742071D01*
X122449925Y-105811400D01*
X122565215Y-105859155D01*
X122687606Y-105883500D01*
X122812394Y-105883500D01*
X129291800Y-105883500D01*
X129359921Y-105903502D01*
X129385437Y-105925190D01*
X129388747Y-105928866D01*
X129543248Y-106041118D01*
X129717712Y-106118794D01*
X129904513Y-106158500D01*
X130095491Y-106158500D01*
X130236917Y-106128438D01*
X130278302Y-106119641D01*
X130349093Y-106125042D01*
X130405726Y-106167858D01*
X130430220Y-106234496D01*
X130430500Y-106242887D01*
X130430500Y-109159403D01*
X130410498Y-109227524D01*
X130393595Y-109248499D01*
X129922946Y-109719147D01*
X129860634Y-109753172D01*
X129789818Y-109748107D01*
X129740214Y-109714361D01*
X129739041Y-109713059D01*
X129739040Y-109713056D01*
X129611253Y-109571134D01*
X129608032Y-109568794D01*
X129456752Y-109458882D01*
X129282288Y-109381206D01*
X129095487Y-109341500D01*
X129039594Y-109341500D01*
X128971473Y-109321498D01*
X128950499Y-109304595D01*
X128653835Y-109007931D01*
X128653833Y-109007929D01*
X128550075Y-108938600D01*
X128434785Y-108890845D01*
X128361086Y-108876185D01*
X128312396Y-108866500D01*
X128312394Y-108866500D01*
X124814594Y-108866500D01*
X124746473Y-108846498D01*
X124725499Y-108829595D01*
X122496482Y-106600578D01*
X122496473Y-106600568D01*
X122351080Y-106455175D01*
X121903833Y-106007929D01*
X121800075Y-105938600D01*
X121684785Y-105890845D01*
X121611086Y-105876185D01*
X121562396Y-105866500D01*
X121562394Y-105866500D01*
X120508200Y-105866500D01*
X120440079Y-105846498D01*
X120414563Y-105824810D01*
X120411252Y-105821133D01*
X120256752Y-105708882D01*
X120082288Y-105631206D01*
X119895487Y-105591500D01*
X119704513Y-105591500D01*
X119517711Y-105631206D01*
X119343247Y-105708882D01*
X119188744Y-105821135D01*
X119060965Y-105963048D01*
X119060958Y-105963058D01*
X118976916Y-106108624D01*
X118965473Y-106128444D01*
X118956175Y-106157060D01*
X118906457Y-106310072D01*
X118886496Y-106500000D01*
X118906457Y-106689927D01*
X118922110Y-106738099D01*
X118965473Y-106871556D01*
X118971273Y-106881602D01*
X119060958Y-107036941D01*
X119060965Y-107036951D01*
X119188744Y-107178864D01*
X119188747Y-107178866D01*
X119343248Y-107291118D01*
X119517712Y-107368794D01*
X119704513Y-107408500D01*
X119895487Y-107408500D01*
X120082288Y-107368794D01*
X120256752Y-107291118D01*
X120411253Y-107178866D01*
X120414563Y-107175190D01*
X120475009Y-107137950D01*
X120508200Y-107133500D01*
X121185405Y-107133500D01*
X121253526Y-107153502D01*
X121274500Y-107170404D01*
X121472888Y-107368793D01*
X121600567Y-107496472D01*
X121600578Y-107496482D01*
X124096167Y-109992071D01*
X124199925Y-110061400D01*
X124315215Y-110109155D01*
X124437606Y-110133500D01*
X124562394Y-110133500D01*
X127935406Y-110133500D01*
X128003527Y-110153502D01*
X128024501Y-110170405D01*
X128052877Y-110198781D01*
X128086903Y-110261093D01*
X128089092Y-110274705D01*
X128106457Y-110439927D01*
X128128553Y-110507929D01*
X128165473Y-110621556D01*
X128165476Y-110621561D01*
X128260958Y-110786941D01*
X128260965Y-110786951D01*
X128388744Y-110928864D01*
X128457332Y-110978696D01*
X128500686Y-111034918D01*
X128506761Y-111105654D01*
X128473630Y-111168446D01*
X128472367Y-111169727D01*
X128044501Y-111597595D01*
X127982189Y-111631620D01*
X127955405Y-111634500D01*
X124143603Y-111634500D01*
X124070568Y-111649028D01*
X124021215Y-111658845D01*
X124021213Y-111658845D01*
X124021212Y-111658846D01*
X123905923Y-111706601D01*
X123802171Y-111775926D01*
X123802164Y-111775931D01*
X122985501Y-112592595D01*
X122923189Y-112626621D01*
X122896406Y-112629500D01*
X122840513Y-112629500D01*
X122653711Y-112669206D01*
X122479247Y-112746882D01*
X122324744Y-112859135D01*
X122196965Y-113001048D01*
X122196958Y-113001058D01*
X122101476Y-113166438D01*
X122101473Y-113166445D01*
X122042457Y-113348072D01*
X122022496Y-113538000D01*
X122042457Y-113727927D01*
X122064756Y-113796554D01*
X122101473Y-113909556D01*
X122108629Y-113921950D01*
X122196958Y-114074941D01*
X122196965Y-114074951D01*
X122324744Y-114216864D01*
X122324747Y-114216866D01*
X122479248Y-114329118D01*
X122653712Y-114406794D01*
X122840513Y-114446500D01*
X123031487Y-114446500D01*
X123218288Y-114406794D01*
X123392752Y-114329118D01*
X123547253Y-114216866D01*
X123571509Y-114189927D01*
X123675034Y-114074951D01*
X123675035Y-114074949D01*
X123675040Y-114074944D01*
X123770527Y-113909556D01*
X123829542Y-113727928D01*
X123846907Y-113562703D01*
X123873920Y-113497048D01*
X123883113Y-113486789D01*
X123885299Y-113484603D01*
X123947609Y-113450579D01*
X124018424Y-113455644D01*
X124075260Y-113498191D01*
X124094224Y-113534761D01*
X124133473Y-113655556D01*
X124133476Y-113655561D01*
X124228958Y-113820941D01*
X124228965Y-113820951D01*
X124356744Y-113962864D01*
X124357011Y-113963058D01*
X124511248Y-114075118D01*
X124685712Y-114152794D01*
X124872513Y-114192500D01*
X125063487Y-114192500D01*
X125250288Y-114152794D01*
X125424752Y-114075118D01*
X125579253Y-113962866D01*
X125582563Y-113959190D01*
X125643009Y-113921950D01*
X125676200Y-113917500D01*
X128840393Y-113917500D01*
X128840394Y-113917500D01*
X128962785Y-113893155D01*
X129078075Y-113845400D01*
X129181833Y-113776071D01*
X133080072Y-109877833D01*
X133149401Y-109774075D01*
X133197155Y-109658784D01*
X133216197Y-109563056D01*
X133221500Y-109536394D01*
X133221500Y-105087640D01*
X133241502Y-105019519D01*
X133253864Y-105003329D01*
X133319040Y-104930944D01*
X133414527Y-104765556D01*
X133473542Y-104583928D01*
X133493504Y-104394000D01*
X133473542Y-104204072D01*
X133414527Y-104022444D01*
X133319040Y-103857056D01*
X133274158Y-103807210D01*
X133243442Y-103743203D01*
X133252206Y-103672750D01*
X133297668Y-103618218D01*
X133365396Y-103596923D01*
X133367795Y-103596900D01*
X136529134Y-103596900D01*
X136597255Y-103616902D01*
X136643748Y-103670558D01*
X136653852Y-103740832D01*
X136624358Y-103805412D01*
X136621835Y-103808237D01*
X136517185Y-103921916D01*
X136389515Y-104117331D01*
X136295752Y-104331089D01*
X136295749Y-104331096D01*
X136238450Y-104557366D01*
X136238449Y-104557372D01*
X136238449Y-104557374D01*
X136219173Y-104790000D01*
X136238322Y-105021098D01*
X136238450Y-105022633D01*
X136295749Y-105248903D01*
X136295752Y-105248910D01*
X136389515Y-105462668D01*
X136517185Y-105658083D01*
X136675274Y-105829813D01*
X136675278Y-105829817D01*
X136741150Y-105881087D01*
X136859483Y-105973190D01*
X137064773Y-106084287D01*
X137285549Y-106160080D01*
X137515788Y-106198500D01*
X137515792Y-106198500D01*
X137749208Y-106198500D01*
X137749212Y-106198500D01*
X137979451Y-106160080D01*
X138200227Y-106084287D01*
X138405517Y-105973190D01*
X138589720Y-105829818D01*
X138594331Y-105824810D01*
X138747814Y-105658083D01*
X138764096Y-105633162D01*
X138875484Y-105462669D01*
X138969249Y-105248907D01*
X139026551Y-105022626D01*
X139045827Y-104790000D01*
X139026551Y-104557374D01*
X139012022Y-104500000D01*
X138969250Y-104331096D01*
X138969247Y-104331089D01*
X138907546Y-104190426D01*
X138875484Y-104117331D01*
X138834497Y-104054595D01*
X138747814Y-103921916D01*
X138643165Y-103808237D01*
X138611744Y-103744572D01*
X138619731Y-103674026D01*
X138664590Y-103618997D01*
X138732079Y-103596957D01*
X138735866Y-103596900D01*
X139648806Y-103596900D01*
X139716927Y-103616902D01*
X139737901Y-103633805D01*
X141052877Y-104948781D01*
X141086903Y-105011093D01*
X141089092Y-105024705D01*
X141106457Y-105189927D01*
X141128863Y-105258882D01*
X141165473Y-105371556D01*
X141177515Y-105392414D01*
X141260958Y-105536941D01*
X141260965Y-105536951D01*
X141388744Y-105678864D01*
X141388747Y-105678866D01*
X141543248Y-105791118D01*
X141717712Y-105868794D01*
X141904513Y-105908500D01*
X142095491Y-105908500D01*
X142246514Y-105876398D01*
X142263102Y-105872872D01*
X142333893Y-105878273D01*
X142390526Y-105921089D01*
X142415020Y-105987727D01*
X142415300Y-105996118D01*
X142415300Y-110282588D01*
X142395298Y-110350709D01*
X142341642Y-110397202D01*
X142271368Y-110407306D01*
X142206788Y-110377812D01*
X142200205Y-110371683D01*
X140170405Y-108341883D01*
X140136379Y-108279571D01*
X140133500Y-108252788D01*
X140133500Y-107702524D01*
X140153502Y-107634403D01*
X140165858Y-107618220D01*
X140239040Y-107536944D01*
X140334527Y-107371556D01*
X140393542Y-107189928D01*
X140413504Y-107000000D01*
X140393542Y-106810072D01*
X140334527Y-106628444D01*
X140239040Y-106463056D01*
X140239038Y-106463054D01*
X140239034Y-106463048D01*
X140111255Y-106321135D01*
X139956752Y-106208882D01*
X139782288Y-106131206D01*
X139595487Y-106091500D01*
X139404513Y-106091500D01*
X139217711Y-106131206D01*
X139043247Y-106208882D01*
X138888744Y-106321135D01*
X138760965Y-106463048D01*
X138760958Y-106463058D01*
X138665476Y-106628438D01*
X138665473Y-106628444D01*
X138656738Y-106655327D01*
X138606457Y-106810072D01*
X138586496Y-107000000D01*
X138606457Y-107189927D01*
X138630007Y-107262404D01*
X138665473Y-107371556D01*
X138760960Y-107536944D01*
X138834137Y-107618215D01*
X138864853Y-107682220D01*
X138866500Y-107702524D01*
X138866500Y-108504988D01*
X138866500Y-108629776D01*
X138890845Y-108752167D01*
X138938600Y-108867457D01*
X139007929Y-108971215D01*
X139007931Y-108971217D01*
X149110797Y-119074083D01*
X149144823Y-119136395D01*
X149141535Y-119202114D01*
X149106457Y-119310071D01*
X149086496Y-119500000D01*
X149106457Y-119689927D01*
X149128765Y-119758582D01*
X149165473Y-119871556D01*
X149165476Y-119871561D01*
X149260958Y-120036941D01*
X149260965Y-120036951D01*
X149388744Y-120178864D01*
X149388747Y-120178866D01*
X149543248Y-120291118D01*
X149717712Y-120368794D01*
X149904513Y-120408500D01*
X150095487Y-120408500D01*
X150282288Y-120368794D01*
X150456752Y-120291118D01*
X150611253Y-120178866D01*
X150739040Y-120036944D01*
X150834527Y-119871556D01*
X150893542Y-119689928D01*
X150913504Y-119500000D01*
X150893542Y-119310072D01*
X150834527Y-119128444D01*
X150739040Y-118963056D01*
X150739038Y-118963054D01*
X150739034Y-118963048D01*
X150611256Y-118821136D01*
X150600201Y-118813104D01*
X150563173Y-118770623D01*
X150562922Y-118770154D01*
X150548414Y-118700655D01*
X150573783Y-118634346D01*
X150630974Y-118592278D01*
X150674013Y-118584700D01*
X150747861Y-118584700D01*
X150815982Y-118604702D01*
X150841496Y-118626388D01*
X150888747Y-118678866D01*
X151043248Y-118791118D01*
X151217712Y-118868794D01*
X151404513Y-118908500D01*
X151595487Y-118908500D01*
X151782288Y-118868794D01*
X151956752Y-118791118D01*
X152111253Y-118678866D01*
X152111255Y-118678864D01*
X152239034Y-118536951D01*
X152239035Y-118536949D01*
X152239040Y-118536944D01*
X152334527Y-118371556D01*
X152345467Y-118337883D01*
X152385541Y-118279280D01*
X152450937Y-118251643D01*
X152520894Y-118263750D01*
X152573200Y-118311756D01*
X152591300Y-118376822D01*
X152591300Y-119547579D01*
X152571298Y-119615700D01*
X152554395Y-119636674D01*
X151636474Y-120554595D01*
X151574162Y-120588621D01*
X151547379Y-120591500D01*
X151404513Y-120591500D01*
X151217711Y-120631206D01*
X151043247Y-120708882D01*
X150888744Y-120821135D01*
X150760965Y-120963048D01*
X150760958Y-120963058D01*
X150665476Y-121128438D01*
X150665473Y-121128444D01*
X150657331Y-121153502D01*
X150606457Y-121310072D01*
X150586496Y-121500000D01*
X150606457Y-121689927D01*
X150619894Y-121731280D01*
X150665473Y-121871556D01*
X150665476Y-121871561D01*
X150760958Y-122036941D01*
X150760961Y-122036945D01*
X150868329Y-122156190D01*
X150899046Y-122220198D01*
X150890281Y-122290651D01*
X150844818Y-122345182D01*
X150777090Y-122366477D01*
X150774692Y-122366500D01*
X140322259Y-122366500D01*
X140254138Y-122346498D01*
X140207645Y-122292842D01*
X140197541Y-122222568D01*
X140205850Y-122192282D01*
X140288628Y-121992437D01*
X140344039Y-121761632D01*
X140362662Y-121525000D01*
X140344039Y-121288367D01*
X140288628Y-121057562D01*
X140197791Y-120838261D01*
X140083102Y-120651108D01*
X140083101Y-120651107D01*
X139334157Y-121400050D01*
X139315925Y-121332007D01*
X139250099Y-121217993D01*
X139157007Y-121124901D01*
X139042993Y-121059075D01*
X138974946Y-121040841D01*
X139515787Y-120500000D01*
X144086496Y-120500000D01*
X144106457Y-120689927D01*
X144135734Y-120780030D01*
X144165473Y-120871556D01*
X144165476Y-120871561D01*
X144260958Y-121036941D01*
X144260965Y-121036951D01*
X144388744Y-121178864D01*
X144442566Y-121217968D01*
X144543248Y-121291118D01*
X144717712Y-121368794D01*
X144904513Y-121408500D01*
X145095487Y-121408500D01*
X145282288Y-121368794D01*
X145456752Y-121291118D01*
X145611253Y-121178866D01*
X145614563Y-121175190D01*
X145675009Y-121137950D01*
X145708200Y-121133500D01*
X147291800Y-121133500D01*
X147359921Y-121153502D01*
X147385437Y-121175190D01*
X147388747Y-121178866D01*
X147543248Y-121291118D01*
X147717712Y-121368794D01*
X147904513Y-121408500D01*
X148095487Y-121408500D01*
X148282288Y-121368794D01*
X148456752Y-121291118D01*
X148611253Y-121178866D01*
X148625505Y-121163038D01*
X148739034Y-121036951D01*
X148739035Y-121036949D01*
X148739040Y-121036944D01*
X148834527Y-120871556D01*
X148893542Y-120689928D01*
X148913504Y-120500000D01*
X148893542Y-120310072D01*
X148834527Y-120128444D01*
X148739040Y-119963056D01*
X148739038Y-119963054D01*
X148739034Y-119963048D01*
X148611255Y-119821135D01*
X148456752Y-119708882D01*
X148282288Y-119631206D01*
X148095487Y-119591500D01*
X147904513Y-119591500D01*
X147717711Y-119631206D01*
X147543247Y-119708882D01*
X147388747Y-119821133D01*
X147385437Y-119824810D01*
X147324991Y-119862050D01*
X147291800Y-119866500D01*
X145708200Y-119866500D01*
X145640079Y-119846498D01*
X145614563Y-119824810D01*
X145611252Y-119821133D01*
X145456752Y-119708882D01*
X145282288Y-119631206D01*
X145095487Y-119591500D01*
X144904513Y-119591500D01*
X144717711Y-119631206D01*
X144543247Y-119708882D01*
X144388744Y-119821135D01*
X144260965Y-119963048D01*
X144260958Y-119963058D01*
X144165476Y-120128438D01*
X144165473Y-120128445D01*
X144106457Y-120310072D01*
X144086496Y-120500000D01*
X139515787Y-120500000D01*
X139723890Y-120291897D01*
X139723890Y-120291896D01*
X139536738Y-120177208D01*
X139317437Y-120086371D01*
X139086632Y-120030960D01*
X138850000Y-120012337D01*
X138613367Y-120030960D01*
X138382562Y-120086371D01*
X138163266Y-120177206D01*
X137976108Y-120291897D01*
X137976108Y-120291898D01*
X138725052Y-121040842D01*
X138657007Y-121059075D01*
X138542993Y-121124901D01*
X138449901Y-121217993D01*
X138384075Y-121332007D01*
X138365842Y-121400052D01*
X137616898Y-120651108D01*
X137616897Y-120651108D01*
X137502206Y-120838266D01*
X137411371Y-121057562D01*
X137355960Y-121288367D01*
X137337337Y-121525000D01*
X137355960Y-121761632D01*
X137411371Y-121992437D01*
X137494150Y-122192282D01*
X137501739Y-122262872D01*
X137469960Y-122326359D01*
X137408901Y-122362586D01*
X137377741Y-122366500D01*
X131208200Y-122366500D01*
X131140079Y-122346498D01*
X131114563Y-122324810D01*
X131111252Y-122321133D01*
X130956752Y-122208882D01*
X130832429Y-122153530D01*
X130778333Y-122107550D01*
X130757684Y-122039622D01*
X130774559Y-121975423D01*
X130781704Y-121963048D01*
X130834527Y-121871556D01*
X130893542Y-121689928D01*
X130913504Y-121500000D01*
X130893542Y-121310072D01*
X130834527Y-121128444D01*
X130739040Y-120963056D01*
X130665863Y-120881784D01*
X130635146Y-120817776D01*
X130633500Y-120797474D01*
X130633500Y-118687607D01*
X130633499Y-118687603D01*
X130609155Y-118565215D01*
X130561400Y-118449925D01*
X130492071Y-118346167D01*
X130403833Y-118257929D01*
X129447122Y-117301218D01*
X129413096Y-117238906D01*
X129410907Y-117225293D01*
X129401439Y-117135213D01*
X129393542Y-117060072D01*
X129365900Y-116975000D01*
X131400096Y-116975000D01*
X131419693Y-117311473D01*
X131419693Y-117311479D01*
X131433735Y-117391116D01*
X131478223Y-117643418D01*
X131574891Y-117966313D01*
X131574893Y-117966319D01*
X131574894Y-117966320D01*
X131703193Y-118263750D01*
X131708392Y-118275801D01*
X131876919Y-118567699D01*
X131876928Y-118567711D01*
X131876930Y-118567714D01*
X132078194Y-118838059D01*
X132300871Y-119074083D01*
X132309494Y-119083223D01*
X132567693Y-119299877D01*
X132849298Y-119485091D01*
X133150501Y-119636361D01*
X133297674Y-119689928D01*
X133467222Y-119751639D01*
X133467223Y-119751639D01*
X133467228Y-119751641D01*
X133795197Y-119829371D01*
X133986497Y-119851730D01*
X134129970Y-119868500D01*
X134129973Y-119868500D01*
X134467030Y-119868500D01*
X134592568Y-119853826D01*
X134801803Y-119829371D01*
X135129772Y-119751641D01*
X135446499Y-119636361D01*
X135747702Y-119485091D01*
X136029307Y-119299877D01*
X136287506Y-119083223D01*
X136518806Y-118838058D01*
X136720081Y-118567699D01*
X136888608Y-118275801D01*
X137022109Y-117966313D01*
X137118777Y-117643418D01*
X137177306Y-117311484D01*
X137196904Y-116975000D01*
X137177306Y-116638516D01*
X137118777Y-116306582D01*
X137022109Y-115983687D01*
X136888608Y-115674199D01*
X136720081Y-115382301D01*
X136568628Y-115178864D01*
X136518805Y-115111940D01*
X136287509Y-114866780D01*
X136287508Y-114866779D01*
X136287506Y-114866777D01*
X136029307Y-114650123D01*
X135747702Y-114464909D01*
X135446499Y-114313639D01*
X135446498Y-114313638D01*
X135446497Y-114313638D01*
X135129777Y-114198360D01*
X134801804Y-114120629D01*
X134801798Y-114120628D01*
X134467030Y-114081500D01*
X134467027Y-114081500D01*
X134129973Y-114081500D01*
X134129970Y-114081500D01*
X133795201Y-114120628D01*
X133795195Y-114120629D01*
X133467222Y-114198360D01*
X133150502Y-114313638D01*
X132849296Y-114464910D01*
X132567691Y-114650124D01*
X132309496Y-114866775D01*
X132309490Y-114866780D01*
X132078194Y-115111940D01*
X131876930Y-115382285D01*
X131876912Y-115382312D01*
X131708395Y-115674193D01*
X131708386Y-115674211D01*
X131575942Y-115981250D01*
X131574891Y-115983687D01*
X131534296Y-116119284D01*
X131478223Y-116306581D01*
X131419693Y-116638520D01*
X131419693Y-116638526D01*
X131400096Y-116975000D01*
X129365900Y-116975000D01*
X129334527Y-116878444D01*
X129239040Y-116713056D01*
X129239038Y-116713054D01*
X129239034Y-116713048D01*
X129111255Y-116571135D01*
X128956752Y-116458882D01*
X128782288Y-116381206D01*
X128595487Y-116341500D01*
X128404513Y-116341500D01*
X128217711Y-116381206D01*
X128043247Y-116458882D01*
X127888744Y-116571135D01*
X127760965Y-116713048D01*
X127760958Y-116713058D01*
X127665476Y-116878438D01*
X127665473Y-116878445D01*
X127606457Y-117060072D01*
X127586496Y-117250000D01*
X127606457Y-117439927D01*
X127633250Y-117522385D01*
X127665473Y-117621556D01*
X127665476Y-117621561D01*
X127760958Y-117786941D01*
X127760965Y-117786951D01*
X127888744Y-117928864D01*
X127940288Y-117966313D01*
X128043248Y-118041118D01*
X128217712Y-118118794D01*
X128404513Y-118158500D01*
X128460406Y-118158500D01*
X128528527Y-118178502D01*
X128549501Y-118195405D01*
X129329595Y-118975499D01*
X129363621Y-119037811D01*
X129366500Y-119064594D01*
X129366500Y-120797474D01*
X129346498Y-120865595D01*
X129334137Y-120881784D01*
X129260957Y-120963059D01*
X129165476Y-121128438D01*
X129165473Y-121128444D01*
X129157331Y-121153502D01*
X129106457Y-121310072D01*
X129086496Y-121500000D01*
X129093085Y-121562696D01*
X129080312Y-121632534D01*
X129031810Y-121684380D01*
X128962977Y-121701774D01*
X128916527Y-121690972D01*
X128782290Y-121631206D01*
X128595487Y-121591500D01*
X128404513Y-121591500D01*
X128217711Y-121631206D01*
X128043247Y-121708882D01*
X127888744Y-121821135D01*
X127760965Y-121963048D01*
X127760958Y-121963058D01*
X127677536Y-122107550D01*
X127665473Y-122128444D01*
X127651981Y-122169969D01*
X127606457Y-122310072D01*
X127586496Y-122500000D01*
X127606457Y-122689927D01*
X127636526Y-122782470D01*
X127665473Y-122871556D01*
X127665476Y-122871561D01*
X127760958Y-123036941D01*
X127760965Y-123036951D01*
X127888744Y-123178864D01*
X127888747Y-123178866D01*
X128043248Y-123291118D01*
X128217712Y-123368794D01*
X128404513Y-123408500D01*
X128460406Y-123408500D01*
X128528527Y-123428502D01*
X128549501Y-123445405D01*
X128865501Y-123761405D01*
X128899527Y-123823717D01*
X128894462Y-123894532D01*
X128851915Y-123951368D01*
X128785395Y-123976179D01*
X128776406Y-123976500D01*
X124599778Y-123976500D01*
X124365259Y-124013644D01*
X124365253Y-124013645D01*
X124139441Y-124087016D01*
X124139435Y-124087019D01*
X123927869Y-124194817D01*
X123735775Y-124334382D01*
X123735772Y-124334384D01*
X123567884Y-124502272D01*
X123567882Y-124502275D01*
X123428317Y-124694369D01*
X123320519Y-124905935D01*
X123320516Y-124905941D01*
X123247145Y-125131753D01*
X123247144Y-125131758D01*
X123247144Y-125131759D01*
X123210000Y-125366278D01*
X123210000Y-125603722D01*
X123247144Y-125838241D01*
X123247145Y-125838246D01*
X123320516Y-126064058D01*
X123320518Y-126064063D01*
X123409309Y-126238325D01*
X123428317Y-126275630D01*
X123462822Y-126323121D01*
X123567880Y-126467722D01*
X123567882Y-126467724D01*
X123567884Y-126467727D01*
X123735772Y-126635615D01*
X123735775Y-126635617D01*
X123735778Y-126635620D01*
X123927873Y-126775185D01*
X124139437Y-126882982D01*
X124365259Y-126956356D01*
X124599778Y-126993500D01*
X143729778Y-126993500D01*
X149757968Y-126993500D01*
X149826089Y-127013502D01*
X149847058Y-127030400D01*
X149967278Y-127150620D01*
X150159373Y-127290185D01*
X150370937Y-127397982D01*
X150596759Y-127471356D01*
X150831278Y-127508501D01*
X150831281Y-127508501D01*
X151073915Y-127508501D01*
X151073939Y-127508500D01*
X154676061Y-127508500D01*
X154676085Y-127508501D01*
X154681278Y-127508501D01*
X154918719Y-127508501D01*
X154918722Y-127508501D01*
X155153241Y-127471356D01*
X155379063Y-127397982D01*
X155590627Y-127290185D01*
X155782722Y-127150620D01*
X155950620Y-126982722D01*
X155957792Y-126975550D01*
X155957802Y-126975537D01*
X156750620Y-126182721D01*
X156750619Y-126182721D01*
X156810133Y-126123207D01*
X156810132Y-126123207D01*
X158454313Y-124479027D01*
X158516624Y-124445002D01*
X158587440Y-124450067D01*
X158644275Y-124492614D01*
X158669086Y-124559134D01*
X158668717Y-124581293D01*
X158661496Y-124649999D01*
X158681457Y-124839927D01*
X158702905Y-124905935D01*
X158740473Y-125021556D01*
X158740476Y-125021561D01*
X158835958Y-125186941D01*
X158835965Y-125186951D01*
X158963744Y-125328864D01*
X158963747Y-125328866D01*
X159118248Y-125441118D01*
X159292712Y-125518794D01*
X159479513Y-125558500D01*
X159670487Y-125558500D01*
X159857288Y-125518794D01*
X159921961Y-125490000D01*
X164136364Y-125490000D01*
X164156872Y-125737493D01*
X164187161Y-125857103D01*
X164187537Y-125858627D01*
X164189163Y-125865404D01*
X164189982Y-125868244D01*
X164217833Y-125978227D01*
X164217834Y-125978229D01*
X164246839Y-126044351D01*
X164251282Y-126056022D01*
X164262018Y-126089063D01*
X164262020Y-126089068D01*
X164292226Y-126148351D01*
X164295346Y-126154938D01*
X164317589Y-126205647D01*
X164317593Y-126205655D01*
X164331287Y-126226614D01*
X164338070Y-126238325D01*
X164369815Y-126300627D01*
X164509380Y-126492722D01*
X164509382Y-126492724D01*
X164509384Y-126492727D01*
X164677272Y-126660615D01*
X164677275Y-126660617D01*
X164677278Y-126660620D01*
X164869373Y-126800185D01*
X165080937Y-126907982D01*
X165306759Y-126981356D01*
X165541278Y-127018500D01*
X184666061Y-127018500D01*
X184666085Y-127018501D01*
X184671278Y-127018501D01*
X184908719Y-127018501D01*
X184908722Y-127018501D01*
X185143241Y-126981356D01*
X185369063Y-126907982D01*
X185580627Y-126800185D01*
X185593782Y-126790627D01*
X185772722Y-126660620D01*
X185940620Y-126492722D01*
X185947793Y-126485549D01*
X185947804Y-126485535D01*
X187779731Y-124653608D01*
X187811616Y-124630442D01*
X187890627Y-124590185D01*
X187975331Y-124528644D01*
X188082722Y-124450620D01*
X188250620Y-124282722D01*
X188250621Y-124282721D01*
X188375620Y-124157722D01*
X188515185Y-123965627D01*
X188622982Y-123754063D01*
X188696356Y-123528241D01*
X188705062Y-123473273D01*
X188733501Y-123293722D01*
X188733501Y-123056278D01*
X188733501Y-123051821D01*
X188733500Y-123051791D01*
X188733500Y-121914228D01*
X188733888Y-121904343D01*
X188735500Y-121883855D01*
X188738165Y-121850000D01*
X188733888Y-121795655D01*
X188733500Y-121785770D01*
X188733500Y-121731280D01*
X188731395Y-121717993D01*
X188724972Y-121677435D01*
X188723810Y-121667619D01*
X188722699Y-121653502D01*
X188719535Y-121613289D01*
X188706806Y-121560271D01*
X188704882Y-121550596D01*
X188696356Y-121496759D01*
X188696354Y-121496755D01*
X188696354Y-121496751D01*
X188679513Y-121444923D01*
X188676829Y-121435410D01*
X188664105Y-121382406D01*
X188649736Y-121347718D01*
X188643246Y-121332047D01*
X188639822Y-121322766D01*
X188639694Y-121322371D01*
X188622982Y-121270937D01*
X188598234Y-121222366D01*
X188594098Y-121213394D01*
X188573240Y-121163037D01*
X188544754Y-121116553D01*
X188539925Y-121107929D01*
X188535885Y-121100000D01*
X188515185Y-121059373D01*
X188483137Y-121015263D01*
X188477650Y-121007050D01*
X188449178Y-120960587D01*
X188449177Y-120960586D01*
X188449176Y-120960584D01*
X188441174Y-120951215D01*
X188413780Y-120919139D01*
X188407657Y-120911372D01*
X188375620Y-120867278D01*
X188371631Y-120863289D01*
X188337066Y-120828724D01*
X188330375Y-120821486D01*
X188294969Y-120780031D01*
X188253520Y-120744630D01*
X188246266Y-120737924D01*
X188207722Y-120699380D01*
X188163618Y-120667336D01*
X188155865Y-120661225D01*
X188114416Y-120625824D01*
X188114414Y-120625822D01*
X188114412Y-120625821D01*
X188067941Y-120597343D01*
X188059717Y-120591847D01*
X188015632Y-120559817D01*
X188015629Y-120559816D01*
X187967067Y-120535072D01*
X187958437Y-120530239D01*
X187911963Y-120501760D01*
X187861595Y-120480896D01*
X187852623Y-120476760D01*
X187804063Y-120452018D01*
X187752218Y-120435172D01*
X187742948Y-120431751D01*
X187697768Y-120413038D01*
X187692597Y-120410896D01*
X187692595Y-120410895D01*
X187692594Y-120410895D01*
X187639582Y-120398167D01*
X187630079Y-120395487D01*
X187578240Y-120378643D01*
X187578241Y-120378643D01*
X187524405Y-120370116D01*
X187514706Y-120368187D01*
X187474427Y-120358517D01*
X187461711Y-120355465D01*
X187461709Y-120355464D01*
X187461704Y-120355464D01*
X187407371Y-120351187D01*
X187397550Y-120350025D01*
X187366790Y-120345153D01*
X187343722Y-120341500D01*
X187343721Y-120341500D01*
X187289229Y-120341500D01*
X187279344Y-120341112D01*
X187225000Y-120336835D01*
X187170656Y-120341112D01*
X187160771Y-120341500D01*
X187106277Y-120341500D01*
X187052435Y-120350026D01*
X187042616Y-120351188D01*
X186988295Y-120355464D01*
X186988289Y-120355465D01*
X186935295Y-120368187D01*
X186925596Y-120370116D01*
X186871768Y-120378642D01*
X186871749Y-120378646D01*
X186819922Y-120395486D01*
X186810402Y-120398171D01*
X186757416Y-120410892D01*
X186757398Y-120410897D01*
X186707050Y-120431751D01*
X186697775Y-120435173D01*
X186645939Y-120452017D01*
X186645931Y-120452020D01*
X186597372Y-120476761D01*
X186588394Y-120480900D01*
X186538037Y-120501759D01*
X186491556Y-120530242D01*
X186482929Y-120535073D01*
X186434374Y-120559814D01*
X186390274Y-120591853D01*
X186382053Y-120597346D01*
X186335585Y-120625822D01*
X186294142Y-120661217D01*
X186286377Y-120667339D01*
X186242278Y-120699379D01*
X186203733Y-120737924D01*
X186196472Y-120744636D01*
X186155031Y-120780031D01*
X186119636Y-120821472D01*
X186112924Y-120828733D01*
X186074379Y-120867278D01*
X186042339Y-120911377D01*
X186036217Y-120919142D01*
X186000822Y-120960585D01*
X185972346Y-121007053D01*
X185966853Y-121015274D01*
X185934814Y-121059374D01*
X185910073Y-121107929D01*
X185905242Y-121116556D01*
X185876759Y-121163037D01*
X185855900Y-121213394D01*
X185851761Y-121222372D01*
X185827020Y-121270931D01*
X185827017Y-121270939D01*
X185810173Y-121322775D01*
X185806751Y-121332050D01*
X185785897Y-121382398D01*
X185785892Y-121382416D01*
X185773171Y-121435402D01*
X185770486Y-121444922D01*
X185753646Y-121496749D01*
X185753642Y-121496768D01*
X185745116Y-121550596D01*
X185743187Y-121560295D01*
X185730465Y-121613289D01*
X185730464Y-121613295D01*
X185726188Y-121667616D01*
X185725026Y-121677435D01*
X185716500Y-121731277D01*
X185716500Y-121785770D01*
X185716112Y-121795655D01*
X185711835Y-121849999D01*
X185716112Y-121904343D01*
X185716500Y-121914228D01*
X185716500Y-122397969D01*
X185696498Y-122466090D01*
X185679595Y-122487064D01*
X184202064Y-123964595D01*
X184139752Y-123998621D01*
X184112969Y-124001500D01*
X165834539Y-124001500D01*
X165813802Y-123999782D01*
X165792869Y-123996289D01*
X165764169Y-123991500D01*
X165515831Y-123991500D01*
X165379639Y-124014226D01*
X165270881Y-124032374D01*
X165270874Y-124032376D01*
X165035998Y-124113008D01*
X165035996Y-124113009D01*
X164817589Y-124231205D01*
X164817588Y-124231206D01*
X164621612Y-124383741D01*
X164453417Y-124566451D01*
X164317591Y-124774348D01*
X164217836Y-125001766D01*
X164217833Y-125001773D01*
X164156873Y-125242502D01*
X164156872Y-125242508D01*
X164156872Y-125242510D01*
X164149716Y-125328866D01*
X164136364Y-125490000D01*
X159921961Y-125490000D01*
X160031752Y-125441118D01*
X160186253Y-125328866D01*
X160264008Y-125242510D01*
X160314034Y-125186951D01*
X160314035Y-125186949D01*
X160314040Y-125186944D01*
X160409527Y-125021556D01*
X160468542Y-124839928D01*
X160485907Y-124674703D01*
X160512920Y-124609048D01*
X160522113Y-124598789D01*
X164020903Y-121100000D01*
X167061835Y-121100000D01*
X167080465Y-121336711D01*
X167091435Y-121382406D01*
X167135894Y-121567592D01*
X167216268Y-121761632D01*
X167226760Y-121786963D01*
X167334670Y-121963056D01*
X167350825Y-121989417D01*
X167350826Y-121989419D01*
X167505030Y-122169969D01*
X167682021Y-122321133D01*
X167685584Y-122324176D01*
X167888037Y-122448240D01*
X168107406Y-122539105D01*
X168338289Y-122594535D01*
X168575000Y-122613165D01*
X168811711Y-122594535D01*
X169042594Y-122539105D01*
X169261963Y-122448240D01*
X169464416Y-122324176D01*
X169644969Y-122169969D01*
X169799176Y-121989416D01*
X169923240Y-121786963D01*
X170014105Y-121567594D01*
X170069535Y-121336711D01*
X170088165Y-121100000D01*
X170080295Y-121000000D01*
X180586496Y-121000000D01*
X180606457Y-121189927D01*
X180617001Y-121222377D01*
X180665473Y-121371556D01*
X180665476Y-121371561D01*
X180760958Y-121536941D01*
X180760965Y-121536951D01*
X180888744Y-121678864D01*
X180927687Y-121707158D01*
X181043248Y-121791118D01*
X181217712Y-121868794D01*
X181404513Y-121908500D01*
X181595487Y-121908500D01*
X181782288Y-121868794D01*
X181956752Y-121791118D01*
X182111253Y-121678866D01*
X182114563Y-121675190D01*
X182175009Y-121637950D01*
X182208200Y-121633500D01*
X183504882Y-121633500D01*
X183573003Y-121653502D01*
X183619496Y-121707158D01*
X183624713Y-121720559D01*
X183677772Y-121883855D01*
X183689601Y-121904343D01*
X183773257Y-122049240D01*
X183773264Y-122049250D01*
X183901043Y-122191163D01*
X183901046Y-122191165D01*
X184055547Y-122303417D01*
X184230011Y-122381093D01*
X184416812Y-122420799D01*
X184607786Y-122420799D01*
X184794587Y-122381093D01*
X184969051Y-122303417D01*
X185123552Y-122191165D01*
X185157439Y-122153530D01*
X185251333Y-122049250D01*
X185251334Y-122049248D01*
X185251339Y-122049243D01*
X185346826Y-121883855D01*
X185405841Y-121702227D01*
X185425803Y-121512299D01*
X185405841Y-121322371D01*
X185346826Y-121140743D01*
X185251339Y-120975355D01*
X185251337Y-120975353D01*
X185251333Y-120975347D01*
X185123554Y-120833434D01*
X184969051Y-120721181D01*
X184794587Y-120643505D01*
X184607786Y-120603799D01*
X184551893Y-120603799D01*
X184483772Y-120583797D01*
X184462798Y-120566894D01*
X184403835Y-120507931D01*
X184403833Y-120507929D01*
X184300075Y-120438600D01*
X184184785Y-120390845D01*
X184111086Y-120376185D01*
X184062396Y-120366500D01*
X184062394Y-120366500D01*
X182208200Y-120366500D01*
X182140079Y-120346498D01*
X182114563Y-120324810D01*
X182111252Y-120321133D01*
X181956752Y-120208882D01*
X181782288Y-120131206D01*
X181595487Y-120091500D01*
X181404513Y-120091500D01*
X181217711Y-120131206D01*
X181043247Y-120208882D01*
X180888744Y-120321135D01*
X180760965Y-120463048D01*
X180760958Y-120463058D01*
X180665476Y-120628438D01*
X180665473Y-120628444D01*
X180652835Y-120667339D01*
X180606457Y-120810072D01*
X180586496Y-121000000D01*
X170080295Y-121000000D01*
X170069535Y-120863289D01*
X170014105Y-120632406D01*
X169923240Y-120413037D01*
X169799176Y-120210584D01*
X169799173Y-120210580D01*
X169644969Y-120030030D01*
X169464419Y-119875826D01*
X169464417Y-119875825D01*
X169464416Y-119875824D01*
X169261963Y-119751760D01*
X169195099Y-119724064D01*
X169042592Y-119660894D01*
X168854343Y-119615700D01*
X168811711Y-119605465D01*
X168575000Y-119586835D01*
X168338289Y-119605465D01*
X168107407Y-119660894D01*
X167888038Y-119751759D01*
X167685582Y-119875825D01*
X167685580Y-119875826D01*
X167505030Y-120030030D01*
X167350826Y-120210580D01*
X167350825Y-120210582D01*
X167226759Y-120413038D01*
X167135894Y-120632407D01*
X167086474Y-120838261D01*
X167080465Y-120863289D01*
X167061835Y-121100000D01*
X164020903Y-121100000D01*
X167379471Y-117741433D01*
X167448800Y-117637675D01*
X167496555Y-117522385D01*
X167520900Y-117399994D01*
X167520900Y-117275206D01*
X167520900Y-116980000D01*
X172321596Y-116980000D01*
X172341193Y-117316473D01*
X172341193Y-117316479D01*
X172367037Y-117463048D01*
X172399723Y-117648418D01*
X172496391Y-117971313D01*
X172496393Y-117971319D01*
X172496394Y-117971320D01*
X172627729Y-118275788D01*
X172629892Y-118280801D01*
X172647764Y-118311756D01*
X172743467Y-118477520D01*
X172798419Y-118572699D01*
X172798428Y-118572711D01*
X172798430Y-118572714D01*
X172999694Y-118843059D01*
X173230990Y-119088219D01*
X173230994Y-119088223D01*
X173489193Y-119304877D01*
X173770798Y-119490091D01*
X174072001Y-119641361D01*
X174205434Y-119689927D01*
X174388722Y-119756639D01*
X174388723Y-119756639D01*
X174388728Y-119756641D01*
X174716697Y-119834371D01*
X174907997Y-119856730D01*
X175051470Y-119873500D01*
X175051473Y-119873500D01*
X175388530Y-119873500D01*
X175514068Y-119858826D01*
X175723303Y-119834371D01*
X176051272Y-119756641D01*
X176367999Y-119641361D01*
X176669202Y-119490091D01*
X176950807Y-119304877D01*
X177209006Y-119088223D01*
X177440306Y-118843058D01*
X177641581Y-118572699D01*
X177810108Y-118280801D01*
X177943609Y-117971313D01*
X178040277Y-117648418D01*
X178098806Y-117316484D01*
X178118404Y-116980000D01*
X178098806Y-116643516D01*
X178040277Y-116311582D01*
X177943609Y-115988687D01*
X177810108Y-115679199D01*
X177641581Y-115387301D01*
X177569975Y-115291117D01*
X177440305Y-115116940D01*
X177209009Y-114871780D01*
X177209008Y-114871779D01*
X177209006Y-114871777D01*
X176950807Y-114655123D01*
X176669202Y-114469909D01*
X176367999Y-114318639D01*
X176367998Y-114318638D01*
X176367997Y-114318638D01*
X176051277Y-114203360D01*
X175723304Y-114125629D01*
X175723298Y-114125628D01*
X175388530Y-114086500D01*
X175388527Y-114086500D01*
X175051473Y-114086500D01*
X175051470Y-114086500D01*
X174716701Y-114125628D01*
X174716695Y-114125629D01*
X174388722Y-114203360D01*
X174072002Y-114318638D01*
X173770796Y-114469910D01*
X173489191Y-114655124D01*
X173230996Y-114871775D01*
X173230990Y-114871780D01*
X172999694Y-115116940D01*
X172798430Y-115387285D01*
X172798412Y-115387312D01*
X172629895Y-115679193D01*
X172629886Y-115679211D01*
X172496394Y-115988679D01*
X172496391Y-115988687D01*
X172457293Y-116119283D01*
X172399723Y-116311581D01*
X172341193Y-116643520D01*
X172341193Y-116643526D01*
X172321596Y-116980000D01*
X167520900Y-116980000D01*
X167520900Y-97354207D01*
X167540902Y-97286086D01*
X167594558Y-97239593D01*
X167664832Y-97229489D01*
X167720961Y-97252271D01*
X167843248Y-97341118D01*
X168017712Y-97418794D01*
X168204513Y-97458500D01*
X168395487Y-97458500D01*
X168582288Y-97418794D01*
X168756752Y-97341118D01*
X168911253Y-97228866D01*
X168976527Y-97156372D01*
X169039034Y-97086951D01*
X169039035Y-97086949D01*
X169039040Y-97086944D01*
X169134527Y-96921556D01*
X169193542Y-96739928D01*
X169213504Y-96550000D01*
X169193542Y-96360072D01*
X169134527Y-96178444D01*
X169039040Y-96013056D01*
X168944381Y-95907926D01*
X168913664Y-95843918D01*
X168922429Y-95773465D01*
X168944380Y-95739308D01*
X169014040Y-95661944D01*
X169109527Y-95496556D01*
X169164388Y-95327711D01*
X169195122Y-95277557D01*
X170727278Y-93745402D01*
X170789588Y-93711379D01*
X170816371Y-93708500D01*
X175523879Y-93708500D01*
X175592000Y-93728502D01*
X175638493Y-93782158D01*
X175648597Y-93852432D01*
X175619103Y-93917012D01*
X175612974Y-93923595D01*
X174327274Y-95209295D01*
X174264962Y-95243321D01*
X174238179Y-95246200D01*
X174095313Y-95246200D01*
X173908511Y-95285906D01*
X173734047Y-95363582D01*
X173579544Y-95475835D01*
X173451765Y-95617748D01*
X173451758Y-95617758D01*
X173361861Y-95773465D01*
X173356273Y-95783144D01*
X173341799Y-95827686D01*
X173297257Y-95964772D01*
X173277296Y-96154700D01*
X173297257Y-96344627D01*
X173327326Y-96437170D01*
X173356273Y-96526256D01*
X173384641Y-96575391D01*
X173451758Y-96691641D01*
X173451765Y-96691651D01*
X173579544Y-96833564D01*
X173579547Y-96833566D01*
X173734048Y-96945818D01*
X173908512Y-97023494D01*
X174095313Y-97063200D01*
X174286287Y-97063200D01*
X174473088Y-97023494D01*
X174647552Y-96945818D01*
X174802053Y-96833566D01*
X174802055Y-96833564D01*
X174929834Y-96691651D01*
X174929835Y-96691649D01*
X174929840Y-96691644D01*
X175025327Y-96526256D01*
X175084342Y-96344628D01*
X175104304Y-96154700D01*
X175104304Y-96154698D01*
X175104304Y-96154695D01*
X175100640Y-96119842D01*
X175113410Y-96050004D01*
X175136851Y-96017577D01*
X176027417Y-95127011D01*
X176089727Y-95092987D01*
X176160542Y-95098052D01*
X176190572Y-95114173D01*
X176193248Y-95116118D01*
X176367712Y-95193794D01*
X176554513Y-95233500D01*
X176745487Y-95233500D01*
X176932288Y-95193794D01*
X177106752Y-95116118D01*
X177261253Y-95003866D01*
X177261255Y-95003864D01*
X177389034Y-94861951D01*
X177389035Y-94861949D01*
X177389040Y-94861944D01*
X177484527Y-94696556D01*
X177543542Y-94514928D01*
X177563504Y-94325000D01*
X177543542Y-94135072D01*
X177484527Y-93953444D01*
X177452228Y-93897500D01*
X177435490Y-93828504D01*
X177458711Y-93761413D01*
X177514518Y-93717526D01*
X177561347Y-93708500D01*
X183907413Y-93708500D01*
X183975534Y-93728502D01*
X183981471Y-93732562D01*
X183993248Y-93741118D01*
X184167712Y-93818794D01*
X184354513Y-93858500D01*
X184417900Y-93858500D01*
X184486021Y-93878502D01*
X184532514Y-93932158D01*
X184543900Y-93984500D01*
X184543900Y-96553659D01*
X184523898Y-96621780D01*
X184470242Y-96668273D01*
X184399968Y-96678377D01*
X184366652Y-96668766D01*
X184282290Y-96631206D01*
X184095487Y-96591500D01*
X183904513Y-96591500D01*
X183717711Y-96631206D01*
X183543247Y-96708882D01*
X183388747Y-96821133D01*
X183385437Y-96824810D01*
X183324991Y-96862050D01*
X183291800Y-96866500D01*
X179003558Y-96866500D01*
X178935437Y-96846498D01*
X178901623Y-96814562D01*
X178897839Y-96809354D01*
X178770055Y-96667435D01*
X178615552Y-96555182D01*
X178441088Y-96477506D01*
X178254287Y-96437800D01*
X178063313Y-96437800D01*
X177876511Y-96477506D01*
X177702047Y-96555182D01*
X177547544Y-96667435D01*
X177419765Y-96809348D01*
X177419758Y-96809358D01*
X177324276Y-96974738D01*
X177324273Y-96974745D01*
X177265257Y-97156372D01*
X177245296Y-97346300D01*
X177265257Y-97536227D01*
X177295219Y-97628438D01*
X177324273Y-97717856D01*
X177324276Y-97717861D01*
X177419758Y-97883241D01*
X177419765Y-97883251D01*
X177547544Y-98025164D01*
X177604598Y-98066616D01*
X177702048Y-98137418D01*
X177876512Y-98215094D01*
X178063313Y-98254800D01*
X178254287Y-98254800D01*
X178441088Y-98215094D01*
X178599887Y-98144392D01*
X178651133Y-98133500D01*
X183231945Y-98133500D01*
X183300066Y-98153502D01*
X183346559Y-98207158D01*
X183356663Y-98277432D01*
X183336711Y-98329501D01*
X183327825Y-98342798D01*
X183287590Y-98439935D01*
X183273782Y-98473273D01*
X183272124Y-98477273D01*
X183270648Y-98480837D01*
X183241500Y-98627372D01*
X183241500Y-98966938D01*
X183221498Y-99035059D01*
X183167842Y-99081552D01*
X183102185Y-99090992D01*
X183102060Y-99092190D01*
X183095492Y-99091500D01*
X183095487Y-99091500D01*
X182904513Y-99091500D01*
X182717711Y-99131206D01*
X182543247Y-99208882D01*
X182388747Y-99321133D01*
X182385437Y-99324810D01*
X182324991Y-99362050D01*
X182291800Y-99366500D01*
X174609865Y-99366500D01*
X174552043Y-99378002D01*
X174487477Y-99390845D01*
X174487475Y-99390845D01*
X174487474Y-99390846D01*
X174457249Y-99403366D01*
X174388947Y-99431658D01*
X174372185Y-99438601D01*
X174268433Y-99507926D01*
X174268426Y-99507931D01*
X169049501Y-104726857D01*
X168987189Y-104760883D01*
X168960406Y-104763762D01*
X168904513Y-104763762D01*
X168717711Y-104803468D01*
X168543247Y-104881144D01*
X168388744Y-104993397D01*
X168260965Y-105135310D01*
X168260958Y-105135320D01*
X168165476Y-105300700D01*
X168165473Y-105300707D01*
X168106457Y-105482334D01*
X168086496Y-105672262D01*
X168106457Y-105862189D01*
X168131285Y-105938600D01*
X168165473Y-106043818D01*
X168165476Y-106043823D01*
X168260958Y-106209203D01*
X168260965Y-106209213D01*
X168388744Y-106351126D01*
X168413061Y-106368793D01*
X168543248Y-106463380D01*
X168717712Y-106541056D01*
X168904513Y-106580762D01*
X169095487Y-106580762D01*
X169282288Y-106541056D01*
X169456752Y-106463380D01*
X169611253Y-106351128D01*
X169615422Y-106346498D01*
X169739034Y-106209213D01*
X169739035Y-106209211D01*
X169739040Y-106209206D01*
X169834527Y-106043818D01*
X169834531Y-106043805D01*
X169834763Y-106043285D01*
X169834987Y-106043021D01*
X169837829Y-106038099D01*
X169838728Y-106038618D01*
X169880736Y-105989183D01*
X169948661Y-105968524D01*
X170016971Y-105987867D01*
X170063980Y-106041072D01*
X170075085Y-106108624D01*
X170072853Y-106128438D01*
X170069628Y-106157062D01*
X170088261Y-106322434D01*
X170100473Y-106357334D01*
X170143224Y-106479512D01*
X170150215Y-106490638D01*
X170231765Y-106620423D01*
X170231768Y-106620426D01*
X170231768Y-106620427D01*
X170349435Y-106738094D01*
X170349437Y-106738095D01*
X170349440Y-106738098D01*
X170490350Y-106826638D01*
X170647429Y-106881602D01*
X170812801Y-106900235D01*
X170978173Y-106881602D01*
X171135252Y-106826638D01*
X171276162Y-106738098D01*
X171393837Y-106620423D01*
X171468114Y-106502211D01*
X171521291Y-106455175D01*
X171591458Y-106444355D01*
X171656337Y-106473188D01*
X171681487Y-106502213D01*
X171755764Y-106620423D01*
X171755767Y-106620427D01*
X171873434Y-106738094D01*
X171873436Y-106738095D01*
X171873439Y-106738098D01*
X172014349Y-106826638D01*
X172171428Y-106881602D01*
X172336800Y-106900235D01*
X172502172Y-106881602D01*
X172659251Y-106826638D01*
X172800161Y-106738098D01*
X172917836Y-106620423D01*
X172992113Y-106502213D01*
X173045292Y-106455175D01*
X173115459Y-106444355D01*
X173180337Y-106473188D01*
X173205487Y-106502213D01*
X173279764Y-106620423D01*
X173279767Y-106620427D01*
X173397434Y-106738094D01*
X173397436Y-106738095D01*
X173397439Y-106738098D01*
X173538349Y-106826638D01*
X173695428Y-106881602D01*
X173860800Y-106900235D01*
X174026172Y-106881602D01*
X174183251Y-106826638D01*
X174324161Y-106738098D01*
X174441836Y-106620423D01*
X174505149Y-106519662D01*
X174558327Y-106472625D01*
X174628494Y-106461805D01*
X174693372Y-106490638D01*
X174718522Y-106519662D01*
X174803766Y-106655326D01*
X174921434Y-106772994D01*
X174921436Y-106772995D01*
X174921439Y-106772998D01*
X175062349Y-106861538D01*
X175219428Y-106916502D01*
X175384800Y-106935135D01*
X175550172Y-106916502D01*
X175707251Y-106861538D01*
X175848161Y-106772998D01*
X175965836Y-106655323D01*
X176051077Y-106519662D01*
X176104255Y-106472625D01*
X176174423Y-106461805D01*
X176239301Y-106490638D01*
X176264450Y-106519661D01*
X176327764Y-106620424D01*
X176327766Y-106620426D01*
X176327767Y-106620427D01*
X176327767Y-106620428D01*
X176445434Y-106738095D01*
X176445436Y-106738096D01*
X176445439Y-106738099D01*
X176586349Y-106826639D01*
X176743428Y-106881603D01*
X176908800Y-106900236D01*
X177074172Y-106881603D01*
X177231251Y-106826639D01*
X177372161Y-106738099D01*
X177489836Y-106620424D01*
X177553149Y-106519661D01*
X177606326Y-106472625D01*
X177676493Y-106461805D01*
X177741372Y-106490638D01*
X177766522Y-106519662D01*
X177851766Y-106655326D01*
X177969434Y-106772994D01*
X177969436Y-106772995D01*
X177969439Y-106772998D01*
X178110349Y-106861538D01*
X178267428Y-106916502D01*
X178432800Y-106935135D01*
X178598172Y-106916502D01*
X178755251Y-106861538D01*
X178896161Y-106772998D01*
X179013836Y-106655323D01*
X179099077Y-106519662D01*
X179152255Y-106472625D01*
X179222423Y-106461805D01*
X179287301Y-106490638D01*
X179312451Y-106519662D01*
X179375766Y-106620426D01*
X179493434Y-106738094D01*
X179493436Y-106738095D01*
X179493439Y-106738098D01*
X179634349Y-106826638D01*
X179791428Y-106881602D01*
X179956800Y-106900235D01*
X180122172Y-106881602D01*
X180279251Y-106826638D01*
X180420161Y-106738098D01*
X180537836Y-106620423D01*
X180537841Y-106620414D01*
X180540624Y-106616926D01*
X180598733Y-106576136D01*
X180669671Y-106573237D01*
X180730914Y-106609151D01*
X180732774Y-106611172D01*
X180838744Y-106728864D01*
X180851454Y-106738098D01*
X180993248Y-106841118D01*
X181167712Y-106918794D01*
X181354513Y-106958500D01*
X181545487Y-106958500D01*
X181732288Y-106918794D01*
X181906752Y-106841118D01*
X182061253Y-106728866D01*
X182087312Y-106699925D01*
X182189034Y-106586951D01*
X182189035Y-106586949D01*
X182189040Y-106586944D01*
X182284527Y-106421556D01*
X182343542Y-106239928D01*
X182363504Y-106050000D01*
X182343542Y-105860072D01*
X182284527Y-105678444D01*
X182189040Y-105513056D01*
X182189038Y-105513054D01*
X182189034Y-105513048D01*
X182061255Y-105371135D01*
X182061256Y-105371135D01*
X181910439Y-105261560D01*
X181867085Y-105205337D01*
X181858500Y-105159624D01*
X181858500Y-102519229D01*
X181878502Y-102451108D01*
X181885208Y-102442325D01*
X181885157Y-102442288D01*
X181889033Y-102436950D01*
X181889040Y-102436944D01*
X181984527Y-102271556D01*
X182043542Y-102089928D01*
X182055503Y-101976118D01*
X182082516Y-101910463D01*
X182140737Y-101869832D01*
X182211682Y-101867129D01*
X182216727Y-101868584D01*
X182217709Y-101868792D01*
X182217712Y-101868794D01*
X182404513Y-101908500D01*
X182595487Y-101908500D01*
X182782288Y-101868794D01*
X182956752Y-101791118D01*
X183041439Y-101729588D01*
X183108307Y-101705730D01*
X183177458Y-101721811D01*
X183226939Y-101772725D01*
X183241500Y-101831525D01*
X183241500Y-115834706D01*
X183242851Y-115841500D01*
X183247055Y-115862631D01*
X183247055Y-115862632D01*
X183270649Y-115981247D01*
X183270650Y-115981250D01*
X183273727Y-115988679D01*
X183327826Y-116119284D01*
X183410834Y-116243515D01*
X184250834Y-117083515D01*
X184250835Y-117083516D01*
X184356484Y-117189165D01*
X184480716Y-117272174D01*
X184561576Y-117305667D01*
X184618753Y-117329351D01*
X184692022Y-117343924D01*
X184692023Y-117343925D01*
X184706598Y-117346824D01*
X184765294Y-117358500D01*
X184765295Y-117358500D01*
X184914705Y-117358500D01*
X187337413Y-117358500D01*
X187405534Y-117378502D01*
X187411471Y-117382562D01*
X187423248Y-117391118D01*
X187597712Y-117468794D01*
X187784513Y-117508500D01*
X187975487Y-117508500D01*
X188162288Y-117468794D01*
X188336752Y-117391118D01*
X188491253Y-117278866D01*
X188491255Y-117278864D01*
X188619034Y-117136951D01*
X188619035Y-117136949D01*
X188619040Y-117136944D01*
X188714527Y-116971556D01*
X188773542Y-116789928D01*
X188793504Y-116600000D01*
X188773542Y-116410072D01*
X188714527Y-116228444D01*
X188619040Y-116063056D01*
X188619038Y-116063054D01*
X188619034Y-116063048D01*
X188491255Y-115921135D01*
X188336752Y-115808882D01*
X188162288Y-115731206D01*
X187975487Y-115691500D01*
X187784513Y-115691500D01*
X187597711Y-115731206D01*
X187423245Y-115808883D01*
X187411476Y-115817435D01*
X187344609Y-115841294D01*
X187337413Y-115841500D01*
X185206371Y-115841500D01*
X185138250Y-115821498D01*
X185117276Y-115804595D01*
X184795405Y-115482724D01*
X184761379Y-115420412D01*
X184758500Y-115393629D01*
X184758500Y-114000000D01*
X187586496Y-114000000D01*
X187606457Y-114189927D01*
X187636526Y-114282470D01*
X187665473Y-114371556D01*
X187665476Y-114371561D01*
X187760958Y-114536941D01*
X187760965Y-114536951D01*
X187888744Y-114678864D01*
X187888747Y-114678866D01*
X188043248Y-114791118D01*
X188217712Y-114868794D01*
X188404513Y-114908500D01*
X188595487Y-114908500D01*
X188782288Y-114868794D01*
X188956752Y-114791118D01*
X189111253Y-114678866D01*
X189111255Y-114678864D01*
X189239034Y-114536951D01*
X189239035Y-114536949D01*
X189239040Y-114536944D01*
X189334527Y-114371556D01*
X189393542Y-114189928D01*
X189413504Y-114000000D01*
X189393542Y-113810072D01*
X189334527Y-113628444D01*
X189266998Y-113511481D01*
X189239042Y-113463059D01*
X189239041Y-113463058D01*
X189239040Y-113463056D01*
X189165863Y-113381784D01*
X189135146Y-113317776D01*
X189133500Y-113297474D01*
X189133500Y-111314594D01*
X189153502Y-111246473D01*
X189170405Y-111225499D01*
X190045195Y-110350709D01*
X190992071Y-109403833D01*
X191061400Y-109300075D01*
X191109155Y-109184785D01*
X191133500Y-109062394D01*
X191133500Y-108937606D01*
X191133500Y-103006491D01*
X191153502Y-102938370D01*
X191207158Y-102891877D01*
X191277432Y-102881773D01*
X191285698Y-102883245D01*
X191404509Y-102908500D01*
X191404513Y-102908500D01*
X191595487Y-102908500D01*
X191782288Y-102868794D01*
X191956752Y-102791118D01*
X192111253Y-102678866D01*
X192111255Y-102678864D01*
X192239034Y-102536951D01*
X192239035Y-102536949D01*
X192239040Y-102536944D01*
X192334527Y-102371556D01*
X192393542Y-102189928D01*
X192410907Y-102024703D01*
X192437920Y-101959048D01*
X192447104Y-101948798D01*
X193992071Y-100403833D01*
X194061400Y-100300075D01*
X194109155Y-100184785D01*
X194133500Y-100062394D01*
X194133500Y-99937606D01*
X194133500Y-90937606D01*
X194133500Y-89937606D01*
X194109155Y-89815215D01*
X194109152Y-89815208D01*
X194109151Y-89815204D01*
X194097091Y-89786089D01*
X194097090Y-89786087D01*
X194061402Y-89699927D01*
X194061401Y-89699925D01*
X193992072Y-89596167D01*
X193892907Y-89497002D01*
X193403833Y-89007929D01*
X193300075Y-88938600D01*
X193184785Y-88890845D01*
X193111086Y-88876185D01*
X193062396Y-88866500D01*
X193062394Y-88866500D01*
X192503421Y-88866500D01*
X192435300Y-88846498D01*
X192388807Y-88792842D01*
X192383588Y-88779437D01*
X192381923Y-88774312D01*
X192334527Y-88628444D01*
X192239040Y-88463056D01*
X192239038Y-88463054D01*
X192239034Y-88463048D01*
X192111255Y-88321135D01*
X191956752Y-88208882D01*
X191782288Y-88131206D01*
X191595482Y-88091498D01*
X191588925Y-88090810D01*
X191589167Y-88088505D01*
X191531245Y-88071498D01*
X191484752Y-88017842D01*
X191474648Y-87947568D01*
X191504142Y-87882988D01*
X191548116Y-87850393D01*
X191681252Y-87791118D01*
X191835753Y-87678866D01*
X191836133Y-87678444D01*
X191963534Y-87536951D01*
X191963535Y-87536949D01*
X191963540Y-87536944D01*
X192059027Y-87371556D01*
X192118042Y-87189928D01*
X192138004Y-87000000D01*
X192118042Y-86810072D01*
X192059027Y-86628444D01*
X191963540Y-86463056D01*
X191963538Y-86463054D01*
X191963534Y-86463048D01*
X191835755Y-86321135D01*
X191681252Y-86208882D01*
X191506788Y-86131206D01*
X191319987Y-86091500D01*
X191129013Y-86091500D01*
X190942211Y-86131206D01*
X190810749Y-86189737D01*
X190740382Y-86199171D01*
X190676085Y-86169065D01*
X190638271Y-86108976D01*
X190633500Y-86074630D01*
X190633500Y-83314595D01*
X190653502Y-83246474D01*
X190670405Y-83225499D01*
X190950501Y-82945404D01*
X191012813Y-82911379D01*
X191039596Y-82908500D01*
X191095487Y-82908500D01*
X191282288Y-82868794D01*
X191456752Y-82791118D01*
X191611253Y-82678866D01*
X191685714Y-82596169D01*
X191739034Y-82536951D01*
X191739035Y-82536949D01*
X191739040Y-82536944D01*
X191834527Y-82371556D01*
X191893542Y-82189928D01*
X191913504Y-82000000D01*
X191893542Y-81810072D01*
X191834527Y-81628444D01*
X191739040Y-81463056D01*
X191739038Y-81463054D01*
X191739034Y-81463048D01*
X191611255Y-81321135D01*
X191456752Y-81208882D01*
X191282288Y-81131206D01*
X191095487Y-81091500D01*
X190904513Y-81091500D01*
X190717711Y-81131206D01*
X190543247Y-81208882D01*
X190388744Y-81321135D01*
X190260965Y-81463048D01*
X190260958Y-81463058D01*
X190165476Y-81628438D01*
X190165473Y-81628444D01*
X190157331Y-81653502D01*
X190106457Y-81810072D01*
X190089093Y-81975290D01*
X190062080Y-82040947D01*
X190052879Y-82051215D01*
X189596167Y-82507929D01*
X189507927Y-82596169D01*
X189507926Y-82596171D01*
X189452673Y-82678864D01*
X189438600Y-82699925D01*
X189428260Y-82724887D01*
X189390846Y-82815212D01*
X189366500Y-82937603D01*
X189366500Y-82937606D01*
X189366500Y-89912301D01*
X189366500Y-90037089D01*
X189390845Y-90159480D01*
X189438600Y-90274770D01*
X189507929Y-90378528D01*
X189507931Y-90378530D01*
X190540306Y-91410905D01*
X190574332Y-91473217D01*
X190569267Y-91544032D01*
X190540306Y-91589095D01*
X190007931Y-92121469D01*
X190007926Y-92121476D01*
X189938601Y-92225228D01*
X189894529Y-92331627D01*
X189890845Y-92340520D01*
X189884672Y-92371554D01*
X189866500Y-92462908D01*
X189866500Y-108685406D01*
X189846498Y-108753527D01*
X189829595Y-108774501D01*
X188007931Y-110596164D01*
X188007926Y-110596171D01*
X187938601Y-110699923D01*
X187890846Y-110815212D01*
X187866500Y-110937603D01*
X187866500Y-113297474D01*
X187846498Y-113365595D01*
X187834137Y-113381784D01*
X187760957Y-113463059D01*
X187665476Y-113628438D01*
X187665473Y-113628444D01*
X187653595Y-113665000D01*
X187606457Y-113810072D01*
X187586496Y-114000000D01*
X184758500Y-114000000D01*
X184758500Y-105533060D01*
X184778502Y-105464939D01*
X184832158Y-105418446D01*
X184897825Y-105409004D01*
X184897951Y-105407810D01*
X184904513Y-105408500D01*
X185095487Y-105408500D01*
X185282288Y-105368794D01*
X185456752Y-105291118D01*
X185611253Y-105178866D01*
X185614563Y-105175190D01*
X185675009Y-105137950D01*
X185708200Y-105133500D01*
X186291800Y-105133500D01*
X186359921Y-105153502D01*
X186385437Y-105175190D01*
X186388747Y-105178866D01*
X186543248Y-105291118D01*
X186717712Y-105368794D01*
X186904513Y-105408500D01*
X187095487Y-105408500D01*
X187282288Y-105368794D01*
X187456752Y-105291118D01*
X187611253Y-105178866D01*
X187677394Y-105105409D01*
X187739034Y-105036951D01*
X187739035Y-105036949D01*
X187739040Y-105036944D01*
X187834527Y-104871556D01*
X187893542Y-104689928D01*
X187913504Y-104500000D01*
X187893542Y-104310072D01*
X187834527Y-104128444D01*
X187739040Y-103963056D01*
X187623116Y-103834309D01*
X187592400Y-103770303D01*
X187601164Y-103699849D01*
X187623115Y-103665691D01*
X187739040Y-103536944D01*
X187834527Y-103371556D01*
X187893542Y-103189928D01*
X187913504Y-103000000D01*
X187893542Y-102810072D01*
X187834527Y-102628444D01*
X187796742Y-102563000D01*
X187780005Y-102494005D01*
X187796743Y-102436999D01*
X187796775Y-102436944D01*
X187834527Y-102371556D01*
X187893542Y-102189928D01*
X187913504Y-102000000D01*
X187893542Y-101810072D01*
X187834527Y-101628444D01*
X187796742Y-101563000D01*
X187780005Y-101494005D01*
X187796743Y-101436999D01*
X187834527Y-101371556D01*
X187893542Y-101189928D01*
X187913504Y-101000000D01*
X187893542Y-100810072D01*
X187834527Y-100628444D01*
X187739040Y-100463056D01*
X187739038Y-100463054D01*
X187739034Y-100463048D01*
X187611255Y-100321135D01*
X187456752Y-100208882D01*
X187282288Y-100131206D01*
X187095487Y-100091500D01*
X186904513Y-100091500D01*
X186717711Y-100131206D01*
X186543247Y-100208882D01*
X186388747Y-100321133D01*
X186385437Y-100324810D01*
X186324991Y-100362050D01*
X186291800Y-100366500D01*
X186009595Y-100366500D01*
X185941474Y-100346498D01*
X185894981Y-100292842D01*
X185884877Y-100222568D01*
X185889761Y-100201565D01*
X185890919Y-100198000D01*
X185893542Y-100189928D01*
X185913504Y-100000000D01*
X185913504Y-99999998D01*
X185913504Y-99999234D01*
X185913629Y-99998807D01*
X185914194Y-99993433D01*
X185915176Y-99993536D01*
X185933506Y-99931113D01*
X185950409Y-99910139D01*
X188986915Y-96873634D01*
X188986915Y-96873633D01*
X188986921Y-96873628D01*
X189023615Y-96810072D01*
X189067032Y-96734872D01*
X189108500Y-96580111D01*
X189108500Y-88419889D01*
X189108500Y-75304239D01*
X189128502Y-75236118D01*
X189145405Y-75215144D01*
X190915144Y-73445405D01*
X190977456Y-73411379D01*
X191004239Y-73408500D01*
X191095487Y-73408500D01*
X191282288Y-73368794D01*
X191456752Y-73291118D01*
X191611253Y-73178866D01*
X191739040Y-73036944D01*
X191834527Y-72871556D01*
X191893542Y-72689928D01*
X191913504Y-72500000D01*
X191893542Y-72310072D01*
X191834527Y-72128444D01*
X191739040Y-71963056D01*
X191739038Y-71963054D01*
X191739034Y-71963048D01*
X191611255Y-71821135D01*
X191456752Y-71708882D01*
X191282288Y-71631206D01*
X191095487Y-71591500D01*
X190904513Y-71591500D01*
X190717711Y-71631206D01*
X190543247Y-71708882D01*
X190388744Y-71821135D01*
X190260965Y-71963048D01*
X190260958Y-71963058D01*
X190165476Y-72128438D01*
X190165473Y-72128445D01*
X190106457Y-72310072D01*
X190086496Y-72500000D01*
X190086496Y-72500764D01*
X190086371Y-72501189D01*
X190085806Y-72506566D01*
X190084822Y-72506462D01*
X190066494Y-72568885D01*
X190049591Y-72589859D01*
X188013083Y-74626366D01*
X188013075Y-74626376D01*
X187932967Y-74765127D01*
X187932968Y-74765128D01*
X187891500Y-74919890D01*
X187891500Y-89998822D01*
X187871498Y-90066943D01*
X187817842Y-90113436D01*
X187747568Y-90123540D01*
X187739303Y-90122069D01*
X187595487Y-90091500D01*
X187404513Y-90091500D01*
X187285697Y-90116755D01*
X187214906Y-90111353D01*
X187158274Y-90068536D01*
X187133780Y-90001898D01*
X187133500Y-89993508D01*
X187133500Y-82702524D01*
X187153502Y-82634403D01*
X187165858Y-82618220D01*
X187239040Y-82536944D01*
X187334527Y-82371556D01*
X187393542Y-82189928D01*
X187413504Y-82000000D01*
X187393542Y-81810072D01*
X187334527Y-81628444D01*
X187239040Y-81463056D01*
X187239038Y-81463054D01*
X187239034Y-81463048D01*
X187111255Y-81321135D01*
X186956752Y-81208882D01*
X186782283Y-81131203D01*
X186776008Y-81129165D01*
X186776638Y-81127224D01*
X186722659Y-81098071D01*
X186688347Y-81035916D01*
X186686033Y-81021736D01*
X186684006Y-81002453D01*
X186669042Y-80860072D01*
X186610027Y-80678444D01*
X186514540Y-80513056D01*
X186514538Y-80513054D01*
X186514534Y-80513048D01*
X186386755Y-80371135D01*
X186232252Y-80258882D01*
X186057788Y-80181206D01*
X185870987Y-80141500D01*
X185680013Y-80141500D01*
X185493211Y-80181206D01*
X185318747Y-80258882D01*
X185164244Y-80371135D01*
X185036465Y-80513048D01*
X185036456Y-80513062D01*
X184986301Y-80599931D01*
X184934918Y-80648924D01*
X184865205Y-80662359D01*
X184799294Y-80635972D01*
X184768064Y-80599930D01*
X184744378Y-80558905D01*
X184689040Y-80463056D01*
X184689038Y-80463054D01*
X184689034Y-80463048D01*
X184561255Y-80321135D01*
X184406752Y-80208882D01*
X184232288Y-80131206D01*
X184045487Y-80091500D01*
X183854513Y-80091500D01*
X183667711Y-80131206D01*
X183493247Y-80208882D01*
X183338747Y-80321133D01*
X183335437Y-80324810D01*
X183274991Y-80362050D01*
X183241800Y-80366500D01*
X177014595Y-80366500D01*
X176946474Y-80346498D01*
X176925500Y-80329595D01*
X174703835Y-78107931D01*
X174703833Y-78107929D01*
X174600075Y-78038600D01*
X174484785Y-77990845D01*
X174411086Y-77976185D01*
X174362396Y-77966500D01*
X174362394Y-77966500D01*
X169708200Y-77966500D01*
X169640079Y-77946498D01*
X169614563Y-77924810D01*
X169611252Y-77921133D01*
X169456752Y-77808882D01*
X169282288Y-77731206D01*
X169095487Y-77691500D01*
X168904513Y-77691500D01*
X168717711Y-77731206D01*
X168543247Y-77808882D01*
X168388744Y-77921135D01*
X168260965Y-78063048D01*
X168260958Y-78063058D01*
X168165476Y-78228438D01*
X168165473Y-78228445D01*
X168106457Y-78410072D01*
X168086496Y-78599999D01*
X168099879Y-78727330D01*
X168087107Y-78797168D01*
X168038605Y-78849015D01*
X167974569Y-78866500D01*
X167643849Y-78866500D01*
X167575728Y-78846498D01*
X167567674Y-78840348D01*
X167567593Y-78840460D01*
X167407750Y-78724327D01*
X167233286Y-78646651D01*
X167046485Y-78606945D01*
X166855511Y-78606945D01*
X166855509Y-78606945D01*
X166801422Y-78618441D01*
X166730631Y-78613038D01*
X166673999Y-78570221D01*
X166649506Y-78503583D01*
X166649226Y-78495194D01*
X166649226Y-61780000D01*
X172044004Y-61780000D01*
X172063973Y-62135595D01*
X172123631Y-62486719D01*
X172222231Y-62828969D01*
X172358521Y-63158002D01*
X172358526Y-63158013D01*
X172358533Y-63158025D01*
X172530800Y-63469721D01*
X172530804Y-63469728D01*
X172736900Y-63760194D01*
X172736901Y-63760195D01*
X172736906Y-63760201D01*
X172974232Y-64025768D01*
X173239799Y-64263094D01*
X173239804Y-64263097D01*
X173239805Y-64263099D01*
X173530271Y-64469195D01*
X173530278Y-64469199D01*
X173561917Y-64486685D01*
X173841987Y-64641474D01*
X174171035Y-64777770D01*
X174513274Y-64876367D01*
X174864401Y-64936026D01*
X175220000Y-64955996D01*
X175575599Y-64936026D01*
X175926726Y-64876367D01*
X176268965Y-64777770D01*
X176598013Y-64641474D01*
X176909732Y-64469193D01*
X177200201Y-64263094D01*
X177465768Y-64025768D01*
X177703094Y-63760201D01*
X177909193Y-63469732D01*
X178081474Y-63158013D01*
X178217770Y-62828965D01*
X178316367Y-62486726D01*
X178376026Y-62135599D01*
X178395996Y-61780000D01*
X189514004Y-61780000D01*
X189533973Y-62135595D01*
X189593631Y-62486719D01*
X189692231Y-62828969D01*
X189828521Y-63158002D01*
X189828526Y-63158013D01*
X189828533Y-63158025D01*
X190000800Y-63469721D01*
X190000804Y-63469728D01*
X190206900Y-63760194D01*
X190206901Y-63760195D01*
X190206906Y-63760201D01*
X190444232Y-64025768D01*
X190709799Y-64263094D01*
X190709804Y-64263097D01*
X190709805Y-64263099D01*
X191000271Y-64469195D01*
X191000278Y-64469199D01*
X191031917Y-64486685D01*
X191311987Y-64641474D01*
X191641035Y-64777770D01*
X191983274Y-64876367D01*
X192334401Y-64936026D01*
X192690000Y-64955996D01*
X193045599Y-64936026D01*
X193396726Y-64876367D01*
X193738965Y-64777770D01*
X194068013Y-64641474D01*
X194379732Y-64469193D01*
X194670201Y-64263094D01*
X194935768Y-64025768D01*
X195173094Y-63760201D01*
X195379193Y-63469732D01*
X195551474Y-63158013D01*
X195687770Y-62828965D01*
X195786367Y-62486726D01*
X195846026Y-62135599D01*
X195865996Y-61780000D01*
X195846026Y-61424401D01*
X195786367Y-61073274D01*
X195687770Y-60731035D01*
X195551474Y-60401987D01*
X195442470Y-60204760D01*
X195379199Y-60090278D01*
X195379195Y-60090271D01*
X195173099Y-59799805D01*
X195173097Y-59799804D01*
X195173094Y-59799799D01*
X194935768Y-59534232D01*
X194670201Y-59296906D01*
X194670195Y-59296901D01*
X194670194Y-59296900D01*
X194379728Y-59090804D01*
X194379721Y-59090800D01*
X194105588Y-58939293D01*
X194068013Y-58918526D01*
X194068006Y-58918523D01*
X194068002Y-58918521D01*
X193738969Y-58782231D01*
X193396719Y-58683631D01*
X193045595Y-58623973D01*
X192690000Y-58604004D01*
X192334404Y-58623973D01*
X191983280Y-58683631D01*
X191641030Y-58782231D01*
X191311997Y-58918521D01*
X191311974Y-58918533D01*
X191000278Y-59090800D01*
X191000271Y-59090804D01*
X190709805Y-59296900D01*
X190709802Y-59296903D01*
X190709799Y-59296906D01*
X190444232Y-59534232D01*
X190206906Y-59799799D01*
X190206903Y-59799802D01*
X190206903Y-59799803D01*
X190206900Y-59799805D01*
X190000804Y-60090271D01*
X190000800Y-60090278D01*
X189828533Y-60401974D01*
X189828521Y-60401997D01*
X189692231Y-60731030D01*
X189593631Y-61073280D01*
X189533973Y-61424404D01*
X189514004Y-61780000D01*
X178395996Y-61780000D01*
X178376026Y-61424401D01*
X178316367Y-61073274D01*
X178217770Y-60731035D01*
X178081474Y-60401987D01*
X177972470Y-60204760D01*
X177909199Y-60090278D01*
X177909195Y-60090271D01*
X177703099Y-59799805D01*
X177703097Y-59799804D01*
X177703094Y-59799799D01*
X177465768Y-59534232D01*
X177200201Y-59296906D01*
X177200195Y-59296901D01*
X177200194Y-59296900D01*
X176909728Y-59090804D01*
X176909721Y-59090800D01*
X176635588Y-58939293D01*
X176598013Y-58918526D01*
X176598006Y-58918523D01*
X176598002Y-58918521D01*
X176268969Y-58782231D01*
X175926719Y-58683631D01*
X175575595Y-58623973D01*
X175220000Y-58604004D01*
X174864404Y-58623973D01*
X174513280Y-58683631D01*
X174171030Y-58782231D01*
X173841997Y-58918521D01*
X173841974Y-58918533D01*
X173530278Y-59090800D01*
X173530271Y-59090804D01*
X173239805Y-59296900D01*
X173239802Y-59296903D01*
X173239799Y-59296906D01*
X172974232Y-59534232D01*
X172736906Y-59799799D01*
X172736903Y-59799802D01*
X172736903Y-59799803D01*
X172736900Y-59799805D01*
X172530804Y-60090271D01*
X172530800Y-60090278D01*
X172358533Y-60401974D01*
X172358521Y-60401997D01*
X172222231Y-60731030D01*
X172123631Y-61073280D01*
X172063973Y-61424404D01*
X172044004Y-61780000D01*
X166649226Y-61780000D01*
X166649226Y-54486305D01*
X166669228Y-54418184D01*
X166686131Y-54397210D01*
X166722761Y-54360580D01*
X166810619Y-54272722D01*
X166810620Y-54272721D01*
X167509045Y-53574295D01*
X167571353Y-53540274D01*
X167642168Y-53545338D01*
X167699004Y-53587885D01*
X167723815Y-53654405D01*
X167716192Y-53707426D01*
X167673010Y-53823199D01*
X167673009Y-53823203D01*
X167666500Y-53883750D01*
X167666500Y-55681049D01*
X167673009Y-55741596D01*
X167673011Y-55741604D01*
X167724110Y-55878602D01*
X167724112Y-55878607D01*
X167811738Y-55995661D01*
X167928791Y-56083286D01*
X167928792Y-56083286D01*
X167928796Y-56083289D01*
X168043810Y-56126187D01*
X168100642Y-56168732D01*
X168125453Y-56235252D01*
X168110362Y-56304626D01*
X168092475Y-56329579D01*
X167949280Y-56485129D01*
X167949275Y-56485134D01*
X167826141Y-56673606D01*
X167735703Y-56879786D01*
X167735702Y-56879787D01*
X167680437Y-57098024D01*
X167661844Y-57322400D01*
X167680437Y-57546775D01*
X167735702Y-57765012D01*
X167735703Y-57765013D01*
X167735704Y-57765016D01*
X167813596Y-57942594D01*
X167826141Y-57971193D01*
X167949275Y-58159665D01*
X167949279Y-58159670D01*
X168101762Y-58325308D01*
X168152008Y-58364416D01*
X168279424Y-58463589D01*
X168477426Y-58570742D01*
X168477427Y-58570742D01*
X168477428Y-58570743D01*
X168559750Y-58599004D01*
X168690365Y-58643844D01*
X168912431Y-58680900D01*
X168912435Y-58680900D01*
X169137565Y-58680900D01*
X169137569Y-58680900D01*
X169359635Y-58643844D01*
X169572574Y-58570742D01*
X169770576Y-58463589D01*
X169948240Y-58325306D01*
X170100722Y-58159668D01*
X170223860Y-57971191D01*
X170314296Y-57765016D01*
X170369564Y-57546768D01*
X170388156Y-57322400D01*
X170369564Y-57098032D01*
X170314296Y-56879784D01*
X170223860Y-56673609D01*
X170174619Y-56598240D01*
X170100724Y-56485134D01*
X170100719Y-56485129D01*
X169957524Y-56329579D01*
X169926103Y-56265914D01*
X169934090Y-56195368D01*
X169978948Y-56140339D01*
X170006183Y-56126189D01*
X170121204Y-56083289D01*
X170238261Y-55995661D01*
X170282202Y-55936963D01*
X170325887Y-55878607D01*
X170325887Y-55878606D01*
X170325889Y-55878604D01*
X170376989Y-55741601D01*
X170379571Y-55717592D01*
X170383499Y-55681049D01*
X170383500Y-55681032D01*
X170383500Y-55250000D01*
X171486835Y-55250000D01*
X171505338Y-55485103D01*
X171505465Y-55486710D01*
X171560894Y-55717592D01*
X171582103Y-55768794D01*
X171651760Y-55936963D01*
X171772743Y-56134389D01*
X171775825Y-56139417D01*
X171775826Y-56139419D01*
X171930030Y-56319969D01*
X172110580Y-56474173D01*
X172110584Y-56474176D01*
X172313037Y-56598240D01*
X172532406Y-56689105D01*
X172763289Y-56744535D01*
X173000000Y-56763165D01*
X173236711Y-56744535D01*
X173467594Y-56689105D01*
X173686963Y-56598240D01*
X173889416Y-56474176D01*
X174069969Y-56319969D01*
X174224176Y-56139416D01*
X174348240Y-55936963D01*
X174439105Y-55717594D01*
X174494535Y-55486711D01*
X174513165Y-55250000D01*
X174494535Y-55013289D01*
X174439105Y-54782406D01*
X174348240Y-54563037D01*
X174224176Y-54360584D01*
X174183585Y-54313058D01*
X174069969Y-54180030D01*
X173889419Y-54025826D01*
X173889417Y-54025825D01*
X173889416Y-54025824D01*
X173686963Y-53901760D01*
X173608028Y-53869064D01*
X173467592Y-53810894D01*
X173309651Y-53772976D01*
X173236711Y-53755465D01*
X173000000Y-53736835D01*
X172763289Y-53755465D01*
X172532407Y-53810894D01*
X172313038Y-53901759D01*
X172110582Y-54025825D01*
X172110580Y-54025826D01*
X171930030Y-54180030D01*
X171775826Y-54360580D01*
X171775825Y-54360582D01*
X171651759Y-54563038D01*
X171560894Y-54782407D01*
X171525733Y-54928866D01*
X171505465Y-55013289D01*
X171486835Y-55250000D01*
X170383500Y-55250000D01*
X170383500Y-53883767D01*
X170383499Y-53883750D01*
X170376990Y-53823203D01*
X170376988Y-53823195D01*
X170333807Y-53707426D01*
X170325889Y-53686196D01*
X170325888Y-53686194D01*
X170325887Y-53686192D01*
X170238261Y-53569138D01*
X170121207Y-53481512D01*
X170121202Y-53481510D01*
X169984204Y-53430411D01*
X169984196Y-53430409D01*
X169923649Y-53423900D01*
X169923638Y-53423900D01*
X168126362Y-53423900D01*
X168126350Y-53423900D01*
X168065803Y-53430409D01*
X168065802Y-53430410D01*
X168065799Y-53430410D01*
X168065799Y-53430411D01*
X167950027Y-53473592D01*
X167879212Y-53478657D01*
X167816900Y-53444632D01*
X167782875Y-53382319D01*
X167787939Y-53311504D01*
X167816896Y-53266445D01*
X168037939Y-53045402D01*
X168100249Y-53011379D01*
X168127032Y-53008500D01*
X182322969Y-53008500D01*
X182391090Y-53028502D01*
X182412059Y-53045400D01*
X183807278Y-54440620D01*
X183999373Y-54580185D01*
X184210937Y-54687982D01*
X184436759Y-54761356D01*
X184671278Y-54798500D01*
X184671281Y-54798500D01*
X184908719Y-54798500D01*
X184908722Y-54798500D01*
X185143241Y-54761356D01*
X185369063Y-54687982D01*
X185580627Y-54580185D01*
X185772721Y-54440620D01*
X185940620Y-54272721D01*
X186080185Y-54080627D01*
X186187982Y-53869063D01*
X186261356Y-53643241D01*
X186298500Y-53408722D01*
X186298500Y-53171278D01*
X186261356Y-52936759D01*
X186187982Y-52710937D01*
X186080185Y-52499373D01*
X185940620Y-52307278D01*
X184155020Y-50521679D01*
X184155001Y-50521658D01*
X183982727Y-50349384D01*
X183982724Y-50349382D01*
X183982722Y-50349380D01*
X183790627Y-50209815D01*
X183579063Y-50102018D01*
X183579060Y-50102017D01*
X183579058Y-50102016D01*
X183420301Y-50050433D01*
X183361695Y-50010359D01*
X183334058Y-49944963D01*
X183346165Y-49875006D01*
X183394171Y-49822700D01*
X183459237Y-49804600D01*
X198173500Y-49804600D01*
X198241621Y-49824602D01*
X198288114Y-49878258D01*
X198299500Y-49930600D01*
X198299500Y-61851775D01*
X198280759Y-61917892D01*
X195849369Y-65862265D01*
X195831214Y-65885235D01*
X195830025Y-65886423D01*
X195830023Y-65886426D01*
X195824755Y-65899143D01*
X195815615Y-65917022D01*
X195808395Y-65928736D01*
X195808393Y-65928741D01*
X195808125Y-65930407D01*
X195800145Y-65958558D01*
X195799500Y-65960115D01*
X195799500Y-65973868D01*
X195797897Y-65993903D01*
X195795708Y-66007489D01*
X195796094Y-66009113D01*
X195799500Y-66038209D01*
X195799500Y-113454273D01*
X195797172Y-113470891D01*
X195797274Y-113470900D01*
X195796258Y-113483267D01*
X195798676Y-113504309D01*
X195799500Y-113518693D01*
X195799500Y-113539882D01*
X195801783Y-113551363D01*
X195805363Y-113562510D01*
X195815651Y-113581028D01*
X195821914Y-113593996D01*
X195830024Y-113613575D01*
X195836918Y-113623892D01*
X195836833Y-113623948D01*
X195846938Y-113637344D01*
X197598374Y-116789927D01*
X198254699Y-117971313D01*
X198283644Y-118023413D01*
X198299500Y-118084604D01*
X198299500Y-128230273D01*
X198279498Y-128298394D01*
X198225842Y-128344887D01*
X198173642Y-128356273D01*
X148284215Y-128412581D01*
X148216072Y-128392656D01*
X148169519Y-128339053D01*
X148158763Y-128299750D01*
X148153542Y-128250072D01*
X148094527Y-128068444D01*
X147999040Y-127903056D01*
X147999038Y-127903054D01*
X147999034Y-127903048D01*
X147871255Y-127761135D01*
X147716752Y-127648882D01*
X147542288Y-127571206D01*
X147355487Y-127531500D01*
X147164513Y-127531500D01*
X146977711Y-127571206D01*
X146803247Y-127648882D01*
X146648744Y-127761135D01*
X146520965Y-127903048D01*
X146520958Y-127903058D01*
X146425476Y-128068438D01*
X146425473Y-128068445D01*
X146366457Y-128250071D01*
X146361549Y-128296770D01*
X146334535Y-128362426D01*
X146325334Y-128372692D01*
X146320033Y-128377993D01*
X146257721Y-128412019D01*
X146231080Y-128414898D01*
X110826642Y-128454858D01*
X110758499Y-128434933D01*
X110711946Y-128381330D01*
X110700500Y-128328858D01*
X110700500Y-118086706D01*
X110717101Y-118024193D01*
X110737487Y-117988518D01*
X111316640Y-116975000D01*
X113870096Y-116975000D01*
X113889693Y-117311473D01*
X113889693Y-117311479D01*
X113903735Y-117391116D01*
X113948223Y-117643418D01*
X114044891Y-117966313D01*
X114044893Y-117966319D01*
X114044894Y-117966320D01*
X114173193Y-118263750D01*
X114178392Y-118275801D01*
X114346919Y-118567699D01*
X114346928Y-118567711D01*
X114346930Y-118567714D01*
X114548194Y-118838059D01*
X114770871Y-119074083D01*
X114779494Y-119083223D01*
X115037693Y-119299877D01*
X115319298Y-119485091D01*
X115620501Y-119636361D01*
X115767674Y-119689928D01*
X115937222Y-119751639D01*
X115937223Y-119751639D01*
X115937228Y-119751641D01*
X116265197Y-119829371D01*
X116456497Y-119851730D01*
X116599970Y-119868500D01*
X116599973Y-119868500D01*
X116937030Y-119868500D01*
X117062568Y-119853826D01*
X117271803Y-119829371D01*
X117599772Y-119751641D01*
X117916499Y-119636361D01*
X118217702Y-119485091D01*
X118499307Y-119299877D01*
X118757506Y-119083223D01*
X118988806Y-118838058D01*
X119190081Y-118567699D01*
X119358608Y-118275801D01*
X119492109Y-117966313D01*
X119588777Y-117643418D01*
X119647306Y-117311484D01*
X119666904Y-116975000D01*
X119647306Y-116638516D01*
X119588777Y-116306582D01*
X119492109Y-115983687D01*
X119358608Y-115674199D01*
X119190081Y-115382301D01*
X119038628Y-115178864D01*
X118988805Y-115111940D01*
X118757509Y-114866780D01*
X118757508Y-114866779D01*
X118757506Y-114866777D01*
X118499307Y-114650123D01*
X118217702Y-114464909D01*
X117916499Y-114313639D01*
X117916498Y-114313638D01*
X117916497Y-114313638D01*
X117599777Y-114198360D01*
X117271804Y-114120629D01*
X117271798Y-114120628D01*
X116937030Y-114081500D01*
X116937027Y-114081500D01*
X116599973Y-114081500D01*
X116599970Y-114081500D01*
X116265201Y-114120628D01*
X116265195Y-114120629D01*
X115937222Y-114198360D01*
X115620502Y-114313638D01*
X115319296Y-114464910D01*
X115037691Y-114650124D01*
X114779496Y-114866775D01*
X114779490Y-114866780D01*
X114548194Y-115111940D01*
X114346930Y-115382285D01*
X114346912Y-115382312D01*
X114178395Y-115674193D01*
X114178386Y-115674211D01*
X114045942Y-115981250D01*
X114044891Y-115983687D01*
X114004296Y-116119284D01*
X113948223Y-116306581D01*
X113889693Y-116638520D01*
X113889693Y-116638526D01*
X113870096Y-116975000D01*
X111316640Y-116975000D01*
X112652387Y-114637441D01*
X112665489Y-114620288D01*
X112669975Y-114613575D01*
X112669975Y-114613574D01*
X112669976Y-114613574D01*
X112677330Y-114595817D01*
X112684336Y-114581530D01*
X112693870Y-114564848D01*
X112693870Y-114564846D01*
X112696439Y-114557165D01*
X112698917Y-114547834D01*
X112700500Y-114539880D01*
X112700500Y-114520671D01*
X112701506Y-114504780D01*
X112702114Y-114500000D01*
X112703929Y-114485722D01*
X112703928Y-114485720D01*
X112703929Y-114485718D01*
X112703367Y-114477685D01*
X112700500Y-114456275D01*
X112700500Y-62032329D01*
X112702947Y-62007618D01*
X112704428Y-62000213D01*
X112702895Y-61992468D01*
X112700500Y-61968015D01*
X112700500Y-61960117D01*
X112697609Y-61953138D01*
X112690413Y-61929372D01*
X112688948Y-61921966D01*
X112688947Y-61921964D01*
X112688946Y-61921962D01*
X112684571Y-61915400D01*
X112672999Y-61893726D01*
X112669976Y-61886426D01*
X112669974Y-61886424D01*
X112669973Y-61886422D01*
X112664634Y-61881083D01*
X112648891Y-61861880D01*
X112590971Y-61775000D01*
X131122504Y-61775000D01*
X131142473Y-62130595D01*
X131202131Y-62481719D01*
X131300731Y-62823969D01*
X131437021Y-63153002D01*
X131437026Y-63153013D01*
X131439796Y-63158025D01*
X131609300Y-63464721D01*
X131609304Y-63464728D01*
X131815400Y-63755194D01*
X131815401Y-63755195D01*
X131815406Y-63755201D01*
X132052732Y-64020768D01*
X132318299Y-64258094D01*
X132318304Y-64258097D01*
X132318305Y-64258099D01*
X132608771Y-64464195D01*
X132608778Y-64464199D01*
X132723260Y-64527470D01*
X132920487Y-64636474D01*
X133249535Y-64772770D01*
X133591774Y-64871367D01*
X133942901Y-64931026D01*
X134298500Y-64950996D01*
X134654099Y-64931026D01*
X135005226Y-64871367D01*
X135347465Y-64772770D01*
X135676513Y-64636474D01*
X135988232Y-64464193D01*
X136278701Y-64258094D01*
X136544268Y-64020768D01*
X136781594Y-63755201D01*
X136987693Y-63464732D01*
X137159974Y-63153013D01*
X137296270Y-62823965D01*
X137394867Y-62481726D01*
X137454526Y-62130599D01*
X137474496Y-61775000D01*
X137454526Y-61419401D01*
X137394867Y-61068274D01*
X137296270Y-60726035D01*
X137159974Y-60396987D01*
X137011556Y-60128444D01*
X136987699Y-60085278D01*
X136987695Y-60085271D01*
X136781599Y-59794805D01*
X136781597Y-59794804D01*
X136781594Y-59794799D01*
X136544268Y-59529232D01*
X136278701Y-59291906D01*
X136278695Y-59291901D01*
X136278694Y-59291900D01*
X135988228Y-59085804D01*
X135988221Y-59085800D01*
X135685572Y-58918533D01*
X135676513Y-58913526D01*
X135676506Y-58913523D01*
X135676502Y-58913521D01*
X135347469Y-58777231D01*
X135022581Y-58683633D01*
X135005226Y-58678633D01*
X135005225Y-58678632D01*
X135005219Y-58678631D01*
X134654095Y-58618973D01*
X134298500Y-58599004D01*
X133942904Y-58618973D01*
X133591780Y-58678631D01*
X133249530Y-58777231D01*
X132920497Y-58913521D01*
X132920474Y-58913533D01*
X132608778Y-59085800D01*
X132608771Y-59085804D01*
X132318305Y-59291900D01*
X132318302Y-59291903D01*
X132318299Y-59291906D01*
X132052732Y-59529232D01*
X131815406Y-59794799D01*
X131815403Y-59794802D01*
X131815403Y-59794803D01*
X131815400Y-59794805D01*
X131609304Y-60085271D01*
X131609300Y-60085278D01*
X131437033Y-60396974D01*
X131437021Y-60396997D01*
X131300731Y-60726030D01*
X131202131Y-61068280D01*
X131142473Y-61419404D01*
X131122504Y-61775000D01*
X112590971Y-61775000D01*
X110721662Y-58971036D01*
X110700518Y-58903261D01*
X110700500Y-58901144D01*
X110700500Y-57475000D01*
X122986835Y-57475000D01*
X123005465Y-57711710D01*
X123060894Y-57942592D01*
X123060895Y-57942594D01*
X123151760Y-58161963D01*
X123251858Y-58325308D01*
X123275825Y-58364417D01*
X123275826Y-58364419D01*
X123430030Y-58544969D01*
X123610580Y-58699173D01*
X123610584Y-58699176D01*
X123813037Y-58823240D01*
X124032406Y-58914105D01*
X124263289Y-58969535D01*
X124500000Y-58988165D01*
X124736711Y-58969535D01*
X124967594Y-58914105D01*
X125186963Y-58823240D01*
X125389416Y-58699176D01*
X125569969Y-58544969D01*
X125724176Y-58364416D01*
X125848240Y-58161963D01*
X125939105Y-57942594D01*
X125994535Y-57711711D01*
X126013165Y-57475000D01*
X125994535Y-57238289D01*
X125939105Y-57007406D01*
X125848240Y-56788037D01*
X125724176Y-56585584D01*
X125638382Y-56485132D01*
X125569969Y-56405030D01*
X125389419Y-56250826D01*
X125389417Y-56250825D01*
X125389416Y-56250824D01*
X125186963Y-56126760D01*
X125082010Y-56083287D01*
X124967592Y-56035894D01*
X124800007Y-55995661D01*
X124736711Y-55980465D01*
X124500000Y-55961835D01*
X124263289Y-55980465D01*
X124032407Y-56035894D01*
X123813038Y-56126759D01*
X123610582Y-56250825D01*
X123610580Y-56250826D01*
X123430030Y-56405030D01*
X123275826Y-56585580D01*
X123275825Y-56585582D01*
X123151759Y-56788038D01*
X123060894Y-57007407D01*
X123005465Y-57238289D01*
X122986835Y-57475000D01*
X110700500Y-57475000D01*
X110700500Y-53264996D01*
X114050079Y-53264996D01*
X114050079Y-53265003D01*
X114069741Y-53564999D01*
X114069743Y-53565013D01*
X114099192Y-53713058D01*
X114121101Y-53823203D01*
X114128396Y-53859873D01*
X114128398Y-53859883D01*
X114225033Y-54144560D01*
X114225039Y-54144574D01*
X114358007Y-54414208D01*
X114525036Y-54664185D01*
X114525041Y-54664191D01*
X114723270Y-54890229D01*
X114949308Y-55088458D01*
X114949314Y-55088463D01*
X115054132Y-55158500D01*
X115199289Y-55255491D01*
X115468932Y-55388464D01*
X115753625Y-55485104D01*
X116048496Y-55543758D01*
X116219926Y-55554994D01*
X116348497Y-55563421D01*
X116348500Y-55563421D01*
X116348503Y-55563421D01*
X116461001Y-55556047D01*
X116648504Y-55543758D01*
X116943375Y-55485104D01*
X117228068Y-55388464D01*
X117497711Y-55255491D01*
X117747690Y-55088460D01*
X117973729Y-54890229D01*
X118171960Y-54664190D01*
X118338991Y-54414211D01*
X118447490Y-54194195D01*
X118495558Y-54141947D01*
X118564243Y-54123980D01*
X118631739Y-54145999D01*
X118676616Y-54201014D01*
X118685197Y-54243496D01*
X118685806Y-54243433D01*
X118686479Y-54249843D01*
X118686496Y-54249924D01*
X118686496Y-54249998D01*
X118706457Y-54439927D01*
X118718973Y-54478445D01*
X118765473Y-54621556D01*
X118765476Y-54621561D01*
X118860958Y-54786941D01*
X118860965Y-54786951D01*
X118988744Y-54928864D01*
X118988747Y-54928866D01*
X119143248Y-55041118D01*
X119317712Y-55118794D01*
X119504513Y-55158500D01*
X119695487Y-55158500D01*
X119882288Y-55118794D01*
X120056752Y-55041118D01*
X120211253Y-54928866D01*
X120339040Y-54786944D01*
X120434527Y-54621556D01*
X120489388Y-54452712D01*
X120520123Y-54402556D01*
X120862277Y-54060404D01*
X120924589Y-54026379D01*
X120951372Y-54023500D01*
X123340774Y-54023500D01*
X123408895Y-54043502D01*
X123442707Y-54075436D01*
X123567880Y-54247722D01*
X123567882Y-54247724D01*
X123567884Y-54247727D01*
X123735772Y-54415615D01*
X123735775Y-54415617D01*
X123735778Y-54415620D01*
X123927873Y-54555185D01*
X124139437Y-54662982D01*
X124365259Y-54736356D01*
X124599778Y-54773500D01*
X124599781Y-54773500D01*
X143967219Y-54773500D01*
X143967222Y-54773500D01*
X144201741Y-54736356D01*
X144427563Y-54662982D01*
X144639127Y-54555185D01*
X144831222Y-54415620D01*
X144999120Y-54247722D01*
X145138685Y-54055627D01*
X145246482Y-53844063D01*
X145319856Y-53618241D01*
X145357000Y-53383722D01*
X145357000Y-53146278D01*
X145319856Y-52911759D01*
X145267297Y-52750000D01*
X148736496Y-52750000D01*
X148756457Y-52939927D01*
X148785238Y-53028502D01*
X148815473Y-53121556D01*
X148815476Y-53121561D01*
X148910958Y-53286941D01*
X148910965Y-53286951D01*
X149038744Y-53428864D01*
X149060447Y-53444632D01*
X149193248Y-53541118D01*
X149367712Y-53618794D01*
X149520568Y-53651284D01*
X149583040Y-53685012D01*
X149583465Y-53685436D01*
X151056530Y-55158500D01*
X152498358Y-56600328D01*
X152614400Y-56677865D01*
X152689930Y-56709150D01*
X152689931Y-56709150D01*
X152689932Y-56709151D01*
X152705583Y-56715634D01*
X152743338Y-56731273D01*
X152880219Y-56758500D01*
X152880220Y-56758500D01*
X159344781Y-56758500D01*
X159344782Y-56758500D01*
X159414989Y-56744535D01*
X159481662Y-56731273D01*
X159506364Y-56721040D01*
X159519418Y-56715634D01*
X159519421Y-56715632D01*
X159519427Y-56715630D01*
X159610601Y-56677865D01*
X159726643Y-56600328D01*
X160491535Y-55835434D01*
X160553846Y-55801411D01*
X160554257Y-55801321D01*
X160707288Y-55768794D01*
X160881752Y-55691118D01*
X161036253Y-55578866D01*
X161050160Y-55563421D01*
X161164034Y-55436951D01*
X161164035Y-55436949D01*
X161164040Y-55436944D01*
X161259527Y-55271556D01*
X161318542Y-55089928D01*
X161338504Y-54900000D01*
X161318542Y-54710072D01*
X161259527Y-54528444D01*
X161164040Y-54363056D01*
X161164038Y-54363054D01*
X161164034Y-54363048D01*
X161036255Y-54221135D01*
X160881752Y-54108882D01*
X160707288Y-54031206D01*
X160520487Y-53991500D01*
X160329513Y-53991500D01*
X160142711Y-54031206D01*
X159968247Y-54108882D01*
X159813744Y-54221135D01*
X159685965Y-54363048D01*
X159685958Y-54363058D01*
X159590476Y-54528438D01*
X159590473Y-54528445D01*
X159531457Y-54710072D01*
X159526549Y-54756771D01*
X159499535Y-54822428D01*
X159490335Y-54832694D01*
X159018432Y-55304596D01*
X158956122Y-55338620D01*
X158929339Y-55341500D01*
X158713338Y-55341500D01*
X158645217Y-55321498D01*
X158598724Y-55267842D01*
X158588620Y-55197568D01*
X158618114Y-55132988D01*
X158643336Y-55110735D01*
X158669190Y-55093460D01*
X158895229Y-54895229D01*
X159093460Y-54669190D01*
X159260491Y-54419211D01*
X159393464Y-54149568D01*
X159490104Y-53864875D01*
X159548758Y-53570004D01*
X159567310Y-53286951D01*
X159568421Y-53270003D01*
X159568421Y-53269996D01*
X159553700Y-53045404D01*
X159548758Y-52969996D01*
X159490104Y-52675125D01*
X159393464Y-52390432D01*
X159260491Y-52120790D01*
X159093460Y-51870810D01*
X158993213Y-51756500D01*
X158895229Y-51644770D01*
X158669191Y-51446541D01*
X158669185Y-51446536D01*
X158419208Y-51279507D01*
X158149574Y-51146539D01*
X158149568Y-51146536D01*
X158149563Y-51146534D01*
X158149560Y-51146533D01*
X157864883Y-51049898D01*
X157864877Y-51049896D01*
X157864875Y-51049896D01*
X157766137Y-51030255D01*
X157570013Y-50991243D01*
X157569999Y-50991241D01*
X157270003Y-50971579D01*
X157269997Y-50971579D01*
X156970000Y-50991241D01*
X156969986Y-50991243D01*
X156724493Y-51040075D01*
X156675125Y-51049896D01*
X156675123Y-51049896D01*
X156675116Y-51049898D01*
X156390439Y-51146533D01*
X156390425Y-51146539D01*
X156120792Y-51279507D01*
X155870813Y-51446537D01*
X155644770Y-51644770D01*
X155446537Y-51870813D01*
X155279507Y-52120792D01*
X155146539Y-52390425D01*
X155146533Y-52390439D01*
X155049898Y-52675116D01*
X155049896Y-52675123D01*
X155049896Y-52675125D01*
X155042772Y-52710941D01*
X154991243Y-52969986D01*
X154991241Y-52970000D01*
X154971579Y-53269996D01*
X154971579Y-53270003D01*
X154991241Y-53569999D01*
X154991243Y-53570013D01*
X155024427Y-53736835D01*
X155048901Y-53859875D01*
X155049896Y-53864873D01*
X155049898Y-53864883D01*
X155146533Y-54149560D01*
X155146539Y-54149574D01*
X155279507Y-54419208D01*
X155446536Y-54669185D01*
X155446541Y-54669191D01*
X155644770Y-54895229D01*
X155809767Y-55039927D01*
X155870810Y-55093460D01*
X155896664Y-55110735D01*
X155942192Y-55165212D01*
X155951040Y-55235655D01*
X155920398Y-55299699D01*
X155859997Y-55337011D01*
X155826662Y-55341500D01*
X154968979Y-55341500D01*
X154900858Y-55321498D01*
X154854365Y-55267842D01*
X154844261Y-55197568D01*
X154849146Y-55176563D01*
X154855015Y-55158500D01*
X154893542Y-55039928D01*
X154913504Y-54850000D01*
X154893542Y-54660072D01*
X154834527Y-54478444D01*
X154739040Y-54313056D01*
X154739038Y-54313054D01*
X154739034Y-54313048D01*
X154611255Y-54171135D01*
X154456752Y-54058882D01*
X154282288Y-53981206D01*
X154095487Y-53941500D01*
X153904513Y-53941500D01*
X153717711Y-53981206D01*
X153543247Y-54058882D01*
X153388744Y-54171135D01*
X153260965Y-54313048D01*
X153260958Y-54313058D01*
X153165476Y-54478438D01*
X153165473Y-54478445D01*
X153106457Y-54660072D01*
X153086496Y-54850000D01*
X153088593Y-54869954D01*
X153075820Y-54939792D01*
X153027317Y-54991638D01*
X152958484Y-55009032D01*
X152891175Y-54986450D01*
X152874188Y-54972218D01*
X151883176Y-53981206D01*
X150584664Y-52682693D01*
X150550638Y-52620381D01*
X150548449Y-52606766D01*
X150543542Y-52560075D01*
X150543541Y-52560069D01*
X150535606Y-52535649D01*
X150484527Y-52378444D01*
X150389040Y-52213056D01*
X150389038Y-52213054D01*
X150389034Y-52213048D01*
X150261255Y-52071135D01*
X150106752Y-51958882D01*
X149932288Y-51881206D01*
X149745487Y-51841500D01*
X149554513Y-51841500D01*
X149367711Y-51881206D01*
X149193247Y-51958882D01*
X149038744Y-52071135D01*
X148910965Y-52213048D01*
X148910958Y-52213058D01*
X148815476Y-52378438D01*
X148815473Y-52378444D01*
X148813200Y-52385439D01*
X148756457Y-52560072D01*
X148736496Y-52750000D01*
X145267297Y-52750000D01*
X145246482Y-52685937D01*
X145138685Y-52474373D01*
X144999120Y-52282278D01*
X144999117Y-52282275D01*
X144999115Y-52282272D01*
X144831227Y-52114384D01*
X144831224Y-52114382D01*
X144831222Y-52114380D01*
X144639127Y-51974815D01*
X144427563Y-51867018D01*
X144427560Y-51867017D01*
X144427558Y-51867016D01*
X144201746Y-51793645D01*
X144201742Y-51793644D01*
X144201741Y-51793644D01*
X143967222Y-51756500D01*
X124599778Y-51756500D01*
X124365259Y-51793644D01*
X124365253Y-51793645D01*
X124139441Y-51867016D01*
X124139435Y-51867019D01*
X123927869Y-51974817D01*
X123735775Y-52114382D01*
X123735772Y-52114384D01*
X123567884Y-52282272D01*
X123567882Y-52282275D01*
X123567880Y-52282278D01*
X123442708Y-52454562D01*
X123386488Y-52497915D01*
X123340774Y-52506500D01*
X120510290Y-52506500D01*
X120447006Y-52519089D01*
X120363753Y-52535649D01*
X120363751Y-52535649D01*
X120363745Y-52535651D01*
X120318611Y-52554347D01*
X120318610Y-52554348D01*
X120225716Y-52592825D01*
X120215397Y-52599721D01*
X120215389Y-52599725D01*
X120127202Y-52658651D01*
X120102546Y-52675126D01*
X120101483Y-52675836D01*
X120101481Y-52675837D01*
X119443665Y-53333652D01*
X119381353Y-53367677D01*
X119380769Y-53367802D01*
X119317713Y-53381205D01*
X119143249Y-53458881D01*
X119143248Y-53458882D01*
X118988744Y-53571135D01*
X118860965Y-53713048D01*
X118860958Y-53713058D01*
X118841076Y-53747495D01*
X118789693Y-53796487D01*
X118719979Y-53809922D01*
X118654068Y-53783534D01*
X118612887Y-53725702D01*
X118608379Y-53659913D01*
X118627258Y-53565004D01*
X118646921Y-53265000D01*
X118640778Y-53171281D01*
X118627258Y-52964996D01*
X118627256Y-52964986D01*
X118616667Y-52911753D01*
X118568604Y-52670125D01*
X118564710Y-52658655D01*
X118513061Y-52506500D01*
X118471964Y-52385432D01*
X118338991Y-52115790D01*
X118171960Y-51865810D01*
X118076098Y-51756500D01*
X117973729Y-51639770D01*
X117772452Y-51463256D01*
X117747690Y-51441540D01*
X117747686Y-51441537D01*
X117747685Y-51441536D01*
X117497708Y-51274507D01*
X117228074Y-51141539D01*
X117228068Y-51141536D01*
X117228063Y-51141534D01*
X117228060Y-51141533D01*
X116943383Y-51044898D01*
X116943377Y-51044896D01*
X116943375Y-51044896D01*
X116844637Y-51025255D01*
X116648513Y-50986243D01*
X116648499Y-50986241D01*
X116348503Y-50966579D01*
X116348497Y-50966579D01*
X116048500Y-50986241D01*
X116048486Y-50986243D01*
X115802993Y-51035075D01*
X115753625Y-51044896D01*
X115753623Y-51044896D01*
X115753616Y-51044898D01*
X115468939Y-51141533D01*
X115468925Y-51141539D01*
X115199292Y-51274507D01*
X114949313Y-51441537D01*
X114723270Y-51639770D01*
X114525037Y-51865813D01*
X114358007Y-52115792D01*
X114225039Y-52385425D01*
X114225033Y-52385439D01*
X114128398Y-52670116D01*
X114128396Y-52670123D01*
X114128396Y-52670125D01*
X114127401Y-52675126D01*
X114069743Y-52964986D01*
X114069742Y-52964996D01*
X114050079Y-53264996D01*
X110700500Y-53264996D01*
X110700500Y-49930600D01*
X110720502Y-49862479D01*
X110774158Y-49815986D01*
X110826500Y-49804600D01*
X166990763Y-49804600D01*
X167058884Y-49824602D01*
G37*
%TD.AperFunction*%
%TA.AperFunction,Conductor*%
G36*
X174053527Y-79253502D02*
G01*
X174074501Y-79270405D01*
X176296161Y-81492067D01*
X176296167Y-81492072D01*
X176399925Y-81561401D01*
X176461593Y-81586944D01*
X176515215Y-81609155D01*
X176637606Y-81633500D01*
X176637607Y-81633500D01*
X176762394Y-81633500D01*
X183241800Y-81633500D01*
X183309921Y-81653502D01*
X183335437Y-81675190D01*
X183338747Y-81678866D01*
X183493248Y-81791118D01*
X183667712Y-81868794D01*
X183854513Y-81908500D01*
X184045487Y-81908500D01*
X184232288Y-81868794D01*
X184366654Y-81808970D01*
X184437018Y-81799537D01*
X184501315Y-81829643D01*
X184539128Y-81889732D01*
X184543900Y-81924078D01*
X184543900Y-91915500D01*
X184523898Y-91983621D01*
X184470242Y-92030114D01*
X184417900Y-92041500D01*
X184354513Y-92041500D01*
X184167711Y-92081206D01*
X183993245Y-92158883D01*
X183981476Y-92167435D01*
X183914609Y-92191294D01*
X183907413Y-92191500D01*
X170375291Y-92191500D01*
X170311759Y-92204138D01*
X170228753Y-92220649D01*
X170228745Y-92220651D01*
X170217695Y-92225229D01*
X170217694Y-92225230D01*
X170090715Y-92277826D01*
X170025901Y-92321134D01*
X169966485Y-92360834D01*
X169966484Y-92360835D01*
X168118667Y-94208651D01*
X168056355Y-94242676D01*
X168055772Y-94242801D01*
X167992712Y-94256206D01*
X167818249Y-94333881D01*
X167818243Y-94333884D01*
X167746760Y-94385820D01*
X167679893Y-94409679D01*
X167610741Y-94393598D01*
X167561261Y-94342684D01*
X167546700Y-94283884D01*
X167546700Y-92581722D01*
X167566702Y-92513601D01*
X167579057Y-92497419D01*
X167701040Y-92361944D01*
X167796527Y-92196556D01*
X167855542Y-92014928D01*
X167875504Y-91825000D01*
X167855542Y-91635072D01*
X167796527Y-91453444D01*
X167701040Y-91288056D01*
X167701038Y-91288054D01*
X167701034Y-91288048D01*
X167573255Y-91146135D01*
X167418752Y-91033882D01*
X167244288Y-90956206D01*
X167057487Y-90916500D01*
X166866513Y-90916500D01*
X166866512Y-90916500D01*
X166801423Y-90930335D01*
X166730632Y-90924933D01*
X166673999Y-90882116D01*
X166649506Y-90815478D01*
X166649226Y-90807088D01*
X166649226Y-90515233D01*
X166669228Y-90447112D01*
X166722884Y-90400619D01*
X166793158Y-90390515D01*
X166801424Y-90391987D01*
X166879109Y-90408500D01*
X166879113Y-90408500D01*
X167070087Y-90408500D01*
X167256888Y-90368794D01*
X167431352Y-90291118D01*
X167585853Y-90178866D01*
X167585855Y-90178864D01*
X167713634Y-90036951D01*
X167713635Y-90036949D01*
X167713640Y-90036944D01*
X167809127Y-89871556D01*
X167811411Y-89864524D01*
X167842148Y-89814364D01*
X168211111Y-89445404D01*
X168273423Y-89411379D01*
X168300206Y-89408500D01*
X168425111Y-89408500D01*
X168611912Y-89368794D01*
X168786376Y-89291118D01*
X168940877Y-89178866D01*
X168940879Y-89178864D01*
X169068658Y-89036951D01*
X169068659Y-89036949D01*
X169068664Y-89036944D01*
X169164151Y-88871556D01*
X169223166Y-88689928D01*
X169243128Y-88500000D01*
X169223166Y-88310072D01*
X169164151Y-88128444D01*
X169068664Y-87963056D01*
X169068662Y-87963054D01*
X169068658Y-87963048D01*
X168940879Y-87821135D01*
X168786376Y-87708882D01*
X168611912Y-87631206D01*
X168425111Y-87591500D01*
X168234137Y-87591500D01*
X168047333Y-87631206D01*
X167941417Y-87678363D01*
X167871050Y-87687797D01*
X167806753Y-87657690D01*
X167768940Y-87597601D01*
X167764169Y-87563256D01*
X167764169Y-86803153D01*
X167784171Y-86735032D01*
X167796526Y-86718850D01*
X167918509Y-86583375D01*
X168013996Y-86417987D01*
X168073011Y-86236359D01*
X168092973Y-86046431D01*
X168073011Y-85856503D01*
X168013996Y-85674875D01*
X167918509Y-85509487D01*
X167918507Y-85509485D01*
X167918503Y-85509479D01*
X167790724Y-85367566D01*
X167696075Y-85298800D01*
X167636221Y-85255313D01*
X167636219Y-85255312D01*
X167636218Y-85255311D01*
X167633578Y-85254136D01*
X167632298Y-85253048D01*
X167630500Y-85252010D01*
X167630689Y-85251681D01*
X167579483Y-85208156D01*
X167558834Y-85140228D01*
X167578187Y-85071921D01*
X167631398Y-85024919D01*
X167633533Y-85023943D01*
X167783852Y-84957018D01*
X167938353Y-84844766D01*
X167938355Y-84844764D01*
X168066134Y-84702851D01*
X168066135Y-84702849D01*
X168066140Y-84702844D01*
X168161627Y-84537456D01*
X168220642Y-84355828D01*
X168234212Y-84226704D01*
X168261224Y-84161049D01*
X168270409Y-84150798D01*
X169392071Y-83029138D01*
X169461400Y-82925380D01*
X169509155Y-82810090D01*
X169533500Y-82687699D01*
X169533500Y-82562912D01*
X169533500Y-80984500D01*
X169553502Y-80916379D01*
X169607158Y-80869886D01*
X169659500Y-80858500D01*
X169720487Y-80858500D01*
X169907288Y-80818794D01*
X170081752Y-80741118D01*
X170236253Y-80628866D01*
X170267425Y-80594244D01*
X170294938Y-80563690D01*
X170355384Y-80526450D01*
X170388574Y-80522000D01*
X171660880Y-80522000D01*
X171729001Y-80542002D01*
X171749975Y-80558905D01*
X172891095Y-81700025D01*
X172925121Y-81762337D01*
X172928000Y-81789120D01*
X172928000Y-84708248D01*
X172911119Y-84771248D01*
X172892682Y-84803180D01*
X172875865Y-84865942D01*
X172853700Y-84948664D01*
X172853700Y-85648936D01*
X172892681Y-85794415D01*
X172900698Y-85808302D01*
X172917436Y-85877294D01*
X172894216Y-85944386D01*
X172880674Y-85960395D01*
X168961474Y-89879595D01*
X168899162Y-89913621D01*
X168872379Y-89916500D01*
X168729513Y-89916500D01*
X168542711Y-89956206D01*
X168368247Y-90033882D01*
X168213744Y-90146135D01*
X168085965Y-90288048D01*
X168085958Y-90288058D01*
X167990476Y-90453438D01*
X167990473Y-90453445D01*
X167931457Y-90635072D01*
X167911496Y-90825000D01*
X167931457Y-91014927D01*
X167948938Y-91068726D01*
X167990473Y-91196556D01*
X167990476Y-91196561D01*
X168085958Y-91361941D01*
X168085965Y-91361951D01*
X168213744Y-91503864D01*
X168213747Y-91503866D01*
X168368248Y-91616118D01*
X168542712Y-91693794D01*
X168729513Y-91733500D01*
X168920487Y-91733500D01*
X169107288Y-91693794D01*
X169281752Y-91616118D01*
X169436253Y-91503866D01*
X169436255Y-91503864D01*
X169564034Y-91361951D01*
X169564035Y-91361949D01*
X169564040Y-91361944D01*
X169659527Y-91196556D01*
X169718542Y-91014928D01*
X169738504Y-90825000D01*
X169738504Y-90824998D01*
X169738504Y-90824995D01*
X169734840Y-90790142D01*
X169747610Y-90720304D01*
X169771051Y-90687877D01*
X171420486Y-89038443D01*
X171482795Y-89004419D01*
X171553610Y-89009484D01*
X171610446Y-89052031D01*
X171635257Y-89118551D01*
X171632826Y-89153730D01*
X171631458Y-89160166D01*
X171611496Y-89350100D01*
X171631457Y-89540027D01*
X171649163Y-89594518D01*
X171690473Y-89721656D01*
X171704605Y-89746134D01*
X171785958Y-89887041D01*
X171785965Y-89887051D01*
X171913744Y-90028964D01*
X171924728Y-90036944D01*
X172068248Y-90141218D01*
X172242712Y-90218894D01*
X172429513Y-90258600D01*
X172620487Y-90258600D01*
X172807288Y-90218894D01*
X172981752Y-90141218D01*
X173136253Y-90028966D01*
X173177238Y-89983447D01*
X173194938Y-89963790D01*
X173255384Y-89926550D01*
X173288574Y-89922100D01*
X173785980Y-89922100D01*
X173854101Y-89942102D01*
X173875075Y-89959005D01*
X174356192Y-90440122D01*
X174390218Y-90502434D01*
X174392407Y-90542387D01*
X174376139Y-90697170D01*
X174396100Y-90887097D01*
X174411874Y-90935642D01*
X174455116Y-91068726D01*
X174455119Y-91068731D01*
X174550601Y-91234111D01*
X174550608Y-91234121D01*
X174678387Y-91376034D01*
X174678390Y-91376036D01*
X174832891Y-91488288D01*
X175007355Y-91565964D01*
X175194156Y-91605670D01*
X175385130Y-91605670D01*
X175571931Y-91565964D01*
X175746395Y-91488288D01*
X175900896Y-91376036D01*
X175913578Y-91361951D01*
X176028677Y-91234121D01*
X176028678Y-91234119D01*
X176028683Y-91234114D01*
X176124170Y-91068726D01*
X176183185Y-90887098D01*
X176203147Y-90697170D01*
X176183185Y-90507242D01*
X176124170Y-90325614D01*
X176028683Y-90160226D01*
X176028681Y-90160224D01*
X176028677Y-90160218D01*
X175900898Y-90018305D01*
X175746395Y-89906052D01*
X175571931Y-89828376D01*
X175385130Y-89788670D01*
X175374792Y-89788670D01*
X175306671Y-89768668D01*
X175285697Y-89751766D01*
X174426318Y-88892388D01*
X174426312Y-88892383D01*
X174368514Y-88859014D01*
X174295888Y-88817083D01*
X174295886Y-88817082D01*
X174295884Y-88817081D01*
X174182557Y-88786715D01*
X174121937Y-88749764D01*
X174090915Y-88685903D01*
X174099344Y-88615409D01*
X174126071Y-88575919D01*
X174693676Y-88008315D01*
X174728748Y-87947568D01*
X174738665Y-87930391D01*
X174770650Y-87874991D01*
X174770649Y-87874991D01*
X174770653Y-87874986D01*
X174810500Y-87726277D01*
X174810500Y-85900231D01*
X174827381Y-85837231D01*
X174828240Y-85835744D01*
X174883114Y-85740700D01*
X179068496Y-85740700D01*
X179088457Y-85930627D01*
X179090725Y-85937606D01*
X179147473Y-86112256D01*
X179147476Y-86112261D01*
X179242958Y-86277641D01*
X179242965Y-86277651D01*
X179370744Y-86419564D01*
X179370747Y-86419566D01*
X179525248Y-86531818D01*
X179699712Y-86609494D01*
X179886513Y-86649200D01*
X180011420Y-86649200D01*
X180079541Y-86669202D01*
X180100515Y-86686105D01*
X180426215Y-87011805D01*
X180460241Y-87074117D01*
X180463120Y-87100900D01*
X180463120Y-89574216D01*
X180443118Y-89642337D01*
X180430757Y-89658526D01*
X180308781Y-89793994D01*
X180308778Y-89793998D01*
X180213296Y-89959378D01*
X180213293Y-89959384D01*
X180205271Y-89984073D01*
X180154277Y-90141012D01*
X180134316Y-90330940D01*
X180154277Y-90520867D01*
X180174090Y-90581842D01*
X180213293Y-90702496D01*
X180226574Y-90725499D01*
X180308778Y-90867881D01*
X180308785Y-90867891D01*
X180436564Y-91009804D01*
X180436567Y-91009806D01*
X180591068Y-91122058D01*
X180765532Y-91199734D01*
X180952333Y-91239440D01*
X181143307Y-91239440D01*
X181330108Y-91199734D01*
X181504572Y-91122058D01*
X181659073Y-91009806D01*
X181706322Y-90957329D01*
X181766768Y-90920090D01*
X181799959Y-90915640D01*
X182178291Y-90915640D01*
X182246412Y-90935642D01*
X182292905Y-90989298D01*
X182298122Y-91002697D01*
X182312372Y-91046554D01*
X182312375Y-91046561D01*
X182407858Y-91211941D01*
X182407865Y-91211951D01*
X182535644Y-91353864D01*
X182566161Y-91376036D01*
X182690148Y-91466118D01*
X182864612Y-91543794D01*
X183051413Y-91583500D01*
X183242387Y-91583500D01*
X183429188Y-91543794D01*
X183603652Y-91466118D01*
X183758153Y-91353866D01*
X183758155Y-91353864D01*
X183885934Y-91211951D01*
X183885935Y-91211949D01*
X183885940Y-91211944D01*
X183981427Y-91046556D01*
X184040442Y-90864928D01*
X184060404Y-90675000D01*
X184040442Y-90485072D01*
X183981427Y-90303444D01*
X183885940Y-90138056D01*
X183885938Y-90138054D01*
X183885934Y-90138048D01*
X183758155Y-89996135D01*
X183603652Y-89883882D01*
X183429188Y-89806206D01*
X183242387Y-89766500D01*
X183051413Y-89766500D01*
X183051407Y-89766500D01*
X183027472Y-89771587D01*
X182968669Y-89770047D01*
X182879817Y-89746240D01*
X181799958Y-89746240D01*
X181731837Y-89726238D01*
X181706326Y-89704554D01*
X181664881Y-89658525D01*
X181634166Y-89594518D01*
X181632520Y-89574217D01*
X181632520Y-86729544D01*
X181631382Y-86725297D01*
X181592673Y-86580834D01*
X181515696Y-86447506D01*
X181406834Y-86338644D01*
X181304385Y-86236195D01*
X181270359Y-86173883D01*
X181275424Y-86103068D01*
X181304385Y-86058005D01*
X182555885Y-84806505D01*
X182618197Y-84772479D01*
X182644980Y-84769600D01*
X182769887Y-84769600D01*
X182956688Y-84729894D01*
X183131152Y-84652218D01*
X183285653Y-84539966D01*
X183322207Y-84499369D01*
X183413434Y-84398051D01*
X183413435Y-84398049D01*
X183413440Y-84398044D01*
X183508927Y-84232656D01*
X183567942Y-84051028D01*
X183587904Y-83861100D01*
X183567942Y-83671172D01*
X183508927Y-83489544D01*
X183413440Y-83324156D01*
X183413438Y-83324154D01*
X183413434Y-83324148D01*
X183285655Y-83182235D01*
X183131152Y-83069982D01*
X182956688Y-82992306D01*
X182769887Y-82952600D01*
X182578913Y-82952600D01*
X182392111Y-82992306D01*
X182217647Y-83069982D01*
X182063144Y-83182235D01*
X181935365Y-83324148D01*
X181935358Y-83324158D01*
X181839876Y-83489538D01*
X181839873Y-83489545D01*
X181780857Y-83671172D01*
X181760896Y-83861100D01*
X181760896Y-83861104D01*
X181762851Y-83879711D01*
X181750077Y-83949549D01*
X181726636Y-83981972D01*
X180700347Y-85008261D01*
X180638035Y-85042287D01*
X180567220Y-85037222D01*
X180537191Y-85021102D01*
X180438752Y-84949582D01*
X180264288Y-84871906D01*
X180077487Y-84832200D01*
X179886513Y-84832200D01*
X179699711Y-84871906D01*
X179525247Y-84949582D01*
X179370744Y-85061835D01*
X179242965Y-85203748D01*
X179242958Y-85203758D01*
X179147476Y-85369138D01*
X179147473Y-85369145D01*
X179088457Y-85550772D01*
X179068496Y-85740700D01*
X174883114Y-85740700D01*
X174923727Y-85670356D01*
X174982742Y-85488728D01*
X175002704Y-85298800D01*
X174982742Y-85108872D01*
X174923727Y-84927244D01*
X174828240Y-84761856D01*
X174828238Y-84761854D01*
X174828234Y-84761848D01*
X174700455Y-84619935D01*
X174545952Y-84507682D01*
X174371488Y-84430006D01*
X174178228Y-84388927D01*
X174178487Y-84387707D01*
X174119162Y-84363292D01*
X174078539Y-84305066D01*
X174072000Y-84265004D01*
X174072000Y-81424696D01*
X174072000Y-81424695D01*
X174033019Y-81279216D01*
X173975081Y-81178864D01*
X173957716Y-81148787D01*
X173957712Y-81148782D01*
X173907001Y-81098071D01*
X173851216Y-81042286D01*
X173124142Y-80315212D01*
X172301222Y-79492291D01*
X172301218Y-79492288D01*
X172301216Y-79492286D01*
X172274268Y-79476727D01*
X172260225Y-79468620D01*
X172211231Y-79417238D01*
X172197793Y-79347525D01*
X172224179Y-79281614D01*
X172282010Y-79240431D01*
X172323223Y-79233500D01*
X173985406Y-79233500D01*
X174053527Y-79253502D01*
G37*
%TD.AperFunction*%
%TD*%
%TA.AperFunction,NonConductor*%
G36*
X135942121Y-42020002D02*
G01*
X135988614Y-42073658D01*
X136000000Y-42126000D01*
X136000000Y-48374000D01*
X135979998Y-48442121D01*
X135926342Y-48488614D01*
X135874000Y-48500000D01*
X129626000Y-48500000D01*
X129557879Y-48479998D01*
X129511386Y-48426342D01*
X129500000Y-48374000D01*
X129500000Y-42126000D01*
X129520002Y-42057879D01*
X129573658Y-42011386D01*
X129626000Y-42000000D01*
X135874000Y-42000000D01*
X135942121Y-42020002D01*
G37*
%TD.AperFunction*%
%TA.AperFunction,NonConductor*%
G36*
X158942121Y-42520002D02*
G01*
X158988614Y-42573658D01*
X159000000Y-42626000D01*
X159000000Y-48874000D01*
X158979998Y-48942121D01*
X158926342Y-48988614D01*
X158874000Y-49000000D01*
X150626000Y-49000000D01*
X150557879Y-48979998D01*
X150511386Y-48926342D01*
X150500000Y-48874000D01*
X150500000Y-46000000D01*
X148626000Y-46000000D01*
X148557879Y-45979998D01*
X148511386Y-45926342D01*
X148500000Y-45874000D01*
X148500000Y-42626000D01*
X148520002Y-42557879D01*
X148573658Y-42511386D01*
X148626000Y-42500000D01*
X158874000Y-42500000D01*
X158942121Y-42520002D01*
G37*
%TD.AperFunction*%
M02*
